{"glyphs":{"0":{"ha":803,"x_min":41,"x_max":752,"o":"m 523 1111 l 550 1111 q 630 1072 630 1089 q 671 1011 665 1042 q 677 994 677 1011 l 677 964 q 628 872 677 919 l 579 845 l 521 845 q 435 892 469 856 q 416 950 416 924 q 408 970 408 951 l 408 999 q 460 1079 437 1079 q 523 1111 475 1099 m 489 982 q 545 921 489 930 l 550 921 q 593 964 593 937 q 601 982 600 964 q 550 1030 585 1030 q 540 1033 550 1033 q 489 982 489 1024 m 321 967 l 333 967 q 408 892 408 950 l 406 892 l 408 887 l 408 860 q 472 838 408 852 q 630 726 554 804 q 737 519 713 621 l 752 463 l 752 421 q 732 395 752 408 l 696 395 q 665 492 675 395 q 647 546 659 492 q 608 624 644 547 q 572 670 604 624 q 457 755 507 736 q 408 770 435 770 l 406 755 l 406 753 q 440 719 406 727 q 545 638 503 689 q 601 541 601 561 q 616 507 604 541 l 628 460 l 628 431 q 599 395 628 412 q 572 392 585 392 q 521 465 528 392 q 428 606 470 589 q 333 641 403 630 q 279 631 318 634 q 214 580 220 600 q 148 465 174 547 q 119 402 135 402 q 82 392 119 392 q 43 424 43 397 q 45 475 45 456 l 45 480 q 75 560 45 488 q 123 636 75 566 q 221 713 186 704 q 250 736 249 724 q 248 762 248 752 l 248 768 l 250 782 q 245 833 245 795 l 245 875 q 275 945 245 912 q 321 967 310 967 m 94 353 q 140 307 140 342 l 153 263 q 201 173 168 215 q 294 112 260 112 q 311 104 300 104 l 360 104 q 455 163 424 123 q 523 288 494 192 q 552 349 523 322 q 567 353 560 353 l 589 353 q 628 312 618 353 l 628 278 l 606 207 q 535 98 570 127 q 438 22 481 37 q 355 0 410 9 l 311 0 q 209 37 241 11 q 104 129 170 47 q 43 280 51 216 q 41 297 43 288 q 79 353 41 338 l 94 353 z "},"1":{"ha":1229,"x_min":47,"x_max":1176,"o":"m 593 1036 q 739 987 686 1036 q 812 936 787 958 q 834 909 821 936 l 834 882 q 793 836 834 856 q 783 833 789 833 l 777 833 q 674 895 758 833 q 631 917 641 917 q 582 928 624 917 q 525 914 562 920 q 416 841 418 841 q 397 833 410 833 l 381 833 q 335 879 335 845 l 335 906 q 419 979 335 928 q 517 1031 465 1019 q 522 1034 517 1034 q 593 1036 541 1034 m 259 863 l 273 863 q 324 803 324 844 q 237 716 324 766 l 172 667 q 164 648 164 657 q 213 602 164 629 q 297 540 213 599 q 313 496 313 516 l 311 472 q 313 442 313 454 l 316 442 q 370 480 340 480 q 514 393 391 480 q 579 372 523 384 l 595 372 q 690 418 652 383 q 734 448 696 418 q 799 480 787 480 q 856 448 831 480 l 859 461 l 859 507 q 918 572 859 543 l 1002 635 q 1008 648 1008 644 q 940 708 1008 668 q 856 768 888 749 q 848 789 848 785 l 848 822 q 894 863 848 849 l 913 863 q 1002 806 923 863 q 1114 689 1114 739 q 1124 646 1122 689 q 1086 556 1119 600 q 975 475 1049 522 l 975 388 q 964 293 975 337 q 859 100 952 207 q 685 0 773 23 l 658 0 q 612 49 623 0 l 612 62 q 688 122 612 106 q 799 206 732 135 q 850 315 846 269 q 859 334 859 321 l 859 385 l 856 399 l 853 399 q 802 353 840 377 q 669 274 693 274 q 598 258 654 267 l 571 258 q 454 293 507 267 q 316 399 361 351 l 313 399 l 313 391 q 311 382 313 382 l 313 369 l 313 331 q 365 217 334 248 q 452 138 409 159 q 541 103 460 128 q 568 57 568 74 l 568 52 q 528 0 553 0 l 487 0 q 357 62 420 19 q 245 187 282 123 q 202 315 218 233 q 197 334 197 315 l 197 458 q 113 529 197 479 q 47 635 52 587 l 47 662 q 107 765 54 719 l 227 846 q 259 863 250 863 m 1103 437 q 1168 358 1168 421 l 1176 345 l 1173 326 l 1173 285 q 1108 193 1165 193 q 1095 184 1108 191 l 1086 184 q 1021 220 1036 196 q 1008 252 1008 244 l 1008 374 q 1067 437 1008 405 l 1103 437 z "},"2":{"ha":1417,"x_min":34,"x_max":1366,"o":"m 1246 892 l 1263 892 q 1336 852 1322 876 q 1366 779 1354 837 q 1317 694 1349 715 q 1181 618 1230 640 q 1141 608 1149 608 l 1078 629 q 1002 572 1002 594 q 1024 469 1013 551 l 1024 450 q 1010 380 1013 416 q 994 336 1004 368 q 894 201 972 277 q 791 130 854 167 l 728 106 q 674 92 689 92 q 655 84 674 87 q 598 149 598 104 q 688 212 598 197 q 837 304 771 243 q 902 434 902 385 q 907 448 907 434 l 907 488 q 888 524 900 524 q 620 374 634 374 q 576 420 576 387 q 704 518 576 460 q 848 602 709 524 l 848 608 q 785 635 839 624 l 783 635 q 709 605 734 629 q 690 586 706 605 q 663 575 668 575 l 650 575 q 598 627 598 588 l 598 632 q 658 708 598 678 q 783 746 701 746 q 845 743 811 743 q 929 694 915 706 q 954 670 929 691 l 962 670 q 1038 727 1038 699 q 1130 836 1038 798 q 1233 887 1210 886 q 1246 892 1233 892 m 411 746 q 585 659 518 746 l 587 643 l 587 618 q 544 575 587 591 l 525 575 q 463 618 511 575 q 400 635 444 629 q 332 608 356 627 q 283 486 283 538 q 278 467 279 486 q 305 366 290 401 q 365 290 331 330 q 563 195 448 220 q 587 157 587 172 l 587 136 q 536 84 587 109 l 528 84 l 441 111 q 308 190 363 146 l 300 190 q 199 130 264 164 l 199 127 q 256 65 256 93 l 256 57 q 202 0 256 22 l 199 0 q 50 76 173 4 q 34 111 34 103 l 34 136 q 69 285 34 285 q 99 296 85 296 l 102 296 q 148 252 148 283 q 156 228 151 252 l 156 225 l 153 212 l 156 212 q 237 258 237 248 q 180 385 180 357 q 172 401 172 388 l 172 431 l 164 458 q 180 559 173 545 q 227 656 189 598 q 335 732 275 722 q 411 746 354 746 z "},"3":{"ha":1291,"x_min":41,"x_max":1228,"o":"m 212 1007 q 297 958 231 1007 q 382 882 382 915 l 382 879 q 331 827 382 842 q 282 852 321 827 q 276 846 282 846 l 279 815 l 279 751 q 276 675 279 720 q 279 653 279 663 q 276 635 276 637 q 279 595 279 614 q 245 531 265 531 q 209 516 218 516 q 154 555 170 526 q 148 574 148 566 l 148 848 q 142 852 142 848 q 90 827 98 827 q 41 864 64 827 l 41 888 q 175 989 41 921 q 212 1007 192 1007 m 941 909 l 990 909 q 1051 861 1051 886 q 1069 809 1058 861 l 1069 473 q 990 363 1069 395 q 978 360 985 360 l 954 360 q 880 418 880 382 q 868 449 871 418 l 868 821 q 941 909 868 884 m 718 821 q 791 787 767 814 q 819 730 810 766 l 819 452 q 767 376 796 376 q 730 360 741 360 l 703 360 q 627 431 627 383 q 618 449 618 433 l 618 736 q 667 806 621 766 q 718 821 694 821 m 462 739 l 474 739 q 547 702 523 730 q 566 659 566 669 l 566 431 q 508 370 537 376 q 480 360 486 360 l 456 360 q 386 409 386 385 q 368 461 378 410 l 368 620 l 364 638 q 447 732 392 732 q 462 739 447 738 m 227 476 q 279 403 264 476 l 279 376 q 368 256 303 294 l 419 238 l 459 238 q 520 165 520 223 q 462 107 500 107 l 413 107 q 309 144 338 123 q 193 248 248 170 q 148 372 148 338 l 148 425 q 191 476 148 459 l 227 476 m 1103 345 q 1185 256 1139 345 q 1228 180 1228 195 l 1228 168 q 1167 55 1228 146 q 1112 0 1134 0 l 1088 0 q 1054 43 1054 20 l 1054 52 q 1076 104 1054 62 l 1069 107 l 612 107 q 557 165 569 107 l 557 180 q 614 238 557 214 l 1072 238 l 1072 248 q 1051 293 1051 283 l 1051 299 q 1103 345 1074 345 z "},"4":{"ha":790,"x_min":41,"x_max":748,"o":"m 601 1116 l 721 1116 q 748 1086 745 1116 l 748 1076 q 723 1044 745 1044 l 649 1044 q 614 998 630 1044 q 534 837 585 944 l 538 834 l 686 834 q 728 793 705 834 l 730 784 q 654 694 730 766 q 403 447 410 447 q 391 445 399 445 l 377 445 q 273 535 348 445 q 189 615 255 558 q 45 765 84 730 q 41 788 41 780 q 94 834 41 819 q 123 832 113 834 q 306 834 240 834 l 444 834 q 583 1106 473 885 q 601 1116 592 1116 m 212 735 l 212 730 q 354 592 226 711 q 384 565 375 566 q 553 730 391 565 l 553 735 l 308 735 q 218 738 275 735 q 212 735 214 735 m 347 707 l 405 707 q 467 666 467 707 q 430 627 457 627 l 342 627 q 303 661 317 627 l 303 669 q 347 707 303 699 m 375 417 l 395 417 q 430 380 420 417 l 430 106 q 437 99 430 102 l 541 99 q 578 58 578 86 q 580 51 580 58 l 580 48 q 545 2 580 20 q 527 0 536 0 l 245 0 q 189 41 203 0 q 186 48 189 44 q 227 99 186 81 l 326 99 q 334 106 330 99 l 334 346 q 375 417 334 417 z "},"5":{"ha":1136,"x_min":47,"x_max":1092,"o":"m 628 1120 l 647 1120 q 688 1077 688 1103 q 677 1034 677 1039 l 677 998 q 728 977 682 987 q 758 966 728 972 q 883 879 828 928 l 886 879 q 943 925 891 879 q 967 933 960 933 q 1016 898 1001 933 l 1016 887 q 945 814 1016 857 q 943 803 945 812 q 1000 684 961 790 q 1010 621 1007 665 q 1065 605 1010 606 q 1092 570 1092 585 l 1092 545 q 1043 513 1072 513 l 1021 513 q 1002 448 1009 513 l 983 391 l 943 317 q 891 255 911 275 l 891 247 q 970 138 970 160 q 937 98 961 98 l 918 98 q 823 193 897 98 l 818 193 q 669 130 752 152 l 663 130 q 614 171 614 144 l 614 206 q 671 250 614 237 q 810 336 755 279 q 886 467 867 397 q 894 502 890 467 q 902 521 902 508 l 902 600 q 886 662 892 632 q 799 800 868 727 q 709 860 737 852 q 604 892 669 876 q 579 933 579 910 q 582 987 582 964 l 582 998 q 593 1042 582 1002 l 593 1080 q 628 1120 606 1120 m 224 1034 q 316 939 251 1027 l 327 930 l 335 930 q 479 993 382 968 l 484 993 q 538 939 538 982 l 538 933 q 490 876 538 894 q 416 849 475 876 q 283 708 306 772 q 256 627 256 652 q 248 608 251 626 l 248 524 q 311 369 269 429 q 435 266 394 279 q 522 241 499 241 q 557 217 546 229 q 568 184 568 196 l 568 168 q 557 119 557 136 l 557 84 l 541 19 q 503 0 516 0 q 465 30 465 9 l 465 90 q 471 125 465 113 q 430 144 471 139 q 264 247 353 173 l 262 247 q 197 198 256 247 q 175 193 186 193 q 134 217 151 193 l 134 250 q 197 309 135 273 q 202 320 202 316 l 170 388 q 140 499 141 458 q 126 524 131 524 l 83 524 q 47 564 47 531 l 47 567 q 85 608 47 593 l 126 608 q 148 673 136 608 q 237 844 176 778 q 254 873 254 872 l 178 968 l 175 982 l 175 987 q 224 1034 175 1023 m 479 765 l 484 765 q 536 713 516 765 l 536 700 q 479 651 523 651 q 422 694 435 651 l 422 719 q 479 765 437 765 m 701 703 l 715 703 q 772 646 751 703 l 772 643 q 734 591 762 608 q 723 589 729 589 l 704 589 q 655 637 655 602 l 655 648 q 701 703 655 680 m 416 529 q 473 472 473 515 l 473 469 q 430 418 457 418 l 400 418 q 357 469 368 418 l 357 475 q 416 529 357 515 m 652 467 q 707 415 707 448 l 707 396 q 652 353 684 353 l 642 353 q 593 396 607 353 l 593 420 q 639 461 609 461 q 652 467 639 466 z "},"6":{"ha":734,"x_min":41,"x_max":681,"o":"m 133 1131 q 190 1080 174 1131 l 190 1066 q 157 960 168 1011 l 157 833 q 171 779 168 805 q 298 621 223 654 l 339 608 l 372 608 q 486 670 413 608 q 556 852 556 770 q 564 871 564 858 l 564 917 q 553 996 553 957 q 529 1066 547 998 q 583 1131 536 1131 q 640 1082 640 1120 l 659 1044 l 659 1025 q 670 993 670 996 l 670 960 q 681 898 681 919 q 670 838 681 884 l 670 803 q 654 743 659 771 q 583 610 629 674 q 456 513 508 525 q 355 491 404 491 q 296 502 336 491 q 171 570 245 509 q 68 732 89 658 q 46 817 54 770 q 43 819 43 817 q 41 909 41 892 q 43 985 41 919 q 65 1066 50 987 q 133 1131 92 1131 m 233 822 l 477 822 q 524 770 524 822 q 483 730 524 741 l 236 730 q 193 757 214 732 l 193 784 q 233 822 208 822 m 363 469 q 415 415 409 469 l 415 122 q 420 117 416 117 l 477 117 q 515 114 492 117 q 529 117 520 117 q 586 65 586 104 l 589 52 q 537 0 581 0 l 174 0 q 127 49 138 0 l 127 65 q 195 117 127 99 l 222 114 q 293 117 253 117 q 298 122 298 117 l 298 393 q 347 469 298 452 l 363 469 z "},"7":{"ha":1088,"x_min":41,"x_max":1045,"o":"m 683 1014 l 703 1014 q 882 975 728 1014 q 970 949 939 962 q 999 857 989 917 l 1013 802 l 1045 665 q 996 616 1045 637 l 979 616 q 928 701 928 631 q 911 756 920 709 q 898 795 902 795 l 895 795 q 813 711 813 720 q 892 541 892 577 l 892 532 q 823 463 874 463 l 820 463 q 732 581 764 463 q 621 698 699 641 q 494 736 543 736 q 477 743 494 743 l 465 743 q 373 727 426 734 q 233 633 303 703 q 165 492 191 570 q 106 463 127 463 q 44 525 44 483 l 44 548 q 138 736 44 606 q 324 854 256 839 l 376 870 l 399 870 q 471 880 413 870 q 526 870 511 870 l 553 870 q 728 792 652 844 l 739 792 q 817 870 800 840 l 817 877 q 703 903 743 900 q 637 949 656 918 l 637 975 q 683 1014 652 1014 m 109 414 q 171 365 171 410 q 239 241 208 279 q 360 160 325 160 l 419 140 l 513 140 q 692 245 641 175 q 745 332 731 292 q 771 395 752 355 q 813 411 795 411 l 829 411 q 892 342 882 411 l 892 339 q 791 144 875 252 q 585 20 676 37 q 536 9 585 13 q 497 0 536 1 l 438 0 q 370 13 420 0 q 151 134 237 45 q 44 326 64 229 q 41 352 44 349 q 93 411 56 411 l 109 414 z "},"8":{"ha":1141,"x_min":47,"x_max":1097,"o":"m 259 1023 l 883 1023 q 972 982 972 997 q 1059 901 996 982 q 1084 838 1081 861 q 1095 724 1095 838 l 1095 711 l 1097 694 q 1051 629 1086 629 l 1021 629 q 986 667 1000 629 l 986 768 q 943 865 967 842 q 834 909 892 909 l 327 909 q 240 895 260 909 q 175 830 192 870 q 161 798 161 804 l 161 686 q 115 627 151 627 q 102 621 115 621 l 96 621 q 47 656 72 621 l 47 814 q 123 952 69 901 q 227 1012 172 998 q 259 1023 256 1023 m 340 784 l 812 784 q 867 746 867 777 l 867 732 q 821 692 867 701 l 343 692 q 286 741 286 692 q 340 784 286 778 m 321 627 l 831 627 q 867 589 854 627 l 867 572 q 831 543 867 547 l 332 543 q 289 564 301 543 l 283 583 l 283 586 q 321 627 295 627 m 102 583 q 159 526 159 568 q 161 515 161 526 l 161 407 q 224 309 161 366 q 294 285 262 293 l 747 285 q 791 241 791 272 q 831 163 803 191 l 859 138 l 864 138 l 848 209 l 848 255 q 918 312 848 284 q 978 420 978 359 q 986 464 986 433 l 986 537 q 1035 575 986 571 l 1051 575 q 1095 502 1095 575 l 1095 499 q 1081 350 1095 350 q 986 222 1052 260 q 970 203 970 209 q 1035 73 970 159 q 1038 62 1038 68 l 1038 52 q 994 0 1038 28 l 894 0 q 742 92 793 28 q 693 168 726 99 q 682 171 688 171 l 275 171 q 178 209 194 191 q 58 345 102 244 q 47 382 58 352 l 47 540 q 91 583 47 560 l 102 583 m 332 477 l 647 477 q 693 434 693 463 l 693 426 q 644 382 693 393 q 642 385 642 382 q 601 382 614 382 l 359 382 q 289 418 294 382 q 283 429 286 418 q 332 477 295 477 z "},"9":{"ha":1143,"x_min":47,"x_max":1084,"o":"m 227 990 l 481 990 q 549 936 549 977 l 549 922 q 517 876 549 897 l 224 876 q 164 819 164 863 l 164 700 q 123 651 152 651 l 88 651 q 47 724 47 659 l 47 819 q 72 906 47 854 q 159 974 125 974 q 227 990 159 980 m 655 990 l 907 990 q 1019 955 991 979 q 1076 873 1076 898 q 1084 841 1082 873 l 1084 705 q 1032 648 1084 659 q 975 689 975 648 q 967 713 969 689 l 967 833 q 907 876 967 864 l 628 876 q 585 928 597 876 l 585 933 q 636 985 596 985 q 655 990 636 989 m 104 605 q 159 572 139 599 q 164 556 164 564 l 164 410 q 210 372 187 372 l 506 372 q 547 320 547 342 l 547 317 q 511 266 533 266 q 476 255 511 257 l 227 255 q 167 266 197 255 q 102 301 151 266 q 47 431 47 362 l 47 540 q 96 602 47 585 q 104 605 99 602 m 1016 597 l 1038 597 q 1084 543 1084 589 l 1084 404 q 1046 312 1084 369 q 902 255 981 255 l 842 255 q 750 258 790 255 q 669 255 730 255 l 663 255 q 593 301 593 261 l 593 331 q 633 372 593 357 l 924 372 q 967 415 967 384 l 967 448 q 970 494 967 473 q 967 534 967 505 q 1002 594 980 594 q 1016 597 1007 597 m 1002 168 q 1054 127 1027 168 q 1062 103 1062 117 l 1062 68 q 1002 0 1062 26 l 134 0 q 80 46 111 0 q 69 79 69 67 l 69 92 q 129 168 69 135 l 1002 168 z "},"\u0000":{"ha":0,"x_min":0,"x_max":0,"o":""}," ":{"ha":345,"x_min":0,"x_max":0,"o":""},"!":{"ha":1301,"x_min":61,"x_max":1240,"o":"m 565 1146 l 566 1143 l 566 1093 l 565 1090 q 484 1087 501 1087 l 484 1045 q 541 1048 493 1045 l 542 1045 l 542 993 q 482 986 542 989 l 482 943 q 566 948 508 948 q 565 895 566 941 q 436 876 479 885 l 435 879 l 435 985 q 420 1006 435 990 l 420 1008 q 436 1035 436 1029 l 436 1140 q 450 1145 436 1143 q 565 1146 522 1146 m 614 1146 l 656 1146 q 712 1021 661 1144 l 713 1021 l 713 1143 q 716 1146 714 1146 l 757 1146 q 760 1143 760 1145 l 760 1077 q 761 1031 760 1061 q 776 1013 763 1031 l 761 995 l 761 892 l 760 889 q 713 897 713 894 q 659 1025 659 1023 l 657 1025 l 657 899 q 654 897 657 897 l 612 897 q 610 899 610 897 l 610 999 l 595 1018 l 595 1019 l 610 1038 l 610 1109 q 614 1146 610 1146 m 855 1143 q 936 1127 930 1143 q 949 1077 949 1109 l 949 1042 q 946 1039 949 1039 q 901 1048 901 1043 l 901 1064 q 885 1080 901 1080 l 871 1080 q 865 1069 865 1078 l 865 1029 l 881 1006 l 881 1003 q 867 981 867 987 l 867 944 q 898 930 867 930 q 903 940 901 934 q 901 953 901 947 l 901 962 l 903 964 q 950 953 950 957 l 950 912 q 922 862 950 862 l 918 862 q 823 908 823 875 q 817 950 819 908 l 817 987 q 802 1013 817 993 l 817 1034 l 817 1099 q 855 1143 817 1138 m 393 1142 l 395 1139 l 395 1082 q 347 1076 395 1079 l 347 1019 q 361 996 347 1015 q 345 967 345 972 l 345 857 q 298 842 345 852 l 298 963 q 283 986 283 981 q 299 1013 299 1006 l 299 1069 l 298 1069 l 252 1065 l 252 1132 q 393 1142 252 1137 m 996 1136 q 1038 1135 1001 1136 q 1040 1131 1040 1132 q 1041 998 1040 1082 q 1055 975 1043 998 l 1055 971 q 1041 948 1041 954 l 1041 941 q 1042 823 1041 898 l 1040 821 q 995 840 995 837 l 995 884 q 994 966 995 911 q 979 987 992 966 l 979 989 q 994 1012 994 1007 l 994 1048 q 992 1135 994 1077 q 996 1136 995 1136 m 1103 1128 q 1148 1120 1148 1126 q 1149 1101 1149 1111 l 1149 976 l 1164 941 q 1149 918 1149 925 l 1149 854 q 1221 821 1154 850 l 1223 819 l 1223 738 q 1220 734 1223 734 q 1103 795 1177 762 l 1103 931 q 1087 964 1103 935 q 1102 989 1102 984 l 1102 1126 l 1103 1128 m 172 1127 q 207 1069 207 1120 l 207 1022 q 159 1010 207 1019 l 158 1013 l 158 1042 q 152 1048 158 1044 q 123 1027 123 1048 l 123 1000 q 127 989 123 989 q 171 998 134 989 q 205 943 205 998 l 205 926 q 220 903 205 922 q 205 869 205 873 q 135 774 205 796 q 103 761 111 761 l 100 761 q 75 819 75 761 l 75 870 q 121 889 75 873 l 123 886 l 123 861 q 127 852 124 852 q 158 878 158 858 l 158 902 q 153 913 158 913 q 103 901 111 901 q 75 958 79 901 l 75 979 q 61 1008 75 982 l 61 1009 q 75 1053 75 1034 q 138 1126 75 1126 q 172 1127 158 1127 m 581 847 l 588 847 q 616 821 604 847 l 616 814 q 587 785 616 791 l 556 785 q 515 778 545 781 q 479 764 515 777 q 406 675 427 734 q 400 651 406 669 q 395 606 395 618 l 395 595 q 400 564 395 587 q 429 507 400 545 q 496 471 477 471 q 526 463 496 467 q 551 439 551 458 q 553 430 553 434 l 553 395 q 565 363 553 363 q 595 357 570 359 q 612 328 612 347 q 614 323 614 328 q 600 302 609 307 q 589 298 594 298 l 566 298 q 514 325 545 300 q 492 366 496 349 l 492 400 q 474 413 492 410 q 413 441 458 415 q 345 532 364 477 q 340 555 340 549 l 334 586 l 334 612 q 344 675 340 664 q 377 752 348 705 q 429 802 406 789 q 514 839 468 831 q 524 842 514 841 l 538 842 q 581 847 553 847 m 660 847 l 677 847 l 729 840 l 774 827 q 863 760 819 812 q 892 707 884 733 q 903 675 903 688 q 908 644 907 675 q 913 605 913 644 l 913 589 q 903 536 907 541 q 821 433 882 470 q 758 408 789 416 l 757 401 l 757 382 q 718 313 757 345 q 683 298 689 298 l 656 298 q 634 322 634 305 l 634 332 q 653 355 634 349 q 679 361 658 357 q 698 389 692 368 l 698 443 q 744 467 698 463 q 822 514 809 491 q 846 566 846 541 q 850 576 850 569 l 850 632 q 844 669 844 659 q 836 686 841 669 q 787 751 828 714 q 708 779 743 779 l 696 785 l 657 785 q 630 814 637 785 l 630 820 q 660 847 641 847 m 509 688 l 517 688 q 564 669 539 688 q 582 627 581 644 l 582 618 q 562 574 580 597 q 522 557 541 557 q 514 554 522 554 l 513 554 q 481 564 495 559 q 448 615 458 579 l 448 622 q 468 670 452 649 q 509 688 492 687 m 726 688 l 734 688 q 785 663 756 688 q 799 629 799 635 l 799 616 q 776 574 791 585 q 731 555 759 555 q 690 569 704 559 q 667 618 667 589 q 666 624 666 618 q 679 661 668 647 q 716 686 696 682 q 726 688 716 688 m 624 586 q 646 564 646 582 l 646 519 q 624 496 646 503 q 601 517 601 505 l 601 566 q 624 586 607 586 m 92 490 l 93 490 q 146 436 145 436 l 146 321 q 163 279 146 314 q 146 274 150 274 l 146 157 l 144 157 q 92 211 140 157 l 92 326 l 75 370 l 77 370 q 90 371 85 371 l 92 371 l 92 490 m 1200 462 q 1211 433 1211 462 l 1211 394 q 1158 340 1176 354 l 1156 340 l 1156 357 q 1154 366 1156 361 q 1112 319 1112 339 l 1112 298 q 1115 293 1112 296 q 1184 349 1126 300 q 1197 354 1194 354 l 1201 354 q 1211 326 1211 349 l 1211 311 l 1213 311 q 1227 309 1225 309 l 1227 307 q 1211 257 1211 269 q 1166 163 1211 214 q 1074 97 1096 97 l 1069 97 q 1050 130 1050 97 l 1050 168 q 1112 211 1107 210 l 1112 189 q 1115 186 1112 186 q 1154 220 1132 191 q 1156 237 1156 229 l 1156 245 l 1155 256 l 1151 256 q 1072 203 1090 203 q 1050 237 1050 203 l 1050 250 l 1029 261 q 1050 302 1050 290 q 1138 417 1050 358 q 1200 462 1181 462 m 239 352 l 241 352 q 330 312 260 352 q 401 229 401 283 l 401 188 l 400 184 q 334 214 346 205 l 334 233 q 289 267 334 252 l 288 267 q 285 264 285 267 l 285 220 q 305 184 285 214 l 305 180 q 285 173 286 173 l 285 128 q 328 98 285 113 l 330 98 q 334 102 332 98 l 334 130 q 401 101 400 105 l 401 51 q 370 19 398 19 q 260 71 341 19 q 220 159 220 104 l 220 210 l 201 250 l 201 251 q 220 258 220 255 l 220 313 q 239 352 220 352 m 970 311 l 972 307 l 972 186 q 992 176 976 186 q 972 146 992 175 l 972 32 q 908 4 967 25 l 904 4 q 822 123 825 122 l 822 -19 q 751 -33 822 -26 l 751 81 q 728 101 728 100 q 751 125 736 106 l 751 244 q 823 258 751 247 q 904 143 859 204 l 904 280 q 963 306 907 285 q 970 311 963 307 m 501 251 l 513 251 q 637 233 637 239 q 665 183 665 218 l 665 120 q 689 97 665 119 l 665 74 l 665 20 q 607 -39 665 -39 q 492 -17 538 -39 q 465 39 465 5 l 465 97 l 442 125 l 442 128 q 465 144 460 138 l 465 210 q 501 251 469 251 m 537 173 l 537 43 q 582 28 537 28 q 591 33 588 28 l 591 168 q 552 182 591 182 q 546 183 552 183 q 537 173 537 183 m 68 156 l 70 156 q 372 -52 322 -16 l 372 -54 l 73 -54 l 70 -52 q 68 88 68 45 l 68 156 m 1239 156 l 1239 88 q 1238 -52 1239 45 l 1234 -54 l 936 -54 l 936 -52 q 1239 156 1218 145 m 1054 -69 l 1105 -69 q 1107 -72 1107 -70 l 1107 -85 l 1076 -125 l 1105 -125 q 1107 -128 1107 -126 l 1107 -140 q 1105 -143 1107 -143 l 1054 -143 q 1051 -140 1051 -143 l 1051 -132 q 1084 -87 1051 -125 l 1054 -87 q 1051 -83 1051 -87 l 1051 -72 q 1054 -69 1052 -69 m 75 -71 l 102 -71 q 115 -91 115 -71 l 115 -92 q 111 -95 115 -95 l 100 -95 q 93 -87 94 -87 l 92 -87 l 84 -88 l 84 -100 q 90 -106 90 -106 l 84 -114 l 84 -123 q 87 -125 85 -125 l 96 -125 q 100 -117 97 -117 l 111 -117 q 115 -120 115 -117 l 115 -121 q 100 -143 115 -143 l 80 -143 q 67 -130 67 -141 l 67 -114 q 61 -106 67 -113 l 67 -100 l 67 -83 q 75 -71 67 -76 m 140 -71 l 163 -71 q 175 -79 172 -71 l 175 -101 l 180 -106 l 180 -109 l 175 -114 l 175 -130 q 162 -143 173 -143 l 142 -143 q 129 -134 134 -143 l 129 -114 q 123 -106 129 -113 q 129 -100 123 -106 l 129 -82 q 140 -71 129 -71 m 198 -71 l 211 -71 q 230 -101 213 -71 q 245 -71 242 -71 l 259 -71 q 262 -73 262 -71 l 262 -101 l 266 -106 l 266 -109 l 262 -114 l 262 -140 q 259 -143 262 -143 l 248 -143 q 244 -140 244 -143 l 244 -114 l 243 -114 q 229 -142 231 -142 l 227 -142 l 214 -113 l 212 -113 l 212 -140 q 210 -143 212 -143 l 198 -143 q 195 -140 195 -143 l 195 -114 q 189 -106 195 -113 l 195 -100 l 195 -73 q 198 -71 196 -71 m 285 -71 l 317 -71 q 328 -82 328 -71 l 328 -111 q 312 -120 323 -120 l 299 -120 l 299 -140 q 296 -143 299 -143 l 285 -143 q 282 -140 282 -143 l 282 -114 l 277 -109 l 277 -106 l 282 -101 l 282 -73 q 285 -71 282 -71 m 347 -71 l 358 -71 q 361 -73 361 -71 l 361 -101 l 366 -106 l 361 -113 l 361 -140 q 358 -143 361 -143 l 347 -143 q 344 -140 344 -143 l 344 -114 l 338 -106 l 344 -100 l 344 -73 q 347 -71 345 -71 m 385 -71 l 396 -71 q 399 -73 399 -71 l 399 -100 q 405 -106 405 -106 l 399 -114 l 399 -125 l 422 -125 q 425 -128 425 -126 l 425 -140 q 422 -143 425 -143 l 385 -143 q 382 -140 382 -143 l 382 -113 l 377 -106 l 382 -101 l 382 -73 q 385 -71 382 -71 m 444 -71 l 484 -71 q 487 -73 487 -71 l 487 -83 q 484 -87 487 -87 l 458 -87 l 458 -98 l 475 -98 q 478 -101 478 -98 l 478 -113 q 475 -115 478 -115 l 458 -115 l 458 -125 l 484 -125 q 487 -128 487 -126 l 487 -140 q 484 -143 487 -143 l 444 -143 q 441 -140 441 -143 l 441 -113 l 436 -106 l 441 -101 l 441 -73 q 444 -71 441 -71 m 507 -71 l 538 -71 q 552 -87 552 -71 l 552 -101 l 556 -106 l 552 -113 l 552 -128 q 536 -143 552 -143 l 507 -143 q 504 -140 504 -143 l 504 -114 l 500 -109 l 500 -106 l 504 -101 l 504 -73 q 507 -71 505 -71 m 588 -71 l 612 -71 q 624 -85 624 -71 l 624 -100 q 608 -113 624 -113 l 597 -113 l 597 -121 l 608 -121 q 611 -114 608 -114 l 621 -114 q 624 -117 624 -115 l 624 -140 q 621 -143 624 -143 l 611 -143 q 608 -138 608 -143 l 601 -138 q 581 -125 581 -138 l 581 -113 l 569 -113 q 566 -110 566 -113 l 566 -100 q 569 -97 567 -97 l 581 -97 l 581 -78 q 588 -71 581 -76 m 642 -71 l 653 -71 q 656 -73 656 -71 l 656 -118 q 660 -123 656 -121 l 666 -123 q 669 -120 669 -123 l 669 -73 q 671 -71 669 -71 l 683 -71 q 686 -73 686 -71 l 686 -101 l 690 -106 l 690 -109 l 686 -114 l 686 -127 q 670 -143 686 -129 l 656 -143 q 638 -123 638 -132 l 638 -113 l 634 -106 l 638 -101 l 638 -73 q 642 -71 639 -71 m 709 -71 l 749 -71 q 752 -73 752 -71 l 752 -83 q 749 -87 752 -87 l 724 -87 l 724 -98 l 741 -98 q 744 -101 744 -98 l 744 -113 q 741 -115 744 -115 l 724 -115 l 724 -125 l 749 -125 q 752 -128 752 -126 l 752 -140 q 749 -143 752 -143 l 709 -143 q 706 -140 706 -143 l 706 -114 q 701 -106 701 -108 l 706 -100 l 706 -73 q 709 -71 707 -71 m 780 -71 l 803 -71 q 814 -82 814 -71 l 814 -92 q 812 -95 814 -95 l 800 -95 l 794 -87 l 789 -87 q 785 -90 785 -87 l 785 -100 q 791 -106 791 -106 l 785 -114 l 785 -125 l 797 -125 q 800 -117 797 -117 l 812 -117 q 814 -120 814 -117 l 814 -134 q 802 -143 810 -143 l 781 -143 q 768 -130 768 -141 l 768 -114 l 762 -106 q 768 -100 762 -106 l 768 -82 q 780 -71 768 -71 m 827 -71 l 872 -71 q 875 -73 875 -71 l 875 -83 q 872 -87 875 -87 l 859 -87 l 859 -101 l 863 -106 l 863 -109 l 859 -114 l 859 -140 q 857 -143 859 -143 l 845 -143 q 842 -140 842 -143 l 842 -114 l 838 -109 l 838 -106 l 842 -101 l 842 -87 l 827 -87 q 825 -83 825 -87 l 825 -73 q 827 -71 825 -71 m 901 -71 l 924 -71 q 936 -82 936 -71 l 936 -100 q 941 -106 941 -106 l 936 -114 l 936 -130 q 923 -143 934 -143 l 903 -143 q 890 -134 895 -143 l 890 -114 l 884 -106 l 890 -100 l 890 -82 q 901 -71 890 -71 m 959 -71 l 991 -71 q 1002 -82 1002 -71 l 1002 -111 q 994 -120 1002 -113 q 1004 -142 1004 -140 l 1001 -143 l 986 -143 q 975 -121 983 -143 l 973 -121 l 973 -140 q 970 -143 973 -143 l 959 -143 q 956 -140 956 -143 l 956 -114 l 951 -109 l 951 -106 l 956 -101 l 956 -73 q 959 -71 956 -71 m 1023 -71 l 1034 -71 q 1037 -73 1037 -71 l 1037 -100 l 1042 -106 l 1037 -114 l 1037 -140 q 1034 -143 1037 -143 l 1023 -143 q 1019 -140 1019 -143 l 1019 -113 l 1015 -106 l 1019 -101 l 1019 -73 q 1023 -71 1020 -71 m 1125 -71 l 1165 -71 q 1168 -73 1168 -71 l 1168 -83 q 1165 -87 1168 -87 l 1139 -87 l 1139 -98 l 1156 -98 q 1160 -101 1160 -98 l 1160 -113 q 1156 -115 1160 -115 l 1139 -115 l 1139 -125 l 1165 -125 q 1168 -128 1168 -126 l 1168 -140 q 1165 -143 1168 -143 l 1125 -143 q 1122 -140 1122 -143 l 1122 -114 l 1118 -109 l 1118 -106 l 1122 -101 l 1122 -73 q 1125 -71 1122 -71 m 1188 -71 l 1220 -71 q 1233 -91 1233 -71 l 1233 -101 l 1238 -106 l 1233 -113 l 1233 -125 q 1219 -143 1233 -143 l 1188 -143 q 1185 -140 1185 -143 l 1185 -114 q 1179 -106 1179 -108 q 1185 -100 1185 -100 l 1185 -73 q 1188 -71 1186 -71 m 146 -90 l 146 -125 l 158 -125 l 158 -90 q 155 -87 158 -87 l 149 -87 q 146 -90 146 -87 m 299 -87 l 299 -104 l 311 -104 l 311 -90 q 308 -87 311 -87 l 299 -87 m 522 -90 l 522 -125 l 532 -125 q 534 -123 534 -125 l 534 -91 q 530 -87 534 -89 l 524 -87 q 522 -90 522 -87 m 597 -87 l 597 -97 l 605 -97 q 608 -94 608 -97 l 608 -90 q 605 -87 608 -87 l 597 -87 m 907 -90 l 907 -125 l 918 -125 l 918 -90 q 916 -87 918 -87 l 909 -87 q 907 -90 907 -87 m 973 -87 l 973 -104 l 985 -104 l 985 -90 q 982 -87 985 -87 l 973 -87 m 1203 -87 l 1203 -125 l 1213 -125 q 1216 -123 1216 -125 l 1216 -91 q 1211 -87 1216 -89 l 1203 -87 m 74 -165 l 94 -165 q 97 -168 97 -165 l 97 -238 l 113 -238 l 113 -225 q 107 -218 107 -219 l 107 -216 l 113 -210 l 113 -168 q 116 -165 113 -165 l 136 -165 q 139 -168 139 -165 l 139 -210 l 144 -216 l 144 -218 q 139 -225 139 -224 l 139 -238 l 155 -238 l 155 -168 q 158 -165 155 -165 l 178 -165 q 181 -168 181 -165 l 181 -210 l 186 -216 l 186 -218 q 181 -225 186 -219 l 181 -245 q 156 -269 181 -248 l 138 -269 l 126 -258 l 115 -269 l 96 -269 q 71 -245 71 -247 l 71 -225 l 65 -218 l 65 -216 q 71 -210 71 -210 l 71 -168 q 74 -165 72 -165 m 227 -165 l 253 -165 q 273 -183 273 -165 l 273 -208 l 281 -216 l 281 -218 l 273 -227 l 273 -251 q 248 -269 273 -269 l 233 -269 q 207 -247 207 -269 l 207 -227 l 199 -218 l 199 -216 q 207 -208 207 -208 l 207 -189 q 227 -165 207 -165 m 321 -165 l 347 -165 q 367 -183 367 -165 l 367 -208 l 374 -216 l 374 -218 l 367 -227 l 367 -251 q 341 -269 367 -269 l 327 -269 q 300 -247 300 -269 l 300 -227 q 294 -218 294 -218 l 294 -216 q 300 -208 300 -208 l 300 -184 q 321 -165 300 -165 m 400 -165 l 446 -165 q 465 -191 465 -165 l 465 -208 l 473 -216 l 465 -225 l 465 -243 q 439 -269 465 -269 q 399 -267 431 -269 l 397 -264 l 397 -225 q 390 -216 390 -217 l 397 -208 l 397 -168 q 400 -165 398 -165 m 514 -165 l 541 -165 q 560 -182 560 -166 l 560 -198 q 557 -201 560 -201 l 538 -201 q 534 -189 536 -201 l 522 -189 q 519 -192 519 -189 l 519 -208 q 526 -216 519 -208 l 526 -218 l 519 -227 l 519 -239 q 523 -244 519 -241 l 533 -244 q 537 -229 536 -244 l 557 -229 q 560 -233 560 -230 l 560 -248 q 534 -269 560 -269 l 520 -269 q 494 -247 494 -269 l 494 -225 q 487 -216 487 -217 q 494 -208 494 -208 l 494 -184 q 514 -165 494 -165 m 585 -165 l 605 -165 q 608 -168 608 -165 l 608 -241 q 611 -244 608 -244 l 621 -244 q 624 -241 624 -244 l 624 -168 q 627 -165 625 -165 l 647 -165 q 650 -168 650 -165 l 650 -210 l 656 -216 l 656 -218 l 650 -225 l 650 -243 q 624 -269 650 -269 l 605 -269 q 582 -245 582 -269 l 582 -225 l 576 -218 l 576 -216 l 582 -210 l 582 -168 q 585 -165 583 -165 m 673 -165 l 739 -165 q 743 -168 743 -165 l 743 -186 q 739 -189 743 -189 l 720 -189 l 720 -210 l 726 -218 l 720 -227 l 720 -266 q 716 -269 720 -269 l 698 -269 q 694 -266 694 -269 l 694 -227 q 688 -218 688 -218 l 688 -216 q 694 -208 694 -208 l 694 -189 l 673 -189 q 670 -186 670 -189 l 670 -168 q 673 -165 671 -165 m 757 -165 l 825 -165 q 827 -168 827 -165 l 827 -186 q 825 -189 827 -189 l 803 -189 l 803 -208 l 810 -216 l 810 -218 l 803 -227 l 803 -266 q 800 -269 803 -269 l 781 -269 q 779 -266 779 -269 l 779 -225 q 772 -218 772 -219 l 772 -216 q 779 -210 772 -216 l 779 -189 l 757 -189 q 754 -186 754 -189 l 754 -168 q 757 -165 754 -165 m 850 -165 l 909 -165 q 913 -168 913 -165 l 913 -186 q 909 -189 913 -189 l 872 -189 l 872 -203 l 898 -203 q 901 -206 901 -204 l 901 -225 q 898 -228 901 -228 l 872 -228 l 872 -244 l 909 -244 q 913 -247 913 -244 l 913 -266 q 909 -269 913 -269 l 850 -269 q 848 -266 848 -269 l 848 -225 q 840 -216 840 -217 q 848 -208 848 -208 l 848 -168 q 850 -165 848 -165 m 937 -165 l 981 -165 q 1001 -183 1001 -165 l 1001 -215 q 986 -233 999 -233 l 1004 -267 l 1001 -269 l 978 -269 l 960 -239 l 960 -266 q 958 -269 960 -269 l 937 -269 q 935 -266 935 -269 l 935 -225 q 928 -218 928 -219 l 928 -216 q 935 -210 935 -210 l 935 -168 q 937 -165 935 -165 m 1083 -165 l 1142 -165 q 1145 -168 1145 -165 l 1145 -186 q 1142 -189 1145 -189 l 1105 -189 l 1105 -203 l 1131 -203 q 1133 -206 1133 -204 l 1133 -225 q 1131 -228 1133 -228 l 1105 -228 l 1105 -244 l 1142 -244 q 1145 -247 1145 -244 l 1145 -266 q 1142 -269 1145 -269 l 1083 -269 q 1080 -266 1080 -269 l 1080 -225 q 1073 -216 1073 -217 q 1080 -208 1080 -208 l 1080 -168 q 1083 -165 1080 -165 m 1187 -165 l 1216 -165 q 1234 -191 1234 -165 l 1234 -198 q 1232 -201 1234 -201 l 1211 -201 q 1208 -198 1208 -201 l 1208 -189 l 1193 -189 l 1193 -203 l 1207 -203 q 1236 -234 1236 -203 q 1240 -238 1238 -234 l 1240 -239 q 1230 -261 1234 -245 q 1211 -269 1221 -269 l 1190 -269 q 1166 -243 1166 -269 l 1166 -235 q 1170 -233 1167 -233 l 1190 -233 q 1194 -244 1193 -233 l 1206 -244 q 1208 -241 1208 -244 l 1208 -231 q 1206 -228 1208 -228 l 1187 -228 q 1165 -199 1165 -228 q 1161 -195 1163 -199 l 1161 -193 q 1173 -170 1164 -190 q 1187 -165 1179 -165 m 233 -189 l 231 -196 l 231 -239 q 236 -244 231 -241 l 245 -244 q 249 -241 249 -244 l 249 -192 q 245 -189 249 -189 l 233 -189 m 327 -189 l 325 -196 l 325 -239 q 330 -244 325 -241 l 340 -244 q 342 -241 342 -244 l 342 -192 q 340 -189 342 -189 l 327 -189 m 423 -189 l 423 -244 l 436 -244 q 439 -241 439 -244 l 439 -189 l 423 -189 m 960 -189 l 960 -212 l 973 -212 q 976 -210 976 -212 l 976 -189 l 960 -189 m 1031 -245 l 1044 -245 q 1050 -251 1046 -245 l 1050 -258 q 1040 -269 1050 -269 l 1037 -269 q 1025 -256 1025 -269 q 1031 -245 1027 -245 z "},"\"":{"ha":1178,"x_min":41,"x_max":1128,"o":"m 572 926 l 593 926 q 644 876 618 926 q 650 857 650 866 l 650 332 q 597 267 650 296 l 581 267 q 519 317 519 281 l 519 879 q 572 926 519 913 m 342 730 l 373 730 q 422 662 422 715 q 420 578 420 604 l 420 323 q 361 267 420 279 l 351 267 q 289 345 304 267 l 289 568 q 292 627 289 593 q 289 649 289 631 q 342 730 304 730 m 805 671 q 870 621 848 671 l 870 317 q 811 267 842 267 l 808 267 q 740 330 760 267 l 740 612 q 802 671 740 654 l 805 671 m 1025 646 q 1090 603 1073 646 l 1090 320 q 1031 267 1090 282 l 1025 267 q 960 336 981 267 l 960 574 q 1025 646 977 646 m 115 559 l 153 559 q 199 500 185 559 l 199 326 q 137 267 199 285 l 134 267 q 66 342 82 267 l 66 500 q 115 559 83 559 m 146 189 q 171 183 171 189 l 193 186 l 948 186 q 976 189 959 186 q 1100 155 1070 189 q 1128 90 1128 107 q 1069 9 1103 9 q 1050 0 1066 0 l 119 0 q 53 62 53 24 q 41 90 47 64 q 96 177 41 130 q 146 189 103 177 z "},"#":{"ha":1116,"x_min":47,"x_max":1067,"o":"m 528 1039 q 612 1028 552 1034 l 655 1028 q 926 876 834 985 q 1027 732 999 805 q 1067 602 1049 690 q 1040 553 1053 554 q 1005 548 1038 551 q 956 581 970 548 q 888 741 927 695 q 791 846 888 762 q 650 911 739 883 q 587 925 636 911 l 552 925 q 492 914 535 925 l 465 914 q 395 890 427 903 q 292 825 337 859 q 189 692 224 762 q 159 586 159 621 q 102 540 136 540 q 47 581 47 555 l 47 627 q 99 765 68 692 q 164 852 125 812 q 256 936 200 910 q 414 1012 347 1005 q 457 1023 414 1017 q 463 1028 458 1028 l 476 1028 q 528 1039 500 1028 m 536 697 l 571 697 q 661 659 661 677 q 720 581 720 613 q 734 513 727 581 q 718 442 728 473 q 647 363 718 422 q 552 336 619 347 q 449 374 498 343 q 387 469 387 427 q 378 488 381 470 l 378 545 q 416 632 385 588 q 536 697 462 682 m 492 526 l 492 510 q 536 461 507 461 q 555 453 542 453 l 566 453 q 612 494 609 473 q 623 521 623 515 q 576 578 604 568 q 560 583 568 583 l 557 583 q 492 526 511 583 m 104 496 q 161 431 147 496 q 172 391 161 422 q 240 266 186 344 q 471 122 313 168 l 487 122 q 544 111 505 122 l 568 111 q 652 125 606 122 q 807 201 736 151 q 913 339 907 299 q 956 467 941 378 q 1002 496 978 496 l 1013 496 q 1067 448 1052 496 l 1067 431 q 1057 380 1057 396 l 1040 339 q 807 65 979 165 q 734 33 789 51 q 666 14 701 16 q 571 0 666 7 l 541 0 q 427 16 463 5 q 180 157 311 40 q 88 304 92 267 q 47 412 70 322 l 47 453 q 104 496 47 484 z "},"$":{"ha":1061,"x_min":47,"x_max":1016,"o":"m 205 971 l 221 971 q 273 968 262 971 q 338 971 306 971 l 427 971 q 544 928 489 971 q 655 817 655 819 q 685 770 685 786 l 685 749 q 642 705 685 721 l 617 705 q 463 844 595 705 q 441 854 451 854 l 194 854 q 161 822 172 854 l 161 570 q 297 429 161 564 q 311 401 311 411 l 311 372 q 262 331 296 331 l 251 331 q 159 404 223 331 q 66 505 125 431 q 47 564 56 530 l 47 833 q 88 917 61 893 q 172 966 109 950 q 205 971 172 970 m 275 819 q 335 762 335 798 q 340 749 340 762 l 340 743 q 308 689 340 718 q 273 675 300 683 q 202 746 202 687 q 262 814 211 814 q 275 819 262 819 m 446 724 l 465 724 q 500 681 489 724 l 500 670 q 403 567 495 661 q 335 515 351 515 q 292 553 292 528 l 292 570 q 384 670 292 585 q 446 724 431 724 m 742 711 q 864 608 768 711 q 1005 456 995 484 q 1016 418 1016 425 l 1016 361 q 975 288 1002 310 q 680 8 719 14 q 658 0 666 0 l 601 0 q 414 149 548 0 q 313 255 351 205 q 308 279 313 257 q 354 334 315 334 q 362 336 354 336 l 365 336 q 454 271 400 336 q 595 130 458 271 q 620 117 610 117 l 636 117 q 715 190 652 117 q 899 374 722 190 l 902 388 q 837 467 902 411 l 688 624 q 680 662 688 631 q 723 705 692 705 q 742 711 723 710 m 547 629 l 552 629 q 598 586 598 618 l 598 583 q 481 453 598 557 q 433 418 467 427 q 387 472 387 431 q 457 551 387 488 q 547 629 528 629 m 642 532 l 655 532 q 693 491 681 532 l 693 486 q 547 328 693 459 l 528 323 l 525 323 q 484 361 484 334 l 484 377 q 576 477 484 392 q 642 532 624 532 m 688 393 l 707 393 q 747 350 734 393 l 747 347 q 650 236 747 320 q 623 225 629 225 q 579 274 579 241 q 625 334 579 296 q 688 393 681 393 z "},"%":{"ha":1017,"x_min":54,"x_max":971,"o":"m 621 1126 l 727 1126 q 822 1074 790 1109 q 865 971 865 1006 l 865 933 q 833 806 855 841 q 746 648 807 735 q 667 572 689 572 l 632 572 q 600 613 600 593 l 600 640 q 643 705 600 654 q 675 749 643 709 q 749 922 735 845 l 749 974 q 681 1015 732 1015 q 678 1017 681 1017 q 632 1009 656 1009 l 624 1009 l 543 977 q 404 882 465 933 q 366 863 404 874 l 363 863 q 309 917 309 876 l 309 920 q 361 993 309 959 q 564 1107 471 1079 q 608 1120 572 1113 q 621 1126 608 1125 m 157 1093 l 212 1093 q 282 996 282 1074 q 258 936 277 958 q 187 903 211 903 l 182 903 q 109 944 123 920 q 87 1004 98 960 q 130 1082 102 1056 q 157 1093 153 1093 m 911 892 q 952 852 952 890 q 971 781 959 852 l 971 705 l 958 629 l 936 553 q 884 453 911 500 q 808 363 849 404 q 564 228 693 254 q 507 217 555 220 q 456 209 507 209 l 401 209 q 290 252 290 229 l 290 288 q 320 315 290 309 l 345 315 q 377 304 374 304 q 437 301 406 304 q 510 304 469 304 q 567 320 527 313 q 689 380 645 349 q 787 469 701 380 q 865 632 838 536 q 882 741 876 669 q 876 811 876 767 q 865 844 865 833 l 865 854 q 911 892 865 892 m 258 879 l 271 879 q 320 830 298 879 l 320 814 q 269 735 320 800 q 171 515 186 616 l 171 505 q 222 442 184 442 l 277 442 q 404 491 333 455 q 537 586 460 528 l 556 591 l 559 591 q 616 537 599 591 l 616 526 q 507 423 616 490 q 372 350 444 376 q 260 326 302 326 l 228 326 q 114 372 163 326 q 62 477 62 420 q 54 502 58 477 q 68 591 65 544 l 84 632 q 160 779 111 710 q 258 879 216 869 m 304 165 l 901 165 q 971 90 949 165 l 971 84 q 925 14 955 14 q 871 0 925 6 l 331 0 q 247 43 278 0 q 236 84 247 45 l 236 87 q 279 157 236 119 q 304 165 290 165 z "},"&":{"ha":1364,"x_min":47,"x_max":1313,"o":"m 602 829 l 749 829 q 813 814 783 817 q 855 795 813 808 q 1051 609 992 724 q 1093 488 1093 521 q 1250 413 1163 488 l 1289 355 q 1313 277 1313 282 l 1313 211 q 1271 111 1295 134 q 1160 15 1271 76 q 1102 0 1120 0 l 1048 0 q 972 75 1006 0 l 972 117 q 994 160 981 128 q 1084 193 1029 193 q 1117 244 1117 204 l 1117 250 q 1033 301 1117 301 q 972 371 972 342 l 972 440 q 901 593 939 559 q 786 678 829 667 q 689 702 724 702 l 663 702 l 602 690 q 478 624 573 690 q 394 476 401 536 q 385 380 389 476 l 367 332 q 286 298 338 298 q 235 247 256 298 l 235 241 q 294 190 248 190 q 379 121 359 190 q 388 87 379 113 q 328 9 361 9 q 300 0 328 3 l 258 0 q 132 54 211 0 q 56 169 62 121 q 47 190 51 170 l 47 298 q 90 389 58 336 q 216 476 172 475 q 258 488 216 484 q 321 639 275 555 q 433 753 364 703 q 581 820 531 820 q 602 829 581 825 z "},"'":{"ha":889,"x_min":41,"x_max":836,"o":"m 600 1006 q 662 993 652 993 q 773 917 714 978 q 827 814 804 887 q 836 749 827 798 l 836 594 q 800 540 831 540 l 779 540 q 743 586 743 551 l 743 779 q 705 863 739 808 q 629 909 659 903 q 627 911 629 911 l 258 911 q 174 865 221 906 q 133 768 133 814 l 133 578 q 103 540 133 559 l 71 540 q 41 572 49 540 l 41 784 l 57 844 q 133 947 79 902 q 217 993 168 977 q 274 1006 231 993 l 600 1006 m 434 670 q 532 600 473 670 q 605 505 605 536 l 605 494 q 477 350 605 473 q 450 336 459 336 l 415 336 q 271 486 271 467 l 266 505 q 358 610 266 526 q 434 670 409 670 m 71 472 l 95 472 q 133 418 122 472 l 133 231 q 195 119 133 172 l 255 90 l 616 90 q 673 117 657 106 q 735 198 722 150 l 743 225 l 743 418 q 776 472 743 454 l 798 472 q 836 418 828 472 l 836 236 q 822 171 822 172 q 700 27 787 75 q 597 3 656 3 q 586 0 597 0 l 301 0 q 250 5 255 5 l 231 5 q 90 103 125 43 q 43 220 62 123 q 41 231 41 220 l 41 434 q 71 472 41 452 z "},"(":{"ha":885,"x_min":41,"x_max":830,"o":"m 274 1006 l 589 1006 q 711 971 661 996 q 814 849 793 914 q 830 800 830 810 l 830 570 q 798 540 830 548 l 770 540 q 746 575 746 551 l 746 768 q 686 873 728 846 q 627 911 681 885 l 252 911 q 157 844 186 890 q 130 770 136 820 q 125 743 125 770 l 125 559 q 106 540 125 555 l 71 540 q 41 583 42 540 l 41 779 q 73 882 41 809 q 152 963 102 928 q 255 998 210 998 q 274 1006 256 1004 m 317 643 l 323 643 q 415 581 364 643 q 437 567 429 567 q 510 632 445 567 q 545 643 514 632 l 548 643 q 621 610 604 632 q 637 572 637 578 l 637 532 q 553 431 637 506 q 448 366 503 366 q 434 361 448 361 q 350 396 382 370 q 233 534 233 508 l 233 570 q 298 635 255 635 q 317 643 299 640 m 79 472 l 95 472 q 125 442 125 458 l 125 244 q 190 122 144 158 q 271 90 235 93 l 616 90 q 673 117 659 106 q 735 193 722 154 q 746 236 735 210 l 746 434 q 779 472 746 464 l 792 472 q 830 442 830 462 l 830 203 q 749 62 802 104 q 600 3 679 3 q 583 0 600 0 l 288 0 q 201 16 222 5 q 65 141 106 52 q 41 214 54 159 l 41 426 q 65 469 41 458 l 79 472 z "},")":{"ha":887,"x_min":37,"x_max":836,"o":"m 277 1009 l 594 1009 q 713 971 671 998 q 798 887 788 920 q 827 806 827 838 q 836 773 834 806 l 836 586 q 800 543 826 543 l 773 543 q 743 600 743 557 l 743 724 q 727 833 743 810 q 629 914 697 884 l 244 914 q 141 817 164 878 q 130 784 141 814 l 130 572 q 100 543 130 550 l 73 543 q 43 581 47 543 l 43 586 q 41 692 43 632 l 46 727 l 43 743 q 46 798 46 774 l 46 811 q 90 906 46 833 q 206 990 169 990 q 255 1001 206 998 q 277 1009 257 1009 m 434 722 l 442 722 q 564 646 496 717 q 643 543 643 566 l 643 518 q 591 448 637 482 q 551 439 561 445 q 488 469 507 446 q 442 515 488 473 l 437 515 q 342 445 370 445 l 301 445 q 239 499 267 445 q 233 537 239 511 q 317 651 233 578 q 410 713 371 713 q 434 722 410 720 m 76 475 l 100 475 q 130 431 130 455 l 130 222 q 160 157 142 191 q 252 98 218 98 q 266 92 252 92 l 610 92 q 700 138 673 110 q 741 228 741 187 q 743 277 743 234 l 743 420 q 781 475 751 475 l 803 475 q 836 420 836 456 l 836 228 q 819 160 819 163 l 795 114 q 757 71 761 71 q 643 8 709 30 q 586 3 621 8 l 453 3 q 429 0 444 3 q 401 5 416 5 q 380 0 380 5 l 353 3 l 285 3 q 168 33 239 3 q 76 125 90 90 q 43 231 43 186 q 41 241 41 231 q 37 456 47 446 q 76 475 66 475 m 334 401 l 540 401 q 600 342 600 386 q 548 285 600 304 l 328 285 q 282 317 282 302 l 282 361 q 334 401 282 386 z "},"*":{"ha":882,"x_min":41,"x_max":838,"o":"m 277 1006 l 600 1006 l 667 990 q 787 903 709 984 q 830 792 830 833 q 838 749 836 749 l 836 722 l 836 583 q 800 540 827 540 l 776 540 q 746 567 762 546 l 746 762 q 703 868 743 814 q 627 911 665 897 l 396 911 q 372 914 387 911 q 361 911 367 911 q 326 914 349 911 q 247 911 290 911 q 201 887 247 909 q 136 792 154 856 q 133 738 133 762 l 133 578 q 84 537 123 537 q 41 575 51 537 l 41 781 l 62 860 q 171 971 104 939 q 252 1001 171 982 q 277 1006 270 1006 m 439 773 q 518 735 486 766 q 540 681 540 696 l 540 662 l 537 635 l 540 635 q 562 643 553 643 l 583 643 q 659 591 659 619 q 675 543 665 591 l 675 534 q 646 469 667 488 q 600 442 614 442 l 545 442 q 480 502 516 442 q 469 543 469 541 q 477 567 477 560 l 475 572 l 448 570 l 431 570 l 404 572 l 401 567 l 401 521 q 355 453 401 486 q 298 439 332 439 q 212 494 245 439 q 201 532 201 526 l 201 553 q 247 627 205 591 l 296 643 l 312 643 q 336 635 317 643 l 339 640 l 339 689 q 388 760 339 720 q 439 773 428 773 m 79 472 l 95 472 q 133 418 123 472 l 133 250 q 266 90 133 125 l 616 90 l 673 114 q 738 209 738 171 q 746 233 744 209 l 746 434 q 776 472 746 449 l 798 472 q 838 407 830 472 l 836 374 l 836 233 q 827 203 827 207 l 830 198 q 741 54 815 121 q 643 5 718 32 q 597 0 621 5 l 282 0 q 176 27 222 5 q 60 157 90 75 q 46 203 52 174 q 41 222 41 203 l 41 431 q 79 472 41 457 m 336 399 l 543 399 q 594 358 594 383 l 594 323 q 553 282 594 302 l 331 282 q 277 336 296 282 l 277 345 q 336 399 296 399 z "},"+":{"ha":1118,"x_min":47,"x_max":1070,"o":"m 528 1036 q 552 1034 543 1034 q 587 1036 564 1034 q 755 1001 665 1036 q 937 873 831 979 q 1054 678 1018 791 q 1062 637 1059 678 q 1070 621 1070 635 l 1070 586 q 1021 545 1053 554 l 1008 545 q 956 602 956 564 q 861 789 930 713 q 696 901 773 878 q 560 925 659 916 q 395 890 451 917 q 248 779 323 858 q 159 572 178 692 q 132 545 138 545 l 88 545 q 47 594 47 558 l 47 610 q 121 800 79 732 q 286 960 206 912 q 384 1006 362 1004 q 454 1025 416 1023 q 473 1034 455 1031 l 490 1034 q 528 1036 511 1034 m 544 819 q 601 760 576 819 l 601 719 q 530 659 581 659 q 452 694 471 659 q 444 705 449 694 l 444 768 q 495 819 444 795 l 544 819 m 736 792 q 812 741 792 792 q 815 722 815 737 l 815 694 q 750 629 815 649 l 723 629 q 655 686 682 629 l 655 722 q 709 789 655 768 q 736 792 713 789 m 628 629 q 685 586 656 629 q 696 559 696 565 l 696 540 q 655 477 694 516 q 628 469 637 469 l 590 469 q 536 518 567 469 q 528 545 528 536 l 528 556 q 604 629 549 629 l 628 629 m 99 499 l 115 499 q 164 434 164 482 q 240 274 191 336 q 332 184 247 253 q 492 125 439 125 q 511 117 498 117 l 609 117 q 764 168 702 138 q 842 228 841 228 q 940 382 913 306 q 962 467 954 425 q 1002 499 979 499 l 1035 499 q 1070 458 1070 479 l 1070 420 q 1046 334 1059 374 q 1019 274 1040 330 q 913 138 977 203 q 720 27 814 55 q 652 11 670 11 q 601 0 639 11 l 519 0 q 441 14 485 11 q 400 24 441 20 q 229 122 275 75 q 142 214 172 163 q 61 380 92 277 q 47 429 61 388 l 47 448 q 99 499 47 479 z "},",":{"ha":378,"x_min":0,"x_max":0,"o":""},"-":{"ha":454,"x_min":0,"x_max":0,"o":""},".":{"ha":378,"x_min":0,"x_max":0,"o":""},"/":{"ha":386,"x_min":0,"x_max":0,"o":""},":":{"ha":1130,"x_min":47,"x_max":1070,"o":"m 481 1025 l 487 1025 q 544 974 528 1025 l 544 963 q 484 909 529 912 q 389 876 415 895 q 240 757 336 871 q 178 635 193 696 q 167 591 173 635 l 148 556 q 104 543 132 543 q 53 602 53 543 q 123 787 53 663 q 224 903 151 836 q 297 958 259 943 q 368 990 317 975 q 449 1020 406 1012 q 481 1025 449 1025 m 639 1025 q 796 977 700 1020 q 888 917 854 942 q 1005 779 988 824 q 1067 624 1046 715 l 1067 578 q 1016 534 1067 549 l 1010 534 q 954 605 968 534 q 810 833 918 745 l 742 876 q 620 911 657 911 q 582 966 582 939 q 623 1023 582 1006 l 639 1025 m 522 884 l 590 884 q 674 822 674 854 q 696 776 696 795 q 693 732 693 748 l 693 711 q 631 632 684 671 q 557 610 582 610 q 500 629 500 625 q 430 700 479 629 q 425 754 430 715 q 449 833 430 806 q 522 884 474 861 m 544 575 l 587 575 q 644 510 644 545 q 652 477 651 510 l 652 282 l 650 266 q 652 252 652 261 l 652 231 q 623 165 644 185 q 576 141 611 152 l 544 141 q 487 179 517 141 q 471 233 471 210 l 471 483 q 528 570 471 542 q 544 575 536 575 m 110 491 q 164 431 157 491 q 178 388 168 431 q 340 174 220 260 q 481 117 406 138 q 533 76 514 117 l 533 49 q 479 0 512 0 q 378 27 473 0 q 208 136 248 88 q 94 293 114 227 q 61 380 77 315 l 47 437 l 47 439 q 94 491 62 479 l 110 491 m 1008 491 l 1029 491 q 1070 439 1070 479 l 1067 423 l 1067 399 q 997 236 1034 283 q 959 184 978 207 q 848 81 927 136 q 682 11 767 31 q 636 0 652 0 q 579 52 601 0 l 579 73 q 655 119 600 119 q 726 144 672 127 q 935 358 866 212 q 945 401 942 358 q 956 442 951 401 q 1008 491 974 491 z "},";":{"ha":558,"x_min":41,"x_max":512,"o":"m 153 1097 l 224 1097 q 260 1060 260 1086 q 262 1050 262 1056 q 222 1002 262 1018 l 171 1002 q 136 971 153 1002 l 136 602 q 96 566 125 566 l 87 566 q 50 593 50 574 q 41 652 41 603 l 41 954 q 50 1000 41 966 q 96 1071 54 1031 q 153 1097 120 1086 m 333 1097 l 395 1097 q 474 1057 428 1097 q 510 994 498 1034 l 510 600 q 477 566 510 578 l 456 566 q 421 602 421 574 q 417 659 417 631 l 417 911 q 419 958 417 929 q 388 1002 413 1002 l 335 1002 q 293 1044 293 1015 l 293 1057 q 333 1097 301 1097 m 258 922 l 297 922 q 370 869 344 910 q 379 847 379 851 l 379 790 q 335 730 379 768 q 295 715 309 715 l 262 715 q 195 757 195 734 q 171 819 171 787 q 211 903 174 859 q 258 922 252 922 m 255 652 l 302 652 q 368 606 326 652 q 381 549 380 583 q 353 478 381 500 q 293 445 336 458 l 267 445 q 198 482 234 449 q 171 553 171 524 q 209 631 171 585 q 255 652 227 644 m 102 531 q 136 498 136 518 l 136 137 q 178 95 147 95 l 231 95 q 264 49 254 85 l 264 47 q 213 0 248 0 q 182 2 195 2 l 162 2 q 96 33 96 20 q 54 91 54 68 q 41 151 41 121 q 43 155 41 155 l 41 166 l 41 471 q 81 531 49 531 l 102 531 m 456 531 l 477 531 q 510 500 498 531 l 510 181 q 512 151 510 170 q 510 128 510 150 l 510 104 q 454 26 495 53 q 399 5 437 11 q 372 0 399 0 l 361 0 q 293 42 302 0 l 293 51 q 333 95 302 95 l 379 95 q 417 133 417 104 q 419 144 417 144 l 417 155 l 417 191 q 419 250 417 237 q 417 321 417 284 l 417 431 q 421 445 417 437 l 417 484 q 441 524 429 524 q 456 531 449 531 m 275 387 q 348 363 319 382 q 379 310 379 321 l 379 254 q 330 193 354 193 q 277 175 300 175 l 273 175 q 191 223 213 189 q 171 283 181 231 q 204 358 181 335 q 273 385 237 385 q 275 387 273 387 z "},"<":{"ha":1114,"x_min":41,"x_max":1055,"o":"m 475 1023 q 532 963 532 1004 l 532 952 q 469 906 513 906 q 401 887 466 899 q 339 854 342 854 q 239 768 252 787 l 190 697 q 152 586 161 622 q 100 534 152 547 l 92 534 q 43 575 58 534 l 43 627 q 68 700 54 669 q 163 857 86 760 q 426 1012 292 983 q 475 1023 459 1015 m 624 1017 q 803 960 691 1017 q 1028 705 956 869 q 1047 640 1047 664 q 1055 621 1055 634 l 1055 567 q 1017 534 1037 534 l 998 534 q 952 570 952 536 q 939 602 942 584 l 941 608 q 865 757 912 699 q 751 854 791 840 q 594 914 702 887 q 570 963 582 914 l 570 966 q 608 1015 585 1015 l 624 1017 m 393 597 l 673 597 q 738 556 720 584 q 754 510 746 545 l 754 505 q 722 439 751 473 q 673 418 703 428 l 393 418 q 326 467 345 432 q 320 480 321 467 l 320 534 q 393 597 320 570 m 1004 491 q 1055 450 1055 475 l 1055 393 q 985 225 1034 311 q 947 176 981 224 q 836 76 884 109 q 656 0 755 24 l 618 0 q 567 41 576 0 l 567 65 q 665 119 567 108 q 719 141 669 125 q 833 222 785 176 q 922 358 894 286 q 947 439 929 363 q 1004 491 947 477 m 90 486 q 152 426 152 474 l 182 334 q 271 217 232 250 q 401 133 334 157 q 475 114 438 117 l 510 92 q 521 76 510 87 l 521 43 q 472 0 521 9 l 458 0 q 377 19 435 0 q 255 81 321 38 q 109 233 161 146 q 43 404 43 353 q 41 439 41 427 q 90 486 41 471 z "},"=":{"ha":1136,"x_min":47,"x_max":1093,"o":"m 572 1095 l 644 1095 q 814 971 749 1067 q 882 854 837 936 l 884 854 q 936 940 915 912 q 959 953 956 950 l 1013 953 q 1057 917 1030 953 q 1070 876 1070 885 q 990 718 1055 826 q 912 637 962 637 q 907 635 912 635 q 806 640 852 640 l 703 640 q 642 692 642 663 q 633 723 635 692 q 677 790 633 759 q 706 800 701 800 l 732 800 q 783 798 749 800 q 732 896 783 807 q 670 966 732 909 q 618 986 631 986 l 587 986 q 499 927 543 974 q 427 824 443 829 l 391 824 q 349 873 361 824 l 349 878 q 409 986 349 898 l 440 1023 q 572 1095 494 1075 m 202 800 l 332 800 q 386 762 368 792 l 471 599 q 481 570 481 585 l 481 540 q 416 477 481 506 l 399 477 q 342 506 378 477 q 300 576 307 576 l 298 576 q 236 465 273 549 q 226 429 226 434 l 226 390 q 272 317 245 317 q 319 297 286 306 q 437 289 319 289 q 492 248 492 278 l 494 233 q 437 181 494 181 q 435 178 437 178 q 412 183 430 181 l 396 181 q 345 183 368 183 l 319 183 q 269 196 294 194 q 243 207 269 201 q 138 307 170 245 q 117 372 117 370 l 117 441 q 135 503 129 492 q 189 612 135 517 q 200 637 200 623 l 195 640 l 107 640 q 55 700 55 659 q 47 718 47 713 q 66 764 58 750 q 125 793 88 793 q 202 800 189 800 m 982 623 q 1031 591 1031 614 q 1090 460 1070 539 l 1090 421 q 1093 387 1090 404 q 1080 328 1093 346 q 985 217 1056 258 q 905 189 940 195 q 897 183 905 186 q 752 181 805 181 l 737 181 l 737 173 q 786 75 786 96 l 786 70 q 742 5 767 5 q 729 0 742 0 l 685 0 q 600 96 651 0 q 525 233 526 201 q 585 349 530 269 q 670 463 650 460 l 706 473 l 709 473 q 778 418 778 453 q 786 395 784 418 l 786 390 q 745 307 786 371 q 739 292 739 299 l 739 289 l 752 289 q 912 302 891 289 q 982 393 982 334 q 987 406 985 393 q 949 519 977 473 q 928 568 928 551 q 982 623 940 623 z "},">":{"ha":688,"x_min":0,"x_max":0,"o":""},"?":{"ha":507,"x_min":0,"x_max":0,"o":""},"@":{"ha":1301,"x_min":61,"x_max":1240,"o":"m 565 1146 l 566 1143 l 566 1093 l 565 1090 q 484 1087 501 1087 l 484 1045 q 541 1048 493 1045 l 542 1045 l 542 993 q 482 986 542 989 l 482 943 q 566 948 508 948 q 565 895 566 941 q 436 876 479 885 l 435 879 l 435 985 q 420 1006 435 990 l 420 1008 q 436 1035 436 1029 l 436 1140 q 450 1145 436 1143 q 565 1146 522 1146 m 614 1146 l 656 1146 q 712 1021 661 1144 l 713 1021 l 713 1143 q 716 1146 714 1146 l 757 1146 q 760 1143 760 1145 l 760 1077 q 761 1031 760 1061 q 776 1013 763 1031 l 761 995 l 761 892 l 760 889 q 713 897 713 894 q 659 1025 659 1023 l 657 1025 l 657 899 q 654 897 657 897 l 612 897 q 610 899 610 897 l 610 999 l 595 1018 l 595 1019 l 610 1038 l 610 1109 q 614 1146 610 1146 m 855 1143 q 936 1127 930 1143 q 949 1077 949 1109 l 949 1042 q 946 1039 949 1039 q 901 1048 901 1043 l 901 1064 q 885 1080 901 1080 l 871 1080 q 865 1069 865 1078 l 865 1029 l 881 1006 l 881 1003 q 867 981 867 987 l 867 944 q 898 930 867 930 q 903 940 901 934 q 901 953 901 947 l 901 962 l 903 964 q 950 953 950 957 l 950 912 q 922 862 950 862 l 918 862 q 823 908 823 875 q 817 950 819 908 l 817 987 q 802 1013 817 993 l 817 1034 l 817 1099 q 855 1143 817 1138 m 393 1142 l 395 1139 l 395 1082 q 347 1076 395 1079 l 347 1019 q 361 996 347 1015 q 345 967 345 972 l 345 857 q 298 842 345 852 l 298 963 q 283 986 283 981 q 299 1013 299 1006 l 299 1069 l 298 1069 l 252 1065 l 252 1132 q 393 1142 252 1137 m 996 1136 q 1038 1135 1001 1136 q 1040 1131 1040 1132 q 1041 998 1040 1082 q 1055 975 1043 998 l 1055 971 q 1041 948 1041 954 l 1041 941 q 1042 823 1041 898 l 1040 821 q 995 840 995 837 l 995 884 q 994 966 995 911 q 979 987 992 966 l 979 989 q 994 1012 994 1007 l 994 1048 q 992 1135 994 1077 q 996 1136 995 1136 m 1103 1128 q 1148 1120 1148 1126 q 1149 1101 1149 1111 l 1149 976 l 1164 941 q 1149 918 1149 925 l 1149 854 q 1221 821 1154 850 l 1223 819 l 1223 738 q 1220 734 1223 734 q 1103 795 1177 762 l 1103 931 q 1087 964 1103 935 q 1102 989 1102 984 l 1102 1126 l 1103 1128 m 172 1127 q 207 1069 207 1120 l 207 1022 q 159 1010 207 1019 l 158 1013 l 158 1042 q 152 1048 158 1044 q 123 1027 123 1048 l 123 1000 q 127 989 123 989 q 171 998 134 989 q 205 943 205 998 l 205 926 q 220 903 205 922 q 205 869 205 873 q 135 774 205 796 q 103 761 111 761 l 100 761 q 75 819 75 761 l 75 870 q 121 889 75 873 l 123 886 l 123 861 q 127 852 124 852 q 158 878 158 858 l 158 902 q 153 913 158 913 q 103 901 111 901 q 75 958 79 901 l 75 979 q 61 1008 75 982 l 61 1009 q 75 1053 75 1034 q 138 1126 75 1126 q 172 1127 158 1127 m 581 847 l 588 847 q 616 821 604 847 l 616 814 q 587 785 616 791 l 556 785 q 515 778 545 781 q 479 764 515 777 q 406 675 427 734 q 400 651 406 669 q 395 606 395 618 l 395 595 q 400 564 395 587 q 429 507 400 545 q 496 471 477 471 q 526 463 496 467 q 551 439 551 458 q 553 430 553 434 l 553 395 q 565 363 553 363 q 595 357 570 359 q 612 328 612 347 q 614 323 614 328 q 600 302 609 307 q 589 298 594 298 l 566 298 q 514 325 545 300 q 492 366 496 349 l 492 400 q 474 413 492 410 q 413 441 458 415 q 345 532 364 477 q 340 555 340 549 l 334 586 l 334 612 q 344 675 340 664 q 377 752 348 705 q 429 802 406 789 q 514 839 468 831 q 524 842 514 841 l 538 842 q 581 847 553 847 m 660 847 l 677 847 l 729 840 l 774 827 q 863 760 819 812 q 892 707 884 733 q 903 675 903 688 q 908 644 907 675 q 913 605 913 644 l 913 589 q 903 536 907 541 q 821 433 882 470 q 758 408 789 416 l 757 401 l 757 382 q 718 313 757 345 q 683 298 689 298 l 656 298 q 634 322 634 305 l 634 332 q 653 355 634 349 q 679 361 658 357 q 698 389 692 368 l 698 443 q 744 467 698 463 q 822 514 809 491 q 846 566 846 541 q 850 576 850 569 l 850 632 q 844 669 844 659 q 836 686 841 669 q 787 751 828 714 q 708 779 743 779 l 696 785 l 657 785 q 630 814 637 785 l 630 820 q 660 847 641 847 m 509 688 l 517 688 q 564 669 539 688 q 582 627 581 644 l 582 618 q 562 574 580 597 q 522 557 541 557 q 514 554 522 554 l 513 554 q 481 564 495 559 q 448 615 458 579 l 448 622 q 468 670 452 649 q 509 688 492 687 m 726 688 l 734 688 q 785 663 756 688 q 799 629 799 635 l 799 616 q 776 574 791 585 q 731 555 759 555 q 690 569 704 559 q 667 618 667 589 q 666 624 666 618 q 679 661 668 647 q 716 686 696 682 q 726 688 716 688 m 624 586 q 646 564 646 582 l 646 519 q 624 496 646 503 q 601 517 601 505 l 601 566 q 624 586 607 586 m 92 490 l 93 490 q 146 436 145 436 l 146 321 q 163 279 146 314 q 146 274 150 274 l 146 157 l 144 157 q 92 211 140 157 l 92 326 l 75 370 l 77 370 q 90 371 85 371 l 92 371 l 92 490 m 1200 462 q 1211 433 1211 462 l 1211 394 q 1158 340 1176 354 l 1156 340 l 1156 357 q 1154 366 1156 361 q 1112 319 1112 339 l 1112 298 q 1115 293 1112 296 q 1184 349 1126 300 q 1197 354 1194 354 l 1201 354 q 1211 326 1211 349 l 1211 311 l 1213 311 q 1227 309 1225 309 l 1227 307 q 1211 257 1211 269 q 1166 163 1211 214 q 1074 97 1096 97 l 1069 97 q 1050 130 1050 97 l 1050 168 q 1112 211 1107 210 l 1112 189 q 1115 186 1112 186 q 1154 220 1132 191 q 1156 237 1156 229 l 1156 245 l 1155 256 l 1151 256 q 1072 203 1090 203 q 1050 237 1050 203 l 1050 250 l 1029 261 q 1050 302 1050 290 q 1138 417 1050 358 q 1200 462 1181 462 m 239 352 l 241 352 q 330 312 260 352 q 401 229 401 283 l 401 188 l 400 184 q 334 214 346 205 l 334 233 q 289 267 334 252 l 288 267 q 285 264 285 267 l 285 220 q 305 184 285 214 l 305 180 q 285 173 286 173 l 285 128 q 328 98 285 113 l 330 98 q 334 102 332 98 l 334 130 q 401 101 400 105 l 401 51 q 370 19 398 19 q 260 71 341 19 q 220 159 220 104 l 220 210 l 201 250 l 201 251 q 220 258 220 255 l 220 313 q 239 352 220 352 m 970 311 l 972 307 l 972 186 q 992 176 976 186 q 972 146 992 175 l 972 32 q 908 4 967 25 l 904 4 q 822 123 825 122 l 822 -19 q 751 -33 822 -26 l 751 81 q 728 101 728 100 q 751 125 736 106 l 751 244 q 823 258 751 247 q 904 143 859 204 l 904 280 q 963 306 907 285 q 970 311 963 307 m 501 251 l 513 251 q 637 233 637 239 q 665 183 665 218 l 665 120 q 689 97 665 119 l 665 74 l 665 20 q 607 -39 665 -39 q 492 -17 538 -39 q 465 39 465 5 l 465 97 l 442 125 l 442 128 q 465 144 460 138 l 465 210 q 501 251 469 251 m 537 173 l 537 43 q 582 28 537 28 q 591 33 588 28 l 591 168 q 552 182 591 182 q 546 183 552 183 q 537 173 537 183 m 68 156 l 70 156 q 372 -52 322 -16 l 372 -54 l 73 -54 l 70 -52 q 68 88 68 45 l 68 156 m 1239 156 l 1239 88 q 1238 -52 1239 45 l 1234 -54 l 936 -54 l 936 -52 q 1239 156 1218 145 m 1054 -69 l 1105 -69 q 1107 -72 1107 -70 l 1107 -85 l 1076 -125 l 1105 -125 q 1107 -128 1107 -126 l 1107 -140 q 1105 -143 1107 -143 l 1054 -143 q 1051 -140 1051 -143 l 1051 -132 q 1084 -87 1051 -125 l 1054 -87 q 1051 -83 1051 -87 l 1051 -72 q 1054 -69 1052 -69 m 75 -71 l 102 -71 q 115 -91 115 -71 l 115 -92 q 111 -95 115 -95 l 100 -95 q 93 -87 94 -87 l 92 -87 l 84 -88 l 84 -100 q 90 -106 90 -106 l 84 -114 l 84 -123 q 87 -125 85 -125 l 96 -125 q 100 -117 97 -117 l 111 -117 q 115 -120 115 -117 l 115 -121 q 100 -143 115 -143 l 80 -143 q 67 -130 67 -141 l 67 -114 q 61 -106 67 -113 l 67 -100 l 67 -83 q 75 -71 67 -76 m 140 -71 l 163 -71 q 175 -79 172 -71 l 175 -101 l 180 -106 l 180 -109 l 175 -114 l 175 -130 q 162 -143 173 -143 l 142 -143 q 129 -134 134 -143 l 129 -114 q 123 -106 129 -113 q 129 -100 123 -106 l 129 -82 q 140 -71 129 -71 m 198 -71 l 211 -71 q 230 -101 213 -71 q 245 -71 242 -71 l 259 -71 q 262 -73 262 -71 l 262 -101 l 266 -106 l 266 -109 l 262 -114 l 262 -140 q 259 -143 262 -143 l 248 -143 q 244 -140 244 -143 l 244 -114 l 243 -114 q 229 -142 231 -142 l 227 -142 l 214 -113 l 212 -113 l 212 -140 q 210 -143 212 -143 l 198 -143 q 195 -140 195 -143 l 195 -114 q 189 -106 195 -113 l 195 -100 l 195 -73 q 198 -71 196 -71 m 285 -71 l 317 -71 q 328 -82 328 -71 l 328 -111 q 312 -120 323 -120 l 299 -120 l 299 -140 q 296 -143 299 -143 l 285 -143 q 282 -140 282 -143 l 282 -114 l 277 -109 l 277 -106 l 282 -101 l 282 -73 q 285 -71 282 -71 m 347 -71 l 358 -71 q 361 -73 361 -71 l 361 -101 l 366 -106 l 361 -113 l 361 -140 q 358 -143 361 -143 l 347 -143 q 344 -140 344 -143 l 344 -114 l 338 -106 l 344 -100 l 344 -73 q 347 -71 345 -71 m 385 -71 l 396 -71 q 399 -73 399 -71 l 399 -100 q 405 -106 405 -106 l 399 -114 l 399 -125 l 422 -125 q 425 -128 425 -126 l 425 -140 q 422 -143 425 -143 l 385 -143 q 382 -140 382 -143 l 382 -113 l 377 -106 l 382 -101 l 382 -73 q 385 -71 382 -71 m 444 -71 l 484 -71 q 487 -73 487 -71 l 487 -83 q 484 -87 487 -87 l 458 -87 l 458 -98 l 475 -98 q 478 -101 478 -98 l 478 -113 q 475 -115 478 -115 l 458 -115 l 458 -125 l 484 -125 q 487 -128 487 -126 l 487 -140 q 484 -143 487 -143 l 444 -143 q 441 -140 441 -143 l 441 -113 l 436 -106 l 441 -101 l 441 -73 q 444 -71 441 -71 m 507 -71 l 538 -71 q 552 -87 552 -71 l 552 -101 l 556 -106 l 552 -113 l 552 -128 q 536 -143 552 -143 l 507 -143 q 504 -140 504 -143 l 504 -114 l 500 -109 l 500 -106 l 504 -101 l 504 -73 q 507 -71 505 -71 m 588 -71 l 612 -71 q 624 -85 624 -71 l 624 -100 q 608 -113 624 -113 l 597 -113 l 597 -121 l 608 -121 q 611 -114 608 -114 l 621 -114 q 624 -117 624 -115 l 624 -140 q 621 -143 624 -143 l 611 -143 q 608 -138 608 -143 l 601 -138 q 581 -125 581 -138 l 581 -113 l 569 -113 q 566 -110 566 -113 l 566 -100 q 569 -97 567 -97 l 581 -97 l 581 -78 q 588 -71 581 -76 m 642 -71 l 653 -71 q 656 -73 656 -71 l 656 -118 q 660 -123 656 -121 l 666 -123 q 669 -120 669 -123 l 669 -73 q 671 -71 669 -71 l 683 -71 q 686 -73 686 -71 l 686 -101 l 690 -106 l 690 -109 l 686 -114 l 686 -127 q 670 -143 686 -129 l 656 -143 q 638 -123 638 -132 l 638 -113 l 634 -106 l 638 -101 l 638 -73 q 642 -71 639 -71 m 709 -71 l 749 -71 q 752 -73 752 -71 l 752 -83 q 749 -87 752 -87 l 724 -87 l 724 -98 l 741 -98 q 744 -101 744 -98 l 744 -113 q 741 -115 744 -115 l 724 -115 l 724 -125 l 749 -125 q 752 -128 752 -126 l 752 -140 q 749 -143 752 -143 l 709 -143 q 706 -140 706 -143 l 706 -114 q 701 -106 701 -108 l 706 -100 l 706 -73 q 709 -71 707 -71 m 780 -71 l 803 -71 q 814 -82 814 -71 l 814 -92 q 812 -95 814 -95 l 800 -95 l 794 -87 l 789 -87 q 785 -90 785 -87 l 785 -100 q 791 -106 791 -106 l 785 -114 l 785 -125 l 797 -125 q 800 -117 797 -117 l 812 -117 q 814 -120 814 -117 l 814 -134 q 802 -143 810 -143 l 781 -143 q 768 -130 768 -141 l 768 -114 l 762 -106 q 768 -100 762 -106 l 768 -82 q 780 -71 768 -71 m 827 -71 l 872 -71 q 875 -73 875 -71 l 875 -83 q 872 -87 875 -87 l 859 -87 l 859 -101 l 863 -106 l 863 -109 l 859 -114 l 859 -140 q 857 -143 859 -143 l 845 -143 q 842 -140 842 -143 l 842 -114 l 838 -109 l 838 -106 l 842 -101 l 842 -87 l 827 -87 q 825 -83 825 -87 l 825 -73 q 827 -71 825 -71 m 901 -71 l 924 -71 q 936 -82 936 -71 l 936 -100 q 941 -106 941 -106 l 936 -114 l 936 -130 q 923 -143 934 -143 l 903 -143 q 890 -134 895 -143 l 890 -114 l 884 -106 l 890 -100 l 890 -82 q 901 -71 890 -71 m 959 -71 l 991 -71 q 1002 -82 1002 -71 l 1002 -111 q 994 -120 1002 -113 q 1004 -142 1004 -140 l 1001 -143 l 986 -143 q 975 -121 983 -143 l 973 -121 l 973 -140 q 970 -143 973 -143 l 959 -143 q 956 -140 956 -143 l 956 -114 l 951 -109 l 951 -106 l 956 -101 l 956 -73 q 959 -71 956 -71 m 1023 -71 l 1034 -71 q 1037 -73 1037 -71 l 1037 -100 l 1042 -106 l 1037 -114 l 1037 -140 q 1034 -143 1037 -143 l 1023 -143 q 1019 -140 1019 -143 l 1019 -113 l 1015 -106 l 1019 -101 l 1019 -73 q 1023 -71 1020 -71 m 1125 -71 l 1165 -71 q 1168 -73 1168 -71 l 1168 -83 q 1165 -87 1168 -87 l 1139 -87 l 1139 -98 l 1156 -98 q 1160 -101 1160 -98 l 1160 -113 q 1156 -115 1160 -115 l 1139 -115 l 1139 -125 l 1165 -125 q 1168 -128 1168 -126 l 1168 -140 q 1165 -143 1168 -143 l 1125 -143 q 1122 -140 1122 -143 l 1122 -114 l 1118 -109 l 1118 -106 l 1122 -101 l 1122 -73 q 1125 -71 1122 -71 m 1188 -71 l 1220 -71 q 1233 -91 1233 -71 l 1233 -101 l 1238 -106 l 1233 -113 l 1233 -125 q 1219 -143 1233 -143 l 1188 -143 q 1185 -140 1185 -143 l 1185 -114 q 1179 -106 1179 -108 q 1185 -100 1185 -100 l 1185 -73 q 1188 -71 1186 -71 m 146 -90 l 146 -125 l 158 -125 l 158 -90 q 155 -87 158 -87 l 149 -87 q 146 -90 146 -87 m 299 -87 l 299 -104 l 311 -104 l 311 -90 q 308 -87 311 -87 l 299 -87 m 522 -90 l 522 -125 l 532 -125 q 534 -123 534 -125 l 534 -91 q 530 -87 534 -89 l 524 -87 q 522 -90 522 -87 m 597 -87 l 597 -97 l 605 -97 q 608 -94 608 -97 l 608 -90 q 605 -87 608 -87 l 597 -87 m 907 -90 l 907 -125 l 918 -125 l 918 -90 q 916 -87 918 -87 l 909 -87 q 907 -90 907 -87 m 973 -87 l 973 -104 l 985 -104 l 985 -90 q 982 -87 985 -87 l 973 -87 m 1203 -87 l 1203 -125 l 1213 -125 q 1216 -123 1216 -125 l 1216 -91 q 1211 -87 1216 -89 l 1203 -87 m 74 -165 l 94 -165 q 97 -168 97 -165 l 97 -238 l 113 -238 l 113 -225 q 107 -218 107 -219 l 107 -216 l 113 -210 l 113 -168 q 116 -165 113 -165 l 136 -165 q 139 -168 139 -165 l 139 -210 l 144 -216 l 144 -218 q 139 -225 139 -224 l 139 -238 l 155 -238 l 155 -168 q 158 -165 155 -165 l 178 -165 q 181 -168 181 -165 l 181 -210 l 186 -216 l 186 -218 q 181 -225 186 -219 l 181 -245 q 156 -269 181 -248 l 138 -269 l 126 -258 l 115 -269 l 96 -269 q 71 -245 71 -247 l 71 -225 l 65 -218 l 65 -216 q 71 -210 71 -210 l 71 -168 q 74 -165 72 -165 m 227 -165 l 253 -165 q 273 -183 273 -165 l 273 -208 l 281 -216 l 281 -218 l 273 -227 l 273 -251 q 248 -269 273 -269 l 233 -269 q 207 -247 207 -269 l 207 -227 l 199 -218 l 199 -216 q 207 -208 207 -208 l 207 -189 q 227 -165 207 -165 m 321 -165 l 347 -165 q 367 -183 367 -165 l 367 -208 l 374 -216 l 374 -218 l 367 -227 l 367 -251 q 341 -269 367 -269 l 327 -269 q 300 -247 300 -269 l 300 -227 q 294 -218 294 -218 l 294 -216 q 300 -208 300 -208 l 300 -184 q 321 -165 300 -165 m 400 -165 l 446 -165 q 465 -191 465 -165 l 465 -208 l 473 -216 l 465 -225 l 465 -243 q 439 -269 465 -269 q 399 -267 431 -269 l 397 -264 l 397 -225 q 390 -216 390 -217 l 397 -208 l 397 -168 q 400 -165 398 -165 m 514 -165 l 541 -165 q 560 -182 560 -166 l 560 -198 q 557 -201 560 -201 l 538 -201 q 534 -189 536 -201 l 522 -189 q 519 -192 519 -189 l 519 -208 q 526 -216 519 -208 l 526 -218 l 519 -227 l 519 -239 q 523 -244 519 -241 l 533 -244 q 537 -229 536 -244 l 557 -229 q 560 -233 560 -230 l 560 -248 q 534 -269 560 -269 l 520 -269 q 494 -247 494 -269 l 494 -225 q 487 -216 487 -217 q 494 -208 494 -208 l 494 -184 q 514 -165 494 -165 m 585 -165 l 605 -165 q 608 -168 608 -165 l 608 -241 q 611 -244 608 -244 l 621 -244 q 624 -241 624 -244 l 624 -168 q 627 -165 625 -165 l 647 -165 q 650 -168 650 -165 l 650 -210 l 656 -216 l 656 -218 l 650 -225 l 650 -243 q 624 -269 650 -269 l 605 -269 q 582 -245 582 -269 l 582 -225 l 576 -218 l 576 -216 l 582 -210 l 582 -168 q 585 -165 583 -165 m 673 -165 l 739 -165 q 743 -168 743 -165 l 743 -186 q 739 -189 743 -189 l 720 -189 l 720 -210 l 726 -218 l 720 -227 l 720 -266 q 716 -269 720 -269 l 698 -269 q 694 -266 694 -269 l 694 -227 q 688 -218 688 -218 l 688 -216 q 694 -208 694 -208 l 694 -189 l 673 -189 q 670 -186 670 -189 l 670 -168 q 673 -165 671 -165 m 757 -165 l 825 -165 q 827 -168 827 -165 l 827 -186 q 825 -189 827 -189 l 803 -189 l 803 -208 l 810 -216 l 810 -218 l 803 -227 l 803 -266 q 800 -269 803 -269 l 781 -269 q 779 -266 779 -269 l 779 -225 q 772 -218 772 -219 l 772 -216 q 779 -210 772 -216 l 779 -189 l 757 -189 q 754 -186 754 -189 l 754 -168 q 757 -165 754 -165 m 850 -165 l 909 -165 q 913 -168 913 -165 l 913 -186 q 909 -189 913 -189 l 872 -189 l 872 -203 l 898 -203 q 901 -206 901 -204 l 901 -225 q 898 -228 901 -228 l 872 -228 l 872 -244 l 909 -244 q 913 -247 913 -244 l 913 -266 q 909 -269 913 -269 l 850 -269 q 848 -266 848 -269 l 848 -225 q 840 -216 840 -217 q 848 -208 848 -208 l 848 -168 q 850 -165 848 -165 m 937 -165 l 981 -165 q 1001 -183 1001 -165 l 1001 -215 q 986 -233 999 -233 l 1004 -267 l 1001 -269 l 978 -269 l 960 -239 l 960 -266 q 958 -269 960 -269 l 937 -269 q 935 -266 935 -269 l 935 -225 q 928 -218 928 -219 l 928 -216 q 935 -210 935 -210 l 935 -168 q 937 -165 935 -165 m 1083 -165 l 1142 -165 q 1145 -168 1145 -165 l 1145 -186 q 1142 -189 1145 -189 l 1105 -189 l 1105 -203 l 1131 -203 q 1133 -206 1133 -204 l 1133 -225 q 1131 -228 1133 -228 l 1105 -228 l 1105 -244 l 1142 -244 q 1145 -247 1145 -244 l 1145 -266 q 1142 -269 1145 -269 l 1083 -269 q 1080 -266 1080 -269 l 1080 -225 q 1073 -216 1073 -217 q 1080 -208 1080 -208 l 1080 -168 q 1083 -165 1080 -165 m 1187 -165 l 1216 -165 q 1234 -191 1234 -165 l 1234 -198 q 1232 -201 1234 -201 l 1211 -201 q 1208 -198 1208 -201 l 1208 -189 l 1193 -189 l 1193 -203 l 1207 -203 q 1236 -234 1236 -203 q 1240 -238 1238 -234 l 1240 -239 q 1230 -261 1234 -245 q 1211 -269 1221 -269 l 1190 -269 q 1166 -243 1166 -269 l 1166 -235 q 1170 -233 1167 -233 l 1190 -233 q 1194 -244 1193 -233 l 1206 -244 q 1208 -241 1208 -244 l 1208 -231 q 1206 -228 1208 -228 l 1187 -228 q 1165 -199 1165 -228 q 1161 -195 1163 -199 l 1161 -193 q 1173 -170 1164 -190 q 1187 -165 1179 -165 m 233 -189 l 231 -196 l 231 -239 q 236 -244 231 -241 l 245 -244 q 249 -241 249 -244 l 249 -192 q 245 -189 249 -189 l 233 -189 m 327 -189 l 325 -196 l 325 -239 q 330 -244 325 -241 l 340 -244 q 342 -241 342 -244 l 342 -192 q 340 -189 342 -189 l 327 -189 m 423 -189 l 423 -244 l 436 -244 q 439 -241 439 -244 l 439 -189 l 423 -189 m 960 -189 l 960 -212 l 973 -212 q 976 -210 976 -212 l 976 -189 l 960 -189 m 1031 -245 l 1044 -245 q 1050 -251 1046 -245 l 1050 -258 q 1040 -269 1050 -269 l 1037 -269 q 1025 -256 1025 -269 q 1031 -245 1027 -245 z "},"A":{"ha":1131,"x_min":45,"x_max":1068,"o":"m 640 1007 q 721 983 688 996 q 919 863 816 956 q 1036 690 981 804 q 1063 587 1063 606 q 1068 578 1065 587 q 1033 524 1059 541 q 1017 519 1024 519 l 995 519 q 946 584 962 519 q 900 703 932 645 q 808 809 871 751 q 642 885 721 871 q 602 899 640 888 q 580 934 580 920 l 580 958 q 626 1004 580 985 l 640 1007 m 479 1004 q 528 964 528 990 q 534 950 534 964 l 534 942 q 479 893 523 893 q 385 861 468 893 q 295 806 356 848 q 243 747 279 799 q 157 573 172 657 q 105 519 143 519 q 56 554 56 531 q 45 584 51 555 q 62 657 62 654 q 165 831 109 770 q 192 869 178 837 q 252 912 222 888 q 295 942 258 912 l 368 977 q 479 1004 433 996 m 401 766 q 504 690 478 766 l 504 663 q 471 597 504 640 q 640 427 471 589 q 659 410 646 414 q 724 443 701 443 l 740 443 q 819 394 778 443 l 832 342 q 794 272 821 296 q 694 220 763 242 l 621 220 q 501 291 551 235 q 292 532 292 482 q 281 557 281 549 l 281 633 q 401 766 326 766 m 102 475 q 165 386 152 475 q 211 286 185 322 q 303 174 222 254 q 390 123 308 174 q 428 112 395 123 q 488 98 460 98 q 536 44 536 81 l 536 31 q 498 -16 524 -16 l 450 -16 q 363 9 368 9 l 287 50 q 151 169 224 83 q 100 245 100 235 q 54 367 69 296 q 45 394 45 380 l 45 427 q 102 475 45 468 m 1011 475 q 1060 440 1060 465 q 1068 413 1068 436 q 1055 353 1057 383 q 976 191 1028 271 q 813 47 848 47 q 677 -7 725 -7 q 659 -16 671 -16 l 631 -16 q 580 41 591 -16 l 580 44 q 640 101 580 81 q 721 128 705 112 q 805 177 754 139 q 862 237 862 230 q 930 345 898 269 q 946 405 943 374 q 957 448 954 405 q 1011 475 979 475 z "},"B":{"ha":1024,"x_min":75,"x_max":926,"o":"m 340 1055 l 685 1055 l 750 1039 q 888 925 840 1006 q 926 806 926 854 l 926 600 q 872 548 907 548 l 864 548 q 810 613 810 562 l 810 819 q 793 860 802 832 q 701 933 767 912 q 685 939 692 939 l 316 939 q 216 879 250 924 q 191 838 216 876 q 189 817 189 828 l 189 605 q 156 556 189 579 l 113 556 q 75 586 98 556 l 75 838 q 126 952 96 918 q 248 1039 203 1030 q 340 1055 260 1044 m 319 841 l 682 841 q 726 779 726 808 q 734 768 728 779 l 734 762 q 685 686 723 714 q 647 675 647 677 q 538 678 578 678 l 351 678 q 281 713 309 678 q 267 749 267 744 l 267 773 q 316 838 290 838 q 319 841 316 841 m 335 553 q 392 499 370 553 l 392 488 q 338 437 379 437 q 275 499 275 437 q 327 553 275 536 l 335 553 m 495 553 l 506 553 q 552 515 531 553 l 552 469 q 495 437 533 437 l 492 437 q 438 494 455 437 l 438 496 q 495 553 454 553 m 661 553 l 666 553 q 723 496 703 553 q 669 437 709 437 l 658 437 q 609 477 622 437 l 609 513 q 661 553 609 541 m 121 510 l 145 510 q 189 456 175 496 l 189 252 q 262 133 189 181 q 302 117 264 128 l 699 117 q 772 165 757 140 q 810 239 785 165 l 810 453 q 853 510 810 488 l 872 510 q 926 464 905 510 l 926 236 q 883 117 916 177 q 821 54 842 62 q 696 0 791 22 l 302 0 q 213 27 253 11 q 126 106 130 81 q 75 212 98 129 l 75 469 q 121 510 75 495 m 316 361 l 351 361 q 392 312 378 361 l 392 296 q 343 247 392 275 l 332 247 q 283 282 283 260 q 278 288 278 282 l 278 323 q 316 361 278 346 m 481 361 l 511 361 q 552 331 528 361 l 552 293 q 500 247 552 262 l 490 247 q 438 304 438 271 l 438 307 q 481 361 452 361 m 647 361 l 680 361 q 723 307 709 361 l 723 304 q 671 247 723 272 l 663 247 q 609 288 634 247 l 609 331 q 647 361 632 361 z "},"C":{"ha":1134,"x_min":47,"x_max":1081,"o":"m 538 1001 l 590 1001 q 666 930 666 975 q 677 909 677 921 l 677 486 l 680 486 q 780 543 686 486 q 804 551 800 551 l 818 551 q 861 502 861 534 q 867 488 867 502 q 810 426 867 460 q 582 288 591 288 l 557 288 q 346 415 534 292 q 273 486 273 450 l 273 505 q 330 553 273 535 q 457 480 339 553 l 460 486 l 460 505 q 457 529 460 514 l 460 534 q 457 540 460 540 q 460 581 460 567 l 460 860 q 492 971 460 950 q 538 1001 510 988 m 1027 426 q 1081 385 1081 410 l 1081 127 q 1013 30 1060 57 q 959 5 1003 16 q 940 0 959 0 l 642 0 q 593 46 593 16 l 593 65 q 661 117 604 117 l 929 117 q 967 160 967 127 q 970 190 970 160 l 970 255 q 967 361 970 294 q 1010 418 981 418 q 1027 426 1010 421 m 104 423 l 110 423 q 161 385 139 423 q 164 374 164 380 l 164 163 q 199 117 164 141 l 484 117 q 549 62 538 117 l 549 54 q 498 0 541 0 l 194 0 q 83 68 118 19 q 53 136 62 97 q 47 155 48 136 l 47 363 q 104 423 47 404 z "},"D":{"ha":1127,"x_min":47,"x_max":1081,"o":"m 726 993 q 850 966 783 993 q 964 895 936 927 q 1059 754 1048 810 q 1076 697 1069 730 q 1081 684 1081 697 l 1081 559 l 1065 499 q 978 361 1041 427 q 791 258 913 288 q 712 247 779 258 l 707 247 q 652 258 663 258 l 633 258 q 612 263 631 258 l 609 263 q 563 203 609 224 l 395 203 q 387 195 391 203 l 387 165 q 351 138 381 138 l 327 138 q 311 92 323 138 q 275 76 293 76 l 270 76 q 229 117 243 76 l 229 190 q 262 222 229 212 l 335 222 l 349 225 q 340 258 349 231 q 365 309 347 294 q 406 320 385 320 l 490 320 q 495 326 495 320 l 495 363 q 552 412 495 398 q 625 382 557 412 q 712 361 649 371 q 793 374 772 374 q 869 418 868 413 q 970 624 970 498 q 964 686 964 653 q 948 727 959 688 q 897 803 934 758 q 766 871 842 854 q 753 876 766 876 l 674 876 q 601 852 633 865 q 473 708 510 803 q 463 673 473 703 l 463 654 q 460 621 463 635 q 463 589 463 607 l 463 570 q 484 502 463 567 l 484 486 q 416 412 484 452 q 254 288 325 340 q 183 231 183 236 q 161 206 161 224 l 161 122 l 208 98 q 227 57 227 65 l 227 52 q 175 0 214 0 l 94 0 q 47 43 47 9 l 47 266 q 118 328 81 306 q 319 480 173 372 q 357 515 356 509 l 357 526 q 346 572 346 556 l 346 675 q 408 833 366 768 q 495 917 457 897 q 593 971 522 947 q 682 993 611 980 l 726 993 m 788 787 l 796 787 q 856 754 844 774 q 878 705 868 739 l 878 692 q 812 618 852 618 q 791 610 811 610 q 707 694 707 627 q 747 773 707 754 q 788 787 747 779 z "},"E":{"ha":1269,"x_min":54,"x_max":1194,"o":"m 458 982 l 532 982 q 608 922 568 982 q 616 884 608 909 q 575 806 606 833 q 469 781 535 781 l 453 781 q 307 681 340 739 q 266 610 281 656 q 255 567 255 580 q 231 464 245 464 q 168 426 200 426 q 155 420 168 420 q 84 448 99 429 q 54 491 75 457 l 54 583 q 71 654 64 614 q 146 800 98 739 q 252 901 189 861 q 439 979 309 951 q 458 982 443 982 m 711 982 l 792 982 q 863 968 840 968 l 949 930 q 1080 830 998 908 q 1120 776 1090 810 q 1185 602 1185 666 q 1194 578 1192 602 l 1194 491 q 1109 426 1161 426 q 1096 420 1109 420 q 1025 453 1046 430 q 1001 510 1001 480 q 993 572 993 510 l 993 578 q 947 673 970 654 q 841 762 903 737 q 730 787 804 781 q 670 808 687 793 q 637 871 637 840 q 632 887 632 871 q 678 968 640 936 q 711 982 696 982 m 618 735 l 624 735 q 760 694 718 724 q 876 567 838 655 q 898 486 898 519 q 906 448 904 486 q 892 374 895 412 q 757 209 847 252 q 708 187 734 194 q 670 179 708 182 q 624 171 670 171 l 613 171 q 540 182 553 182 q 372 328 422 231 q 342 445 342 403 l 342 472 q 369 572 342 494 q 445 670 404 634 q 594 727 524 727 q 618 735 594 733 m 434 450 q 553 277 434 332 q 586 266 583 266 l 662 266 q 732 298 722 284 l 732 301 q 635 391 684 354 q 618 431 618 416 q 648 483 618 469 q 670 491 665 491 l 678 491 q 738 453 697 491 q 800 399 741 453 l 803 399 q 811 415 811 401 l 811 486 q 754 591 789 560 q 670 635 701 635 q 656 640 670 640 l 583 640 l 510 608 q 442 510 452 551 q 434 450 436 510 m 233 385 q 288 358 288 382 q 298 328 298 347 l 298 152 q 345 117 325 117 l 556 117 q 597 71 597 102 l 597 52 q 510 0 597 0 l 363 0 q 353 3 357 0 l 347 0 q 263 24 329 0 q 182 155 182 92 l 182 334 q 233 385 191 385 m 998 385 l 1001 385 q 1066 334 1057 385 l 1066 160 q 1047 98 1053 104 q 928 8 992 8 q 873 0 928 2 q 852 3 867 0 l 833 0 q 800 3 819 0 q 724 0 764 0 l 713 0 q 640 52 657 0 l 640 65 q 689 117 650 117 l 898 117 q 949 155 924 117 l 949 328 q 998 385 956 385 z "},"F":{"ha":1358,"x_min":54,"x_max":1291,"o":"m 637 1034 l 716 1034 q 860 1001 778 1023 q 1017 906 924 977 q 1153 711 1134 784 q 1185 605 1162 701 q 1194 548 1185 576 l 1194 488 q 1142 429 1194 446 l 1131 429 q 1080 472 1080 444 l 1080 551 q 1069 608 1069 584 q 1017 722 1041 693 q 854 876 981 804 q 787 901 810 897 q 730 911 787 908 q 705 920 730 918 l 651 920 l 575 906 l 526 890 q 372 781 452 863 l 350 751 q 358 749 355 749 q 437 760 358 755 q 472 768 442 766 l 496 768 q 548 711 538 768 q 505 654 548 669 q 491 651 500 651 l 461 651 q 399 640 430 640 l 377 640 q 301 629 349 629 l 290 629 q 263 621 266 621 l 236 621 q 179 675 209 621 q 95 803 163 692 q 54 871 56 850 l 54 906 q 106 944 54 932 q 157 911 157 932 q 220 817 208 840 q 244 800 235 800 q 326 898 244 814 q 437 974 411 968 q 562 1020 503 1010 q 637 1034 604 1025 m 228 586 q 266 543 266 575 q 277 445 277 492 l 277 437 q 290 385 288 410 q 388 231 338 275 q 521 141 434 181 l 597 117 l 613 117 q 673 111 650 117 q 735 117 702 117 l 749 117 q 800 130 787 130 q 860 155 809 137 q 968 244 919 188 l 963 247 l 930 247 q 887 236 890 236 l 830 236 q 789 296 798 236 q 857 353 789 343 l 884 353 q 917 361 910 361 l 949 361 q 1004 372 962 361 l 1034 372 q 1085 382 1046 372 l 1096 382 q 1204 258 1135 382 q 1291 114 1291 136 q 1245 62 1276 62 q 1232 54 1245 56 q 1166 106 1192 68 q 1099 209 1166 111 l 1096 209 q 1025 130 1093 209 q 974 92 1021 130 q 827 22 888 33 q 776 8 809 11 q 751 0 776 2 l 602 0 q 534 14 539 14 l 467 41 q 282 176 387 67 q 187 336 239 220 q 168 412 168 398 q 157 518 159 412 q 195 586 157 568 l 228 586 z "},"G":{"ha":1548,"x_min":81,"x_max":1478,"o":"m 1416 1150 q 1468 1107 1452 1134 q 1478 1082 1478 1090 l 1478 1042 q 1392 936 1478 1013 q 1291 844 1307 844 q 1251 833 1263 833 q 1177 879 1198 847 q 1161 928 1161 920 q 1204 1006 1177 993 q 1362 1150 1345 1150 l 1416 1150 m 833 1120 q 949 1074 880 1120 q 1166 852 1166 857 q 1202 773 1202 795 l 1202 711 q 1161 629 1194 665 q 911 385 923 385 q 890 380 901 380 q 838 423 838 380 q 833 437 833 423 q 925 551 833 471 q 1055 684 925 555 q 1085 724 1085 713 l 1085 765 q 998 860 1069 799 q 860 996 998 868 q 838 1004 844 1004 l 817 1004 q 713 917 791 1004 q 537 749 545 749 q 521 746 535 749 q 467 792 467 763 l 467 819 q 586 949 467 840 q 722 1085 586 958 q 833 1120 782 1120 m 836 928 q 892 884 859 928 q 1017 751 1016 768 l 1017 741 q 928 637 1017 715 q 754 461 928 633 q 700 426 727 426 q 624 483 673 426 q 510 608 514 589 l 510 616 q 618 738 510 638 q 814 928 802 928 l 836 928 m 391 743 l 404 743 q 453 703 453 727 l 453 667 q 382 589 453 652 q 203 401 203 410 q 198 391 203 397 l 198 361 q 293 250 198 336 q 431 119 416 119 q 458 114 431 114 q 524 152 492 114 q 741 361 726 361 q 762 369 754 369 l 765 369 q 819 315 819 356 l 819 298 q 708 176 819 277 q 616 84 707 172 q 534 16 562 16 q 499 0 534 11 l 420 0 q 296 84 357 14 q 100 290 110 262 q 81 355 81 337 l 81 391 q 125 494 81 427 q 363 730 128 494 q 391 743 382 737 m 475 543 q 518 496 503 543 l 518 467 q 450 415 502 415 q 391 475 411 415 l 391 486 q 437 543 391 518 l 475 543 m 562 437 l 567 437 q 621 401 621 423 q 635 366 635 374 q 591 309 620 323 l 551 309 q 505 355 524 309 l 499 366 q 540 426 517 426 q 562 437 540 433 m 336 434 l 345 434 q 404 377 404 416 q 410 369 407 377 q 374 312 399 326 q 342 301 350 301 q 288 339 288 319 q 277 366 277 357 l 277 369 q 336 434 296 434 m 437 317 l 472 317 q 518 271 496 317 l 518 244 q 469 193 518 218 l 442 193 q 391 241 414 193 l 391 263 q 437 317 391 303 z "},"H":{"ha":1200,"x_min":68,"x_max":1131,"o":"m 1065 1063 l 1067 1063 q 1131 1016 1111 1063 l 1131 978 q 1088 926 1131 949 q 715 737 719 743 q 708 709 711 734 q 710 671 710 684 l 710 640 q 684 545 710 557 q 674 540 680 545 l 646 540 q 610 585 610 548 q 608 602 610 599 q 610 623 610 614 l 610 673 q 603 680 610 677 l 601 680 l 536 652 l 505 652 q 451 711 477 652 l 451 735 q 574 830 451 783 q 601 854 601 844 q 534 930 578 909 q 505 942 511 942 l 273 942 q 205 901 228 928 q 168 828 191 901 l 168 581 q 125 540 168 553 l 111 540 q 71 578 86 540 q 68 590 68 582 l 68 842 q 144 985 90 939 q 220 1027 195 1027 q 265 1042 220 1033 q 282 1044 265 1044 l 486 1044 q 577 1023 545 1036 q 691 899 656 981 q 701 895 697 895 q 1036 1061 1030 1061 q 1065 1063 1048 1063 m 265 764 l 351 764 q 394 732 394 764 l 394 713 q 360 685 394 693 q 325 688 336 688 l 296 688 q 263 685 283 688 q 218 713 218 690 l 218 732 q 265 764 222 761 m 256 631 l 425 631 q 460 602 460 621 q 467 587 467 600 q 427 549 452 549 l 251 549 q 218 573 237 549 l 218 600 q 256 631 218 621 m 115 509 l 127 509 q 168 476 148 509 l 168 219 q 220 131 195 131 q 306 98 234 111 l 479 98 q 563 133 536 109 q 606 214 600 170 q 610 226 610 214 l 610 469 q 658 507 610 498 q 705 459 705 498 q 710 442 710 459 l 710 229 l 696 155 q 644 71 676 109 q 491 3 572 3 q 481 0 491 0 l 317 0 q 146 60 205 0 q 68 202 96 90 l 68 464 q 115 509 79 509 m 244 492 q 292 490 276 490 l 534 490 q 563 452 558 490 q 525 416 550 416 l 260 416 q 218 442 218 416 l 218 473 q 244 492 231 492 m 249 359 l 527 359 q 563 319 563 347 q 503 278 563 284 l 301 278 q 218 304 227 278 l 218 333 q 249 359 218 351 z "},"I":{"ha":1158,"x_min":47,"x_max":1086,"o":"m 460 1023 l 498 1023 q 547 966 547 1004 q 514 917 547 940 q 463 903 507 910 q 427 895 463 899 l 332 844 q 210 697 237 760 q 180 624 195 674 q 167 553 173 604 q 161 534 162 553 l 161 486 q 175 412 172 457 q 218 312 197 344 q 392 149 277 209 q 479 119 470 119 q 549 62 549 111 q 506 0 549 17 l 481 0 q 183 165 286 46 q 66 385 82 288 q 53 475 56 405 q 47 494 48 475 l 47 529 q 56 567 56 564 l 56 602 q 69 665 69 652 q 172 844 125 806 q 281 947 172 863 q 454 1017 385 1008 q 460 1023 455 1023 m 669 1023 l 753 998 q 907 903 831 966 q 1000 795 989 829 q 1067 651 1031 760 q 1078 610 1067 637 l 1078 572 q 1086 513 1078 564 l 1086 496 q 1078 450 1078 461 l 1078 420 q 1065 363 1067 395 q 967 187 1028 251 q 853 84 906 111 q 761 33 834 62 q 644 0 667 0 q 590 49 590 12 l 590 68 q 658 119 590 111 q 864 241 792 158 q 943 366 922 307 q 967 477 967 420 q 975 518 971 477 q 964 564 975 528 l 964 591 q 823 825 926 741 q 707 892 766 871 l 625 914 q 590 966 593 939 l 590 968 q 633 1023 590 991 l 669 1023 m 427 724 q 481 681 481 706 q 590 472 486 677 l 593 472 q 636 540 607 488 q 682 575 663 575 l 899 575 q 948 526 925 575 l 951 515 q 883 458 932 458 l 723 458 q 644 331 691 413 q 587 296 617 296 q 511 377 541 296 q 427 543 485 422 l 422 543 q 338 458 372 460 l 259 458 q 191 502 200 458 q 186 515 186 502 l 186 518 q 232 575 186 550 l 289 575 q 368 678 311 575 l 392 711 q 427 724 396 711 z "},"J":{"ha":1231,"x_min":54,"x_max":1150,"o":"m 564 1055 l 621 1055 q 741 1009 673 1044 q 811 949 811 972 q 814 930 814 939 q 770 876 814 893 l 746 876 q 640 930 713 889 q 594 941 608 941 l 589 941 q 502 906 550 941 q 358 751 502 897 q 217 600 313 696 q 168 483 172 534 l 168 469 q 241 326 168 397 q 374 255 292 290 q 404 214 404 231 l 404 190 q 361 149 390 149 q 353 146 358 149 q 198 214 320 146 l 165 241 q 111 304 136 261 q 65 393 100 304 q 54 450 65 409 l 54 496 q 95 621 66 566 q 220 768 110 660 q 396 958 270 827 q 534 1044 470 1044 q 564 1055 557 1055 m 898 917 q 1085 817 991 878 q 1142 724 1142 766 q 1150 705 1150 718 l 1150 703 q 1118 605 1141 629 q 1096 581 1114 605 l 1096 578 q 1126 532 1096 570 q 1150 461 1141 508 l 1150 458 q 1112 361 1139 393 l 822 54 q 724 5 772 15 q 705 0 724 0 l 632 0 q 467 73 595 0 q 426 125 426 94 l 426 136 q 480 190 426 176 q 632 117 490 190 q 670 114 653 117 q 779 174 734 114 q 868 269 814 205 q 1025 431 923 328 l 1034 456 q 1015 488 1028 477 q 825 298 1007 488 q 692 236 790 256 l 640 236 q 586 250 612 247 q 458 342 458 307 l 458 358 q 505 404 467 404 l 521 407 q 618 361 538 407 q 646 353 643 353 l 689 353 q 768 399 720 356 q 914 551 768 410 q 1034 686 952 600 q 1036 694 1034 689 q 871 803 1036 727 q 833 857 833 838 l 833 865 q 882 917 833 891 l 898 917 m 241 553 l 266 553 q 423 464 411 473 q 437 439 437 450 l 437 415 q 380 363 437 378 q 203 461 246 425 q 193 488 193 484 l 193 513 q 241 553 216 553 z "},"K":{"ha":1331,"x_min":61,"x_max":1257,"o":"m 1019 1150 l 1046 1150 q 1078 1072 1078 1150 l 1076 1061 q 1078 1050 1076 1059 q 1051 990 1078 990 q 1035 982 1048 982 l 1032 982 q 989 1028 989 996 l 989 1112 q 1019 1150 993 1150 m 872 1128 l 875 1128 q 956 1063 905 1128 q 962 1047 956 1056 q 913 998 954 998 q 840 1061 886 998 q 831 1082 831 1078 l 831 1090 q 872 1128 831 1117 m 1181 1128 l 1203 1128 q 1233 1093 1233 1110 l 1233 1074 q 1168 1006 1233 1055 l 1157 1006 q 1116 1053 1116 1021 q 1171 1123 1116 1083 q 1181 1128 1175 1123 m 1005 968 l 1067 968 q 1095 939 1095 961 l 1095 917 q 1038 884 1095 884 q 989 871 1038 880 q 821 751 949 857 q 764 708 769 721 q 869 513 842 614 l 869 499 q 821 448 861 448 l 807 445 q 750 510 762 445 q 601 684 703 637 q 500 716 528 716 l 438 716 q 381 705 422 716 q 256 632 300 677 q 170 472 183 553 q 107 442 149 442 q 61 491 61 466 l 61 513 l 77 562 q 118 643 81 583 q 351 817 189 760 q 414 830 363 817 l 522 830 q 652 787 607 808 l 682 768 l 688 768 l 799 846 q 964 958 888 925 q 1005 968 972 958 m 1141 968 l 1225 968 q 1257 928 1254 968 l 1257 925 q 1208 879 1257 888 q 1119 914 1119 879 q 1116 928 1116 919 q 1141 968 1116 957 m 1040 863 q 1078 817 1078 848 q 1059 708 1078 708 q 1043 697 1059 706 l 1035 697 q 989 741 989 707 l 989 817 q 1040 863 989 854 m 1146 841 l 1171 841 q 1233 787 1192 841 l 1233 754 q 1192 724 1233 728 q 1119 781 1156 724 q 1116 803 1116 796 q 1146 841 1121 841 m 113 404 l 123 404 q 180 323 180 385 q 194 290 184 323 q 294 171 208 251 q 433 122 380 122 q 452 117 433 117 l 479 117 l 555 133 q 685 214 633 160 q 761 369 747 290 q 815 401 781 395 q 867 366 844 395 l 869 353 l 869 336 q 829 220 869 301 q 750 119 808 177 q 623 38 682 54 q 547 11 595 23 l 525 11 l 457 0 l 411 11 l 381 11 q 243 71 268 44 q 161 136 233 71 q 102 222 102 213 q 61 328 85 243 l 61 358 q 113 404 61 393 z "},"L":{"ha":1206,"x_min":61,"x_max":1138,"o":"m 532 1095 q 583 1046 583 1080 q 588 1033 588 1046 q 555 977 583 1004 q 299 844 478 941 l 191 785 l 186 777 l 186 399 q 158 345 175 345 q 130 332 141 332 l 123 332 q 66 389 66 342 q 61 407 62 389 l 61 808 q 158 905 61 871 q 519 1095 427 1053 l 532 1095 m 692 1082 l 711 1082 q 1046 903 928 969 q 1133 836 1133 867 q 1138 806 1133 818 q 1133 770 1133 786 l 1133 386 q 1089 342 1133 366 l 1072 340 q 1015 391 1039 340 l 1015 777 q 923 831 1015 787 q 667 966 858 868 q 642 1002 642 991 l 642 1033 q 692 1082 642 1065 m 598 882 l 601 882 q 659 829 659 864 l 659 810 q 603 762 642 762 q 547 790 557 762 q 542 806 542 799 l 542 836 q 572 872 542 853 q 598 882 593 882 m 916 663 l 938 663 q 982 627 968 663 l 982 583 q 933 545 970 560 l 926 545 q 871 583 871 555 q 864 593 869 583 l 864 611 q 916 663 878 663 m 301 650 l 309 650 q 357 609 349 633 l 357 570 q 301 527 357 540 q 250 560 250 540 q 240 581 240 569 l 240 588 q 289 644 251 644 q 301 650 289 649 m 458 563 q 509 527 494 563 l 509 481 q 455 442 492 456 q 399 484 399 460 q 391 501 393 484 l 391 511 q 458 563 401 563 m 826 511 l 833 511 q 887 450 878 511 q 854 401 879 401 q 833 391 854 395 l 821 391 q 764 458 764 407 q 826 511 783 511 m 296 478 l 304 478 q 357 440 331 478 l 357 399 q 299 358 357 368 q 240 404 256 358 l 240 427 q 276 471 240 452 q 296 478 289 478 m 455 397 q 506 366 482 391 l 509 353 l 509 317 q 468 276 509 297 l 455 274 q 404 304 404 285 q 391 332 391 321 l 391 335 q 439 391 405 391 q 455 397 439 397 m 718 358 l 736 358 q 790 304 770 358 l 790 294 q 759 245 784 265 q 744 240 751 240 l 715 240 q 672 279 686 240 l 672 319 q 718 358 696 358 m 1005 340 l 1013 340 q 1072 276 1057 340 l 1072 271 q 1030 220 1055 231 q 836 117 926 170 q 724 59 831 117 q 603 0 631 7 l 593 0 q 360 120 555 16 q 184 212 192 212 q 145 253 145 234 q 138 274 141 253 q 197 332 153 332 q 207 335 198 332 q 570 146 227 332 q 598 136 591 136 q 724 197 611 136 l 826 251 q 1005 340 988 340 z "},"M":{"ha":824,"x_min":54,"x_max":762,"o":"m 358 1004 l 458 1004 q 556 974 527 991 q 654 909 607 954 q 743 781 728 836 q 762 716 758 756 q 708 662 751 662 l 700 662 q 637 741 658 662 q 543 854 618 790 q 458 887 498 876 l 445 887 q 410 890 423 887 q 372 887 393 887 l 353 887 q 239 822 271 863 q 174 724 186 779 q 111 662 151 662 q 54 716 54 673 l 54 732 q 127 876 68 792 q 258 971 213 964 q 328 996 291 996 q 358 1004 328 1004 m 100 618 l 127 618 q 176 548 157 618 q 285 423 208 469 q 369 393 320 405 l 445 393 q 553 437 501 407 q 627 521 614 492 q 646 575 646 555 q 694 618 668 618 l 719 618 q 760 567 760 605 q 689 410 760 500 q 548 307 608 320 q 469 282 515 291 q 448 258 448 275 q 450 233 448 248 q 448 222 448 229 q 486 201 448 201 l 578 201 q 597 182 591 195 l 597 138 q 578 119 597 134 l 486 119 q 450 106 450 119 q 448 22 450 93 q 407 0 422 0 q 363 46 363 15 l 363 111 q 342 119 362 119 l 244 119 q 214 157 218 119 l 214 163 q 244 201 218 201 l 342 201 q 363 209 362 201 l 363 271 q 274 301 363 279 l 198 342 q 100 448 132 389 q 54 548 92 450 l 54 572 q 100 618 64 616 z "},"N":{"ha":917,"x_min":47,"x_max":850,"o":"m 365 1102 q 429 1048 429 1102 q 378 998 429 998 q 365 993 378 993 l 309 993 q 202 955 225 993 q 161 884 161 922 q 154 861 156 884 l 154 670 q 106 630 154 643 l 103 630 q 47 688 61 630 l 47 859 q 88 990 58 942 q 233 1097 149 1071 q 332 1099 295 1099 l 342 1099 q 365 1102 351 1099 m 548 1099 q 665 1097 594 1099 q 705 1082 677 1090 q 819 975 787 1036 q 845 909 832 949 l 845 888 q 850 848 850 852 l 850 699 q 812 637 846 637 q 797 630 809 630 l 794 630 q 746 678 746 639 q 743 716 743 685 l 743 815 q 741 856 743 830 l 743 861 q 685 970 727 941 q 611 996 666 986 l 581 993 l 543 993 q 479 1016 479 1000 q 467 1036 467 1022 l 467 1061 q 525 1099 475 1099 l 548 1099 m 309 897 q 459 894 408 894 l 570 894 l 586 897 q 631 853 616 897 q 596 810 620 810 l 294 810 q 258 853 271 810 q 301 894 271 894 q 309 897 304 894 m 299 749 l 591 749 q 629 709 623 749 q 599 670 623 670 l 291 670 q 258 711 269 670 q 299 749 270 749 m 296 607 l 408 607 q 446 569 432 607 l 446 566 q 400 521 446 530 l 309 521 q 263 551 263 529 q 258 564 259 551 q 296 607 271 607 m 789 600 l 799 600 q 850 513 850 600 l 850 368 q 827 259 845 295 q 746 160 820 228 q 708 140 740 160 q 647 119 694 132 l 637 119 l 634 106 l 634 38 q 566 -20 634 3 l 560 -20 q 487 31 523 -20 l 487 231 q 484 307 487 256 q 436 401 444 347 l 436 406 q 474 490 446 459 q 563 523 511 523 q 647 488 609 523 q 677 424 677 454 q 682 412 682 424 l 682 393 q 649 320 673 349 q 634 297 634 311 l 634 236 q 644 229 634 229 q 723 287 677 239 q 743 511 743 313 l 741 536 q 789 600 750 600 m 101 594 q 154 553 154 581 l 154 358 q 190 274 166 298 q 289 226 232 226 l 365 226 q 426 170 426 216 q 380 119 417 119 l 253 119 q 152 165 186 133 q 65 279 85 215 q 52 338 59 279 q 47 355 48 338 l 47 536 q 91 589 58 589 q 101 594 91 592 m 525 416 l 525 396 q 548 368 525 382 l 566 368 q 596 399 586 368 l 596 409 q 566 439 596 429 l 555 439 q 525 416 542 439 z "},"O":{"ha":1137,"x_min":41,"x_max":1079,"o":"m 193 1005 l 214 1005 q 269 941 260 1005 q 220 878 269 909 q 172 810 186 859 l 172 771 q 226 692 172 738 q 277 647 248 692 l 277 610 q 229 565 277 580 l 205 565 q 83 653 123 591 q 41 765 55 696 l 41 781 q 77 914 41 851 l 123 968 q 193 1005 165 997 m 347 1005 l 359 1005 q 478 917 398 1005 q 505 844 505 859 q 517 795 517 802 l 517 787 q 475 656 505 701 q 345 565 401 565 q 293 616 293 587 l 293 650 q 345 701 293 673 q 384 765 369 716 q 387 768 387 765 l 387 795 q 345 871 380 837 q 293 926 293 899 l 293 954 q 347 1005 293 994 m 909 941 q 982 902 958 930 q 997 850 997 874 l 997 838 q 930 738 997 792 q 682 498 700 500 q 663 492 671 492 l 624 492 q 554 571 554 513 q 557 580 554 574 l 554 595 q 596 665 554 635 q 873 932 854 932 q 909 941 882 932 m 493 513 q 569 440 569 490 q 575 419 575 440 l 575 407 q 493 300 556 353 q 259 73 272 73 q 223 64 250 73 l 211 64 q 138 119 138 86 q 125 146 125 132 l 125 179 q 271 340 130 207 q 460 513 433 511 l 493 513 m 785 444 q 840 395 840 425 l 840 358 q 781 304 840 331 q 742 224 742 270 l 739 224 q 764 149 745 173 q 833 91 833 98 q 840 76 840 91 l 840 45 q 781 0 823 0 q 672 58 730 0 q 621 149 637 96 q 614 173 614 160 l 614 264 q 696 398 638 356 q 785 444 744 442 m 912 444 q 1015 382 949 442 q 1070 286 1070 318 q 1079 267 1079 282 l 1079 176 q 1031 73 1065 106 q 912 0 975 0 q 854 45 870 0 l 854 76 q 909 131 854 99 q 951 231 951 157 q 867 331 951 286 q 854 358 854 347 l 854 398 q 912 444 854 426 z "},"P":{"ha":1086,"x_min":47,"x_max":1020,"o":"m 508 1074 l 532 1074 q 607 1033 582 1061 q 639 975 629 1011 l 639 927 q 592 850 639 896 q 547 831 574 839 l 488 831 q 424 869 457 836 q 394 949 394 909 q 456 1057 394 1016 q 508 1074 473 1065 m 454 781 q 493 758 477 781 l 495 747 l 495 719 q 450 690 482 690 q 446 688 450 688 q 441 690 441 688 l 415 688 q 355 690 399 688 q 273 665 312 690 q 241 596 241 629 q 224 463 241 463 q 149 420 204 432 q 140 411 145 420 l 140 385 q 187 368 147 380 q 239 305 239 336 q 277 237 239 275 q 345 211 307 216 l 686 211 q 755 241 740 222 q 787 299 785 270 q 792 310 792 299 l 792 591 q 764 654 782 636 q 688 688 729 688 q 684 690 688 690 q 629 688 679 690 q 532 710 532 688 q 521 734 524 710 q 566 779 526 779 l 671 779 q 680 781 676 779 q 725 777 691 777 l 732 777 q 762 766 740 770 q 859 675 825 737 q 876 617 876 646 q 884 576 884 586 l 884 428 l 886 428 q 943 465 908 465 l 975 465 q 1020 424 1020 454 l 1020 409 q 985 372 1020 383 l 925 372 q 886 404 905 374 l 884 404 l 884 389 q 882 383 884 383 l 884 372 l 884 325 q 857 224 876 255 q 736 127 825 161 q 723 121 723 127 l 723 39 q 688 2 723 17 q 680 0 685 0 l 673 0 q 633 43 633 15 l 633 108 q 626 121 633 119 l 446 121 q 431 92 431 121 l 431 50 q 400 7 428 7 q 387 0 398 0 l 385 0 q 342 45 346 0 l 342 92 q 323 123 342 123 q 218 165 272 128 q 155 271 155 231 q 121 292 144 292 q 95 288 106 288 l 88 288 q 47 334 47 302 l 47 473 q 73 514 47 494 l 114 514 q 130 508 122 508 q 149 519 149 513 l 149 609 q 192 712 150 648 q 288 772 251 768 q 295 777 288 774 q 400 779 361 779 l 424 779 q 454 781 436 779 m 521 652 l 534 650 l 629 650 q 675 583 675 637 q 613 523 675 531 q 570 525 585 525 l 402 525 q 366 559 373 538 l 361 574 l 361 600 q 396 644 379 644 q 409 650 398 650 l 510 650 q 521 652 517 650 m 312 523 q 353 486 353 511 q 357 475 357 486 q 319 428 345 428 q 304 424 319 424 q 258 473 258 441 q 301 523 258 506 l 312 523 z "},"Q":{"ha":1168,"x_min":47,"x_max":1092,"o":"m 646 1040 l 692 1040 q 772 1003 728 1036 q 870 896 870 918 l 870 873 q 826 835 855 835 q 817 832 826 832 q 741 890 798 832 q 682 935 703 935 l 658 935 q 582 869 617 921 l 528 820 q 452 745 506 791 q 367 661 413 697 q 311 603 367 650 q 284 576 311 600 q 211 503 284 569 q 172 464 209 492 q 150 417 150 428 q 245 300 150 389 l 255 273 l 255 261 q 201 215 239 215 q 69 337 172 215 q 50 395 58 359 q 47 403 47 395 l 47 429 q 77 510 55 479 q 330 769 77 516 q 574 1008 567 1008 q 646 1040 600 1028 m 701 847 q 745 788 745 819 l 745 759 q 640 637 745 737 q 353 351 357 351 q 311 339 326 339 q 243 391 270 339 q 238 405 238 399 l 238 427 q 367 576 238 456 q 648 847 631 847 l 701 847 m 933 825 q 1031 747 962 825 q 1090 637 1069 720 q 1092 617 1090 620 q 1048 515 1078 548 q 555 27 559 27 q 496 5 520 5 q 467 0 477 0 q 377 24 410 5 q 267 139 269 127 l 267 178 q 313 210 283 210 q 365 183 349 203 q 404 144 365 178 q 455 105 436 105 q 465 100 455 100 q 536 146 500 106 q 977 593 976 588 q 987 620 987 616 l 987 627 q 887 745 987 654 q 882 754 887 748 l 882 791 q 933 825 906 825 z "},"R":{"ha":976,"x_min":54,"x_max":909,"o":"m 681 990 q 762 947 736 979 q 789 884 779 929 q 703 754 789 827 l 656 705 q 865 477 817 609 q 806 415 850 415 l 795 415 q 713 502 759 415 q 562 608 618 595 l 559 608 q 279 334 284 334 q 239 320 249 320 l 206 320 q 133 372 151 336 q 119 410 119 405 l 119 445 q 165 518 126 480 q 621 968 616 968 q 681 990 634 980 m 857 404 q 909 296 909 404 q 906 217 906 265 q 849 103 890 163 q 681 0 800 39 l 100 0 q 54 49 54 15 l 54 65 q 119 125 54 107 l 138 122 l 629 122 q 640 119 635 122 q 716 149 679 127 q 781 231 737 149 l 792 263 l 792 271 l 781 350 q 827 404 781 376 l 857 404 m 111 288 l 350 288 q 404 255 385 288 l 404 201 q 320 165 386 165 l 315 163 q 244 165 269 165 l 157 165 q 119 163 142 165 q 54 220 54 180 l 54 236 q 111 288 71 288 z "},"S":{"ha":989,"x_min":47,"x_max":936,"o":"m 579 1040 q 635 1030 628 1033 q 709 974 682 1015 q 736 898 727 949 l 736 878 q 694 791 716 809 q 587 747 659 747 q 577 745 587 745 q 479 788 529 745 q 440 861 453 822 l 440 922 q 528 1027 465 996 q 579 1040 547 1035 m 275 1037 q 365 1013 335 1037 q 428 910 414 974 l 428 878 q 394 795 422 836 q 279 745 345 745 q 133 869 169 745 l 133 918 q 201 1015 150 981 q 275 1037 233 1037 m 306 718 q 370 715 342 715 q 411 671 411 694 l 411 656 q 367 612 403 612 l 267 612 l 218 593 q 160 525 179 575 q 150 493 150 499 l 150 222 q 182 151 154 191 q 257 110 224 110 q 277 102 259 102 l 370 102 q 411 54 397 102 q 362 0 411 21 l 277 0 l 214 12 q 162 34 187 21 q 62 156 88 83 q 52 195 59 156 q 47 208 48 195 l 47 510 l 67 576 q 162 678 106 652 q 214 703 174 692 q 306 718 214 708 m 499 718 q 562 715 540 715 l 579 715 q 635 705 603 708 q 665 693 635 701 q 782 576 746 653 q 799 515 794 542 l 804 515 q 846 576 825 530 q 887 593 871 593 q 936 544 916 593 l 936 539 q 878 437 930 494 q 789 393 808 393 l 736 393 q 699 439 710 393 l 699 505 q 670 562 684 543 q 585 610 650 594 q 577 612 585 612 l 499 612 q 446 654 459 612 q 443 664 443 663 q 477 708 454 708 q 499 718 477 710 m 738 325 l 782 325 q 887 266 860 305 q 936 176 918 248 q 887 125 920 125 l 880 125 q 833 168 833 138 l 809 200 l 802 200 q 792 163 794 200 q 719 56 767 101 q 589 3 654 11 q 579 0 589 0 l 494 0 q 446 32 455 9 q 440 46 440 40 l 440 58 q 477 102 440 89 l 572 102 q 655 139 633 115 q 692 203 692 176 q 699 212 694 203 l 699 278 q 738 325 709 325 z "},"T":{"ha":1172,"x_min":61,"x_max":1095,"o":"m 528 1034 l 628 1034 q 704 1020 666 1023 l 761 1001 q 902 890 902 949 q 840 833 879 833 q 764 876 834 833 q 709 898 757 876 q 652 911 680 909 q 639 917 652 916 l 625 917 l 623 903 l 623 860 q 576 822 623 834 q 538 876 538 833 q 528 917 536 917 l 525 917 l 446 898 q 327 836 434 894 q 316 833 322 833 l 313 833 q 262 876 262 848 l 262 909 q 381 996 262 939 q 479 1023 460 1023 q 528 1034 491 1023 m 199 841 l 216 841 q 262 781 262 820 q 229 713 262 762 q 183 564 183 629 l 189 562 l 227 562 q 273 515 273 551 l 273 513 q 224 469 258 469 l 183 469 q 218 331 183 423 q 259 258 259 276 l 259 250 q 218 203 247 203 q 194 195 218 197 q 129 258 171 195 q 75 404 103 300 q 66 467 70 404 q 61 480 62 467 l 61 548 q 69 581 61 555 l 69 602 q 80 648 69 618 q 180 833 123 796 q 199 841 191 841 m 935 830 l 981 830 q 1081 651 1018 814 q 1095 589 1095 593 q 1092 486 1092 524 l 1092 437 q 1051 293 1080 378 q 975 201 1001 201 l 959 198 q 902 255 902 209 q 948 347 902 273 l 978 439 l 978 456 l 975 469 l 937 469 q 891 515 894 479 l 891 524 q 940 562 891 551 l 948 562 q 970 556 951 562 l 978 556 q 981 564 978 564 l 978 570 l 978 602 q 913 743 967 658 q 902 773 902 760 l 902 781 q 935 830 902 810 m 736 757 l 745 757 q 810 713 782 757 l 821 673 q 799 616 817 638 q 671 486 795 616 q 476 293 669 486 q 425 277 450 277 l 414 277 q 346 339 346 294 q 338 358 340 340 l 338 363 q 389 439 343 397 q 696 746 696 744 q 736 757 717 757 m 560 201 l 595 201 q 623 174 623 195 l 623 133 q 631 117 625 117 l 650 117 l 715 136 q 821 190 766 154 q 845 201 837 201 l 856 201 q 907 146 907 183 l 907 144 q 736 22 907 82 q 699 11 728 22 q 644 0 682 11 l 509 0 q 351 52 406 22 q 262 125 269 89 l 262 144 q 294 190 262 170 l 335 190 q 416 146 347 187 q 511 117 469 127 l 522 117 q 538 133 538 117 l 538 146 q 536 157 538 153 q 560 201 536 184 z "},"U":{"ha":1296,"x_min":61,"x_max":1246,"o":"m 362 968 q 419 947 407 962 q 460 884 440 933 q 606 876 460 880 q 636 825 625 862 l 636 822 q 576 768 622 768 l 245 768 q 175 713 175 768 l 175 515 q 118 461 159 461 q 61 502 61 469 l 61 749 q 140 860 78 814 q 178 876 164 866 q 248 879 229 879 q 302 949 283 949 q 362 968 302 964 m 723 882 q 764 879 750 879 l 1013 879 q 1133 876 1061 879 q 1219 811 1175 861 q 1244 754 1234 789 l 1244 499 q 1190 461 1233 461 q 1130 534 1139 461 l 1130 537 q 1133 583 1130 555 q 1130 716 1130 650 l 1130 727 q 1076 768 1130 758 l 739 768 q 674 808 688 768 q 671 819 671 813 l 671 827 q 723 879 684 879 l 723 882 m 1013 705 q 1062 662 1031 705 q 1073 635 1073 641 l 1073 618 q 1038 559 1066 587 q 1013 548 1019 548 l 834 548 q 777 608 777 567 q 774 640 774 622 q 826 705 774 678 l 1013 705 m 438 621 l 444 621 l 498 605 q 598 505 568 576 q 612 448 603 492 l 612 437 q 576 336 604 378 q 490 271 542 291 q 444 260 471 271 l 427 260 q 321 301 355 273 q 264 377 310 301 q 254 423 264 388 l 254 464 q 319 581 273 540 q 438 621 389 621 m 102 418 l 134 418 q 175 372 160 418 l 175 209 q 191 130 175 130 q 254 114 197 114 l 549 117 q 560 114 554 114 l 574 117 q 631 71 631 101 q 636 52 636 71 q 582 3 623 3 q 509 0 549 0 l 308 0 q 159 14 169 0 q 83 79 135 14 q 61 127 61 122 l 61 377 q 102 418 61 404 m 1171 418 l 1206 418 q 1244 382 1244 405 l 1244 361 q 1246 323 1244 331 q 1244 274 1244 297 l 1244 127 q 1192 43 1240 91 q 1111 3 1156 8 q 997 0 1050 0 l 991 0 q 905 3 931 0 q 818 0 878 0 l 802 0 q 685 19 685 0 q 669 54 669 45 q 723 111 677 111 l 728 117 q 769 114 755 114 q 1127 144 1127 111 l 1133 361 q 1171 418 1133 395 z "},"V":{"ha":1231,"x_min":54,"x_max":1164,"o":"m 266 1109 l 279 1109 q 328 1074 309 1105 l 331 1061 l 331 949 l 336 941 l 363 944 l 382 941 q 385 944 385 941 l 399 941 l 445 941 q 499 944 469 941 q 575 901 560 944 l 575 873 q 524 830 555 830 l 496 833 l 252 833 q 171 792 178 824 q 168 746 168 771 l 168 562 q 119 502 151 502 l 100 502 q 54 543 69 502 l 54 803 q 117 906 64 860 q 182 939 168 939 l 209 939 q 214 944 214 939 l 214 1047 q 266 1109 214 1090 m 985 944 q 1080 917 1042 938 q 1164 735 1164 855 l 1161 716 l 1161 562 q 1109 502 1149 502 l 1093 502 q 1047 540 1062 502 l 1047 776 q 1006 825 1031 812 q 990 830 999 825 q 784 833 857 833 l 673 833 q 632 882 645 833 l 632 892 q 681 941 644 941 l 689 941 q 697 939 697 941 q 751 941 734 941 l 960 941 q 985 944 970 941 m 662 768 l 760 768 q 906 700 856 747 q 987 591 963 652 q 1009 524 1002 561 q 1015 491 1015 524 l 1015 450 l 1004 396 q 941 277 989 336 q 792 182 876 210 q 727 171 781 182 l 722 171 q 602 195 640 182 q 469 301 551 210 q 420 426 441 338 q 418 448 418 437 l 418 507 q 431 567 431 553 q 505 681 467 649 q 616 751 570 742 q 662 768 616 754 m 510 472 q 570 326 510 377 q 659 271 612 283 q 673 266 659 266 l 754 266 q 844 309 823 286 q 922 469 922 372 q 836 643 922 578 q 730 684 787 671 l 703 684 q 648 670 673 673 q 532 567 559 633 q 510 472 510 536 m 692 618 l 743 618 q 830 570 777 612 q 852 529 830 564 q 865 475 865 491 q 836 385 865 445 q 738 328 785 328 q 724 323 738 323 l 711 323 q 621 358 654 331 q 575 437 576 403 q 567 461 569 437 l 567 486 q 608 572 579 543 q 692 618 652 614 m 95 448 l 122 448 q 168 385 155 448 l 168 212 q 165 182 168 200 q 190 127 165 153 q 214 117 206 117 l 526 117 q 581 60 570 117 q 526 0 572 0 l 203 0 q 81 76 117 22 q 54 141 54 127 l 54 407 q 95 448 54 433 m 1090 448 l 1112 448 q 1161 385 1148 448 l 1161 285 q 1158 252 1161 267 q 1161 220 1161 238 l 1161 174 q 1131 84 1149 98 q 1044 11 1113 40 q 998 0 1014 0 l 689 0 q 632 49 652 0 l 632 68 q 689 117 650 117 l 996 117 q 1047 174 1033 117 l 1047 407 q 1090 448 1064 448 z "},"W":{"ha":1190,"x_min":61,"x_max":1117,"o":"m 532 1053 l 537 1053 q 641 1010 579 1053 l 762 891 q 829 817 815 849 l 829 795 q 781 751 829 770 l 776 751 q 578 928 734 764 q 539 949 553 949 l 534 949 q 416 848 510 949 q 165 594 165 600 l 165 592 q 203 560 165 569 l 206 560 q 250 558 227 560 q 262 560 258 558 q 312 558 293 558 l 416 558 q 465 560 437 558 q 500 558 471 558 l 513 558 q 542 507 542 532 q 494 464 528 464 q 472 461 484 461 l 366 461 q 281 464 322 461 q 218 461 266 461 q 131 481 131 468 q 80 527 113 481 q 61 589 61 565 q 92 665 71 642 q 182 758 115 694 q 378 957 357 932 q 452 1024 451 1024 q 532 1053 484 1044 m 593 869 q 633 836 633 857 q 641 819 641 830 l 641 814 q 612 766 641 793 l 612 764 q 641 713 641 732 l 641 708 q 590 657 641 675 l 588 657 q 539 688 564 662 l 534 688 q 484 657 512 665 q 433 698 433 672 l 433 722 q 460 761 433 735 l 460 768 q 433 804 433 794 l 433 829 q 484 867 447 867 q 534 838 510 867 q 593 869 570 869 m 851 758 l 887 758 q 969 681 903 758 q 1083 565 975 681 q 1117 483 1117 522 l 1117 456 q 1008 300 1117 391 q 711 9 724 9 q 682 0 706 9 l 626 0 q 556 46 596 3 q 527 119 537 76 l 527 427 q 564 471 527 452 q 573 473 568 473 l 585 473 q 629 437 608 473 q 631 427 631 433 l 631 123 q 648 102 642 104 l 658 102 q 735 169 673 102 q 1013 452 1013 443 l 1013 483 q 950 553 1013 497 q 822 701 822 684 l 822 720 q 851 758 822 742 m 774 577 l 776 577 q 822 534 822 566 l 827 534 q 873 577 843 577 q 926 529 907 577 l 926 524 q 887 476 926 505 l 887 473 q 926 422 913 473 q 882 379 909 379 l 868 379 q 827 416 839 379 q 825 418 827 418 l 822 418 q 781 379 810 379 l 764 379 q 728 408 747 379 l 728 444 q 762 478 732 455 q 728 512 728 492 l 728 538 q 774 577 728 565 m 822 519 q 786 481 822 494 l 783 476 q 822 433 822 459 q 842 461 825 433 q 861 476 861 473 q 825 519 836 492 l 822 519 z "},"X":{"ha":1148,"x_min":54,"x_max":1080,"o":"m 859 1025 l 941 1025 q 1031 979 1031 997 q 1080 884 1051 979 l 1080 804 q 997 595 1055 700 q 901 458 955 523 q 785 350 823 350 q 720 414 720 372 l 720 433 q 798 531 738 465 q 951 826 922 698 l 951 853 q 932 893 951 878 l 862 893 q 693 820 800 880 q 650 798 690 812 q 595 755 615 762 q 469 666 508 670 q 410 722 410 689 q 408 740 408 722 q 524 860 408 766 q 718 979 654 949 q 859 1025 793 1013 m 208 1013 l 266 1013 l 340 995 q 475 933 397 975 q 499 887 499 904 q 444 844 482 844 q 358 881 437 844 q 266 912 309 905 q 229 918 245 918 q 174 875 174 909 l 171 860 q 199 740 171 798 q 245 642 210 709 q 211 593 228 597 l 171 593 q 94 743 118 640 q 76 832 76 777 q 70 850 70 832 q 109 961 87 949 q 208 1013 136 998 m 687 774 q 825 642 701 774 l 828 623 l 828 608 q 794 568 823 568 l 772 568 q 635 703 749 568 q 629 718 629 703 l 629 722 q 687 774 629 768 m 349 675 q 414 617 392 675 l 414 611 q 324 482 414 579 q 239 340 243 370 q 186 209 199 264 l 186 169 q 214 132 186 149 l 254 132 q 466 227 382 164 q 567 301 505 246 q 644 359 608 335 l 684 359 q 730 304 730 332 l 730 286 q 610 169 719 244 q 499 95 597 151 q 336 18 445 57 l 239 0 l 233 0 q 119 40 147 12 q 54 181 54 89 q 168 476 54 292 q 294 642 195 527 q 349 675 326 675 m 567 639 l 631 614 q 687 519 687 578 q 604 399 687 429 l 536 399 q 450 513 450 429 q 521 626 450 579 q 567 639 528 626 m 368 458 q 512 326 391 454 l 512 289 q 478 255 512 263 l 444 255 q 312 402 312 370 l 312 412 q 368 458 312 446 m 926 445 l 951 445 q 1043 301 990 445 q 1061 221 1061 244 q 1067 205 1067 221 l 1067 165 q 1021 58 1055 94 q 932 22 977 22 q 911 16 932 16 l 889 16 q 742 58 769 37 q 635 138 635 94 l 635 144 q 671 191 642 191 l 690 191 q 868 120 814 132 l 920 120 q 963 163 963 129 l 963 221 q 889 393 941 299 l 889 408 q 926 445 908 445 z "},"Y":{"ha":1320,"x_min":68,"x_max":1237,"o":"m 648 1099 l 654 1099 l 732 1082 q 863 985 793 1064 q 922 898 900 949 q 993 773 957 850 l 993 738 q 939 700 993 709 q 892 727 892 709 q 814 863 863 770 q 705 968 734 968 l 667 982 l 637 982 q 524 911 553 956 q 439 776 476 848 q 410 727 432 772 q 353 681 388 681 l 345 681 q 290 724 305 681 l 290 741 q 407 949 320 810 q 562 1077 485 1051 q 616 1090 579 1088 q 648 1099 616 1097 m 651 879 q 735 838 692 879 q 757 781 749 810 l 757 532 q 648 437 732 437 l 646 437 q 551 507 587 437 q 548 518 548 512 l 548 798 q 602 865 574 865 q 651 879 602 873 m 1020 678 q 1072 643 1072 665 q 1229 320 1229 388 q 1237 263 1229 292 l 1237 260 q 1221 182 1229 210 q 1128 62 1193 103 q 985 8 1051 8 q 947 0 985 0 l 724 0 q 678 35 701 3 l 675 49 l 675 68 q 724 117 675 96 l 960 117 q 1020 130 982 125 q 1077 165 1063 153 q 1115 244 1115 202 q 1123 263 1123 250 l 1123 266 q 1093 369 1109 345 q 1050 450 1071 423 q 963 605 963 600 l 963 629 q 1020 678 963 663 m 263 656 l 269 656 q 323 605 323 652 q 326 597 323 602 q 269 486 326 572 l 203 366 q 182 296 193 341 l 182 236 q 247 149 200 174 q 336 117 253 138 l 562 117 q 621 60 599 117 q 567 0 621 18 l 339 0 q 269 14 304 12 q 228 30 269 17 q 95 144 134 71 q 71 212 79 176 q 68 214 68 212 l 68 312 q 81 369 81 365 q 206 605 106 436 q 263 656 235 656 m 675 404 q 751 326 751 376 q 760 304 760 324 q 722 217 758 262 q 667 193 672 193 l 635 193 q 556 244 600 198 q 548 266 548 261 l 548 342 q 621 404 576 390 l 675 404 z "},"Z":{"ha":1165,"x_min":61,"x_max":1097,"o":"m 536 1001 l 628 1001 q 769 906 722 975 q 802 822 795 860 q 812 811 810 811 q 880 808 870 808 q 932 811 895 808 q 1035 779 996 811 q 1084 722 1067 760 q 1095 694 1095 701 l 1095 581 q 1097 486 1095 540 q 1067 429 1097 441 l 1035 418 q 986 477 986 431 q 981 507 983 503 q 983 564 983 543 l 983 602 l 981 618 q 983 635 983 623 q 932 697 983 697 l 905 694 l 663 694 q 604 754 604 705 l 604 760 q 636 808 604 795 q 682 822 682 808 q 585 890 648 890 q 476 814 505 890 q 552 779 552 811 q 560 762 560 776 l 560 749 q 514 703 550 703 q 481 694 514 696 l 264 694 q 227 697 250 694 q 178 665 193 697 l 178 475 q 118 418 178 434 q 69 453 78 431 q 61 477 61 473 l 61 656 q 94 749 64 701 q 186 808 144 801 l 286 808 q 359 819 359 808 q 425 944 363 869 q 536 1001 488 993 m 110 393 l 137 393 q 178 339 165 393 l 178 157 q 224 117 178 130 l 498 117 q 560 73 538 117 l 560 52 q 511 3 560 24 q 498 0 507 0 l 221 0 q 126 38 146 15 q 69 122 69 87 q 61 155 62 122 l 61 339 q 110 393 61 378 m 1029 393 l 1054 393 q 1097 315 1097 393 l 1095 296 q 1097 274 1095 289 q 1095 252 1097 267 q 1097 193 1097 205 q 1095 117 1095 132 q 1010 19 1068 52 q 940 0 945 0 l 924 0 q 897 3 897 0 q 859 0 873 0 l 658 0 q 604 43 604 14 q 595 60 598 44 q 636 114 610 101 q 661 117 651 117 l 937 117 q 983 163 983 125 q 986 171 983 171 q 983 212 983 198 l 983 339 q 1029 393 983 377 z "},"[":{"ha":662,"x_min":54,"x_max":592,"o":"m 449 1050 q 491 1007 476 1050 l 491 963 q 431 862 491 894 q 376 842 397 851 l 366 827 l 366 817 q 368 809 366 809 l 366 795 l 366 772 q 340 718 366 728 l 307 718 q 283 758 283 734 q 279 793 279 786 l 279 811 q 297 880 285 870 q 376 932 342 932 q 400 943 376 936 q 404 955 404 949 l 404 1013 q 441 1050 404 1032 l 449 1050 m 382 700 l 435 680 q 528 611 477 663 q 578 516 568 553 q 588 457 586 498 q 592 437 592 457 l 592 370 q 562 328 592 347 l 91 328 q 54 362 73 328 l 54 447 q 101 585 60 521 q 208 677 149 652 q 271 698 235 692 l 277 698 q 307 671 307 687 l 315 657 q 269 611 302 611 q 186 552 208 587 q 147 484 174 552 q 139 449 147 477 l 139 425 q 151 412 139 412 l 287 412 l 297 414 l 297 416 q 260 469 260 446 l 260 542 q 289 585 275 585 q 317 597 303 597 l 334 597 q 378 564 366 588 q 386 538 378 561 l 386 471 q 355 422 379 439 q 347 414 353 422 l 357 412 l 495 412 q 507 418 506 412 l 507 451 q 491 502 498 485 q 420 591 475 554 q 351 619 398 604 q 332 653 332 643 q 382 700 332 690 m 93 309 l 103 309 q 139 286 139 296 l 139 263 q 157 192 146 209 q 212 121 165 164 q 291 87 236 102 l 357 87 q 469 158 443 113 q 507 255 490 182 l 507 279 q 538 309 507 294 l 556 309 q 590 275 574 309 l 592 265 l 592 257 l 582 198 q 538 105 574 161 q 469 43 503 61 q 412 16 448 27 q 374 4 411 12 q 359 0 374 0 l 293 0 q 202 28 239 9 q 89 138 127 66 q 58 231 63 191 q 54 251 54 247 l 54 265 q 93 309 54 294 z "},"\\":{"ha":1213,"x_min":54,"x_max":1150,"o":"m 610 1031 q 722 998 679 1023 q 825 903 783 962 q 947 686 947 713 l 947 681 q 903 632 931 632 l 865 632 q 811 705 844 640 q 732 833 736 833 q 635 909 703 888 q 602 920 628 909 q 543 898 578 909 q 467 822 491 865 l 366 656 q 334 632 347 632 l 309 632 q 266 684 281 632 l 266 694 q 320 798 266 713 q 372 884 372 882 q 461 982 395 932 q 600 1028 530 1028 l 610 1031 m 439 640 l 458 640 q 513 581 513 626 q 515 572 515 581 q 453 510 503 510 l 442 510 q 382 564 399 510 l 382 570 q 439 640 403 640 m 762 640 q 819 581 819 621 l 819 562 q 768 513 806 513 q 746 510 758 510 q 692 559 692 522 l 692 589 q 741 640 692 617 l 762 640 m 244 608 l 247 608 q 298 556 298 598 q 263 475 298 521 q 217 391 263 471 q 174 279 187 353 q 168 260 169 279 l 168 244 q 182 193 179 214 q 301 125 239 125 q 326 117 301 119 l 532 117 q 583 65 559 117 l 583 57 q 521 0 564 0 l 353 0 q 174 46 266 0 q 62 193 90 98 q 54 239 62 208 l 54 279 l 68 336 q 119 445 87 409 q 203 591 119 453 q 244 608 231 608 m 955 608 l 982 608 q 1061 499 1006 608 q 1123 382 1123 397 q 1150 301 1137 359 l 1150 209 q 1088 87 1141 149 q 914 11 1000 11 q 844 0 914 0 l 686 0 q 629 46 629 12 l 629 73 q 678 117 629 102 l 892 117 q 977 146 933 127 q 1036 247 1036 184 q 1034 293 1034 268 l 1034 296 q 949 464 1034 324 q 906 553 906 534 l 906 556 q 955 608 916 608 m 572 553 l 635 553 q 705 499 705 524 q 724 453 724 470 l 724 429 q 694 353 724 395 q 618 317 651 317 q 610 315 618 315 l 605 315 q 532 342 532 326 q 486 415 494 371 l 480 434 l 480 437 q 521 526 496 505 q 572 553 544 547 m 618 298 q 670 241 670 280 l 670 228 q 613 171 656 171 l 591 171 q 540 236 546 171 q 589 298 540 283 l 618 298 z "},"]":{"ha":514,"x_min":0,"x_max":0,"o":""},"^":{"ha":688,"x_min":0,"x_max":0,"o":""},"_":{"ha":694,"x_min":0,"x_max":0,"o":""},"`":{"ha":694,"x_min":0,"x_max":0,"o":""},"a":{"ha":1241,"x_min":47,"x_max":1176,"o":"m 940 1126 q 986 1077 986 1126 q 829 906 986 1053 q 802 898 819 898 q 761 941 768 898 l 761 947 q 802 1001 761 969 q 929 1123 918 1123 q 940 1126 935 1123 m 1035 1031 q 1081 993 1081 1022 l 1081 982 q 951 841 1081 961 q 856 760 878 760 l 853 760 q 812 803 816 760 l 812 806 q 891 898 812 833 l 1002 1015 q 1035 1031 1002 1024 m 1133 939 l 1135 939 q 1176 895 1176 920 l 1176 887 q 1043 743 1176 868 q 994 708 1013 708 l 986 708 q 948 754 948 726 q 1002 830 953 783 q 1116 933 1104 932 q 1133 939 1125 939 m 650 822 l 699 822 q 799 779 765 808 q 867 675 837 758 q 872 629 867 654 q 780 458 872 530 q 625 312 640 312 l 593 312 q 557 366 557 332 q 601 437 557 407 q 753 597 753 588 q 758 627 753 608 q 726 692 755 661 q 680 708 692 708 q 568 629 633 708 q 430 505 446 505 l 408 505 q 359 553 382 505 l 357 559 q 430 654 357 583 q 587 800 574 800 q 650 822 603 811 m 308 513 l 313 513 q 365 467 344 513 l 365 442 q 194 258 365 418 q 164 206 164 221 l 164 171 q 210 119 180 138 q 248 114 214 117 q 378 217 289 114 q 484 312 472 312 l 500 320 q 557 277 557 301 l 557 236 q 340 24 351 24 q 292 3 306 3 q 227 0 260 3 q 110 52 165 0 q 47 165 70 89 l 47 212 q 94 317 58 273 q 202 429 174 395 q 289 510 207 429 l 308 513 z "},"b":{"ha":1089,"x_min":61,"x_max":1013,"o":"m 526 1091 l 559 1091 q 614 1046 583 1091 l 616 1015 l 616 836 q 569 768 616 787 q 566 766 569 766 l 515 766 q 470 808 478 783 q 463 841 466 841 q 465 879 465 866 l 465 1005 q 513 1086 465 1075 q 526 1091 513 1090 m 460 753 l 488 753 q 526 712 526 739 l 526 692 q 478 606 509 650 q 412 480 465 574 q 389 437 389 446 q 433 422 399 426 q 480 412 433 415 q 493 407 480 407 l 581 407 l 670 425 q 688 442 679 425 q 559 677 583 627 q 549 702 549 698 q 584 753 555 733 l 619 753 q 660 712 639 753 q 789 485 719 603 q 864 543 791 485 q 884 551 877 551 q 937 513 937 541 q 943 500 943 513 l 943 495 q 900 435 943 468 q 842 384 847 395 q 1013 71 1013 78 l 1013 43 q 965 0 1013 10 l 955 0 q 897 66 927 0 q 862 132 890 70 q 745 336 846 154 l 738 336 q 660 313 690 318 q 647 308 660 308 l 619 308 q 579 298 582 298 l 500 298 q 460 308 463 308 l 437 308 q 354 334 394 319 l 339 338 q 304 280 326 338 q 260 207 291 274 q 190 78 212 123 q 155 18 184 74 q 119 0 129 0 l 106 0 q 61 38 86 0 l 61 68 l 222 361 q 238 391 229 368 q 139 490 139 460 l 139 498 q 195 551 139 538 q 258 508 218 551 q 288 488 260 508 l 291 488 q 306 515 295 488 q 433 738 361 608 q 460 753 450 753 z "},"c":{"ha":872,"x_min":61,"x_max":804,"o":"m 321 1128 q 376 1085 363 1114 l 378 1072 l 378 667 q 300 597 378 627 q 186 450 223 549 q 175 404 186 432 l 175 353 q 202 260 186 303 q 343 136 262 157 q 395 122 363 122 q 414 114 401 114 l 454 114 q 604 182 568 139 q 682 307 665 233 q 690 334 690 321 l 690 420 q 644 524 675 490 q 598 575 628 557 l 500 637 l 498 651 l 498 1085 q 552 1128 498 1114 q 604 1077 604 1116 q 609 1044 609 1058 l 609 719 q 647 684 609 705 q 736 594 710 637 q 793 477 772 552 q 804 437 793 467 l 804 312 q 791 258 791 274 q 769 203 787 258 q 671 90 718 122 q 514 11 610 33 q 452 0 498 11 l 419 0 l 332 16 q 145 138 244 35 q 118 179 145 142 q 66 326 66 263 q 61 339 62 326 l 61 401 q 72 475 72 446 l 107 562 q 145 613 113 562 q 197 659 163 639 q 262 708 208 673 l 262 901 q 264 998 262 948 q 262 1074 262 1007 q 321 1128 262 1105 m 582 369 q 636 331 636 356 q 644 312 644 325 l 644 307 q 604 255 629 255 l 270 255 q 229 309 229 268 q 275 369 229 353 l 582 369 z "},"d":{"ha":1417,"x_min":54,"x_max":1344,"o":"m 293 1025 l 625 1025 q 666 981 650 1025 l 666 975 q 618 926 651 926 l 319 926 l 255 898 q 165 780 192 861 l 165 608 q 112 551 165 562 l 102 551 q 54 608 54 568 l 54 755 l 73 831 q 182 975 113 935 q 293 1025 206 1000 m 781 1025 l 1108 1025 q 1277 924 1215 1000 q 1344 783 1324 867 l 1344 599 q 1296 551 1340 551 l 1286 551 q 1245 576 1261 551 l 1245 739 q 1198 857 1230 820 q 1083 920 1136 920 q 1076 926 1083 926 l 790 926 q 742 978 754 926 l 742 984 q 781 1025 760 1025 m 500 876 l 627 876 q 732 838 684 860 q 907 627 862 768 q 920 560 918 606 q 927 538 927 560 l 927 487 q 914 414 918 462 q 825 267 876 314 q 675 172 728 172 q 593 150 618 150 l 529 150 q 379 197 414 174 q 242 344 267 277 q 201 481 201 409 q 195 497 195 481 l 195 551 q 207 614 203 551 q 233 678 214 619 q 433 857 300 806 q 484 869 433 861 q 500 876 484 875 m 1016 863 l 1067 863 q 1156 780 1120 863 l 1156 748 q 1121 663 1156 718 l 1121 659 q 1131 618 1131 644 l 1131 583 q 1143 513 1143 550 l 1143 494 q 1159 370 1154 477 q 1070 191 1159 269 q 975 150 1004 150 q 907 201 934 150 l 907 229 q 1000 306 907 267 q 1029 379 1019 342 q 1019 411 1019 395 l 1019 449 q 1003 557 1006 475 q 994 595 996 557 l 994 637 q 946 697 994 649 q 930 745 930 732 l 930 758 q 997 857 930 822 q 1016 863 1007 863 m 328 532 l 328 497 q 344 436 339 471 q 475 299 377 353 q 526 287 492 299 l 593 287 q 704 334 635 292 q 790 481 776 404 q 793 490 793 481 l 793 538 q 777 602 781 573 q 656 723 717 705 q 557 745 635 739 q 443 713 489 739 q 373 646 399 690 q 338 557 338 602 q 328 532 328 541 m 551 599 l 570 599 q 631 560 608 591 q 640 535 640 541 l 640 497 q 586 439 640 469 l 538 439 q 481 500 503 439 l 481 532 q 532 589 500 589 q 551 599 535 599 m 105 475 l 118 475 q 165 411 165 460 l 165 258 q 239 143 181 186 l 296 111 q 500 109 429 109 l 589 109 l 608 111 q 666 73 666 92 l 666 45 q 618 0 648 0 l 321 0 q 195 45 256 14 q 80 191 92 123 q 54 296 67 203 l 54 414 q 105 475 68 475 m 1290 475 l 1296 475 q 1344 424 1344 459 l 1344 261 q 1296 134 1328 169 q 1217 51 1296 118 q 1124 13 1143 13 q 1051 0 1098 0 l 783 0 q 732 54 752 0 q 809 111 745 111 q 838 109 826 109 l 898 109 l 918 111 q 930 109 923 109 q 946 111 941 109 q 981 109 968 109 l 984 109 q 1025 111 1004 109 l 1042 109 q 1153 137 1118 109 q 1226 229 1226 195 q 1245 287 1232 239 l 1245 436 q 1290 475 1245 463 z "},"e":{"ha":1183,"x_min":61,"x_max":1105,"o":"m 123 1053 l 134 1053 q 186 1017 159 1053 q 197 996 190 1005 l 197 985 q 161 928 184 928 q 140 917 152 917 l 123 917 q 61 974 83 917 l 61 987 q 99 1042 75 1042 q 123 1053 111 1053 m 1046 1053 q 1100 1020 1093 1038 l 1105 1012 l 1105 966 q 1054 917 1084 917 l 1038 917 q 981 963 981 931 l 981 1012 q 1035 1053 994 1038 l 1046 1053 m 661 1036 q 867 963 738 1036 q 970 873 905 939 q 1065 724 1023 819 q 1095 629 1083 673 l 1095 597 q 1054 553 1081 553 l 1029 553 q 978 629 978 565 l 943 716 q 726 906 870 846 q 663 922 667 922 q 628 933 663 926 q 606 977 606 958 l 606 990 q 661 1036 622 1036 m 487 1034 l 514 1034 q 563 979 551 1034 q 511 925 548 925 q 438 903 496 918 q 330 841 394 886 q 229 713 259 781 q 183 578 210 688 q 145 553 159 553 l 123 553 q 72 608 90 553 q 88 678 83 642 q 99 711 93 678 q 134 784 104 714 q 240 911 168 847 q 460 1028 346 1005 q 487 1034 460 1033 m 555 787 l 606 787 q 707 757 662 776 q 807 659 781 713 q 834 600 834 605 q 845 515 838 600 q 823 420 840 471 q 761 334 790 361 q 647 277 686 277 q 598 266 612 266 l 582 266 l 498 282 q 392 355 434 307 q 332 467 345 413 q 330 469 330 467 l 330 575 q 381 686 343 633 q 476 762 420 733 q 536 779 504 779 q 555 787 536 784 m 495 524 q 566 434 495 460 l 604 434 q 666 477 627 434 q 682 524 666 484 q 639 605 671 574 q 604 618 637 605 l 568 618 q 498 562 533 618 q 495 524 498 557 m 1038 505 l 1040 505 q 1095 464 1074 505 l 1095 429 q 1024 252 1072 324 q 964 174 993 202 q 804 60 873 81 q 688 19 760 33 q 666 16 686 19 q 606 60 623 16 l 606 79 q 693 136 606 128 q 842 217 804 178 q 948 353 923 286 q 983 467 983 425 q 1038 505 1005 505 m 137 502 q 191 437 191 493 q 259 293 221 334 q 403 168 300 220 q 473 141 408 159 q 511 133 473 136 q 560 95 560 115 q 563 73 563 92 l 563 62 q 522 19 557 19 l 476 19 q 338 71 387 43 q 194 184 269 109 l 151 247 q 77 429 90 345 q 72 448 73 429 q 123 499 84 499 l 137 502 m 115 136 l 140 136 q 199 71 178 136 q 145 8 184 8 q 129 0 142 0 q 61 62 61 18 l 61 76 q 115 136 61 119 m 1029 136 l 1057 136 q 1105 95 1076 136 l 1105 52 q 1040 0 1105 18 q 981 38 1008 6 q 978 76 978 72 q 1029 136 978 119 z "},"f":{"ha":869,"x_min":47,"x_max":793,"o":"m 361 1063 l 475 1063 l 534 1045 q 633 946 606 1006 q 661 842 652 920 q 633 793 650 793 q 606 789 633 789 l 554 789 q 511 816 522 789 q 509 823 511 818 q 550 859 517 859 l 561 861 l 561 872 q 507 949 542 928 q 433 968 490 968 q 431 971 433 971 q 329 944 342 966 q 279 863 294 924 l 279 861 q 322 842 322 861 q 332 823 332 840 q 298 789 321 789 l 235 789 q 182 831 191 789 l 182 859 q 214 960 192 922 q 334 1055 257 1028 q 361 1063 336 1055 m 210 753 l 300 753 q 332 716 332 741 l 332 712 q 293 680 332 684 l 228 680 q 187 705 195 680 l 185 716 l 185 719 q 210 753 185 737 m 543 753 l 627 753 q 658 719 658 741 l 658 714 q 624 680 650 680 l 620 678 q 557 683 567 683 q 550 680 552 680 q 509 716 509 688 q 543 753 509 741 m 75 656 l 85 656 q 119 617 119 656 l 119 550 q 131 507 125 543 q 221 370 158 420 q 325 315 291 315 q 365 307 325 309 q 414 300 365 300 l 444 300 q 552 327 512 309 q 606 358 582 339 q 710 505 680 412 q 719 545 713 505 q 724 561 724 545 l 724 627 q 755 656 724 650 l 764 656 q 793 620 793 656 l 793 536 q 762 435 784 475 q 719 365 745 395 q 640 291 692 324 q 564 252 587 258 q 458 230 508 230 l 455 225 l 455 149 q 478 133 455 133 l 631 133 q 678 135 649 133 q 739 101 723 135 q 748 77 748 81 l 748 61 q 717 12 748 34 q 692 0 706 0 l 146 0 q 97 43 122 0 q 92 61 92 51 l 92 68 q 144 133 92 115 l 372 133 q 385 146 385 133 l 385 225 q 368 232 384 232 l 347 232 q 295 243 328 239 q 216 284 220 275 q 109 383 165 304 q 50 523 73 434 l 50 564 q 47 595 50 581 q 50 624 50 606 l 50 637 q 75 656 62 656 m 228 646 l 298 646 q 332 613 317 646 l 332 610 q 279 568 332 574 q 322 489 288 528 q 406 460 378 460 l 444 460 q 521 494 505 475 q 559 557 535 494 l 564 561 q 525 579 564 568 q 509 610 509 598 q 545 646 509 633 l 611 646 q 658 604 644 646 l 661 593 q 631 477 661 545 q 505 376 585 404 l 448 365 l 392 365 q 286 399 321 376 q 218 469 218 449 q 192 530 203 485 q 182 574 182 566 l 182 597 q 228 646 182 630 z "},"g":{"ha":1572,"x_min":54,"x_max":1502,"o":"m 762 1084 q 819 1034 819 1084 l 819 909 q 769 862 806 862 l 756 862 q 712 928 723 862 l 712 940 q 744 1081 712 1081 q 762 1084 760 1084 m 1164 931 l 1167 931 q 1236 871 1236 913 l 1236 859 q 1195 802 1230 824 q 1117 783 1133 783 l 1114 777 q 1176 733 1176 770 l 1176 718 q 1085 530 1176 701 q 1001 417 1034 417 l 991 417 q 944 454 961 417 l 944 476 q 1017 621 944 482 q 1104 774 1074 745 l 1082 774 l 947 740 l 694 677 l 578 649 q 490 627 578 644 q 418 611 466 617 l 412 602 l 439 602 q 499 530 474 602 q 615 301 612 325 q 559 244 610 244 q 503 301 535 244 q 412 479 476 359 q 380 555 388 519 q 408 602 383 577 l 389 602 q 315 658 315 602 l 315 680 q 406 740 333 740 q 462 755 406 745 q 555 777 530 777 q 603 790 555 786 q 656 802 603 798 q 706 815 656 810 q 756 827 706 822 q 810 843 764 835 l 1164 931 m 1242 774 l 1261 774 q 1339 661 1295 774 q 1417 508 1378 598 q 1436 464 1431 508 q 1380 417 1423 417 l 1377 417 q 1311 495 1343 417 q 1201 718 1201 701 l 1201 721 q 1242 774 1204 774 m 753 674 l 775 674 q 819 624 819 659 l 819 526 q 769 479 800 479 q 715 533 715 490 q 712 611 715 564 q 741 671 728 670 q 753 674 746 674 m 296 602 l 315 602 q 361 555 345 602 q 230 286 361 544 q 174 244 202 244 q 130 279 130 257 l 130 311 q 211 476 130 326 q 296 602 265 602 m 947 404 q 1023 354 970 404 q 1158 304 1118 304 l 1223 304 q 1339 345 1255 304 l 1411 401 q 1424 404 1417 404 l 1442 404 q 1502 342 1488 404 l 1502 338 q 1311 188 1502 261 q 1249 172 1284 185 l 1139 172 q 985 222 1090 172 q 878 326 883 286 l 878 338 q 926 404 878 387 l 947 404 m 104 232 l 133 232 q 224 172 156 232 q 333 132 315 132 l 406 132 l 462 147 q 587 229 509 159 l 606 232 l 628 232 q 681 182 681 220 l 681 157 q 515 25 665 94 l 418 0 l 323 0 q 252 16 290 12 q 208 31 252 20 q 54 172 54 109 q 104 232 73 232 z "},"h":{"ha":1044,"x_min":68,"x_max":974,"o":"m 279 1131 l 296 1131 q 418 1050 356 1118 q 464 944 464 987 q 469 930 469 944 l 469 895 q 415 844 451 844 l 334 844 q 233 787 262 825 q 182 692 210 770 l 182 567 q 141 524 169 524 l 109 524 q 68 570 82 524 l 68 697 q 81 754 79 723 q 92 784 87 754 q 163 879 132 859 q 301 952 211 932 q 334 960 301 959 l 334 968 q 252 1028 295 1015 q 228 1066 228 1049 l 228 1088 q 279 1131 251 1131 m 746 1131 l 757 1131 q 814 1074 797 1131 q 757 1015 814 1039 q 705 968 736 1008 l 705 960 q 806 930 761 949 q 903 852 881 888 q 963 727 951 795 l 971 700 q 974 597 971 653 q 925 524 974 536 l 906 524 q 857 572 857 536 l 857 689 q 806 789 842 749 q 722 841 765 827 l 708 844 l 629 844 q 570 895 591 844 l 570 930 q 583 985 581 958 q 724 1126 631 1090 q 746 1131 734 1131 m 532 800 q 586 762 556 800 l 589 749 l 589 711 q 605 703 591 703 l 700 703 q 749 654 749 690 l 749 637 q 708 589 749 604 l 442 589 q 407 564 410 589 l 407 553 q 448 526 411 526 l 618 526 q 770 410 737 526 l 770 353 q 703 258 749 282 q 643 236 678 247 l 597 236 q 589 228 593 236 l 589 201 q 537 149 578 149 l 526 149 q 472 209 483 149 l 472 233 l 458 236 l 331 236 q 271 293 290 236 l 271 296 q 312 350 271 324 l 602 350 q 654 380 654 352 l 654 393 q 632 412 648 404 l 464 412 q 412 418 418 418 l 393 418 q 304 494 328 441 q 290 532 290 519 l 290 583 q 320 651 290 597 q 415 703 353 687 l 458 703 l 472 705 l 472 730 q 524 798 472 779 q 532 800 526 798 m 119 458 l 133 458 q 182 410 165 458 l 182 274 l 193 233 q 290 127 210 180 q 326 117 315 127 l 713 117 q 825 195 784 136 q 857 277 836 195 l 857 412 q 911 458 857 446 l 917 458 q 971 412 951 458 l 974 399 l 971 366 q 974 355 971 360 q 971 326 971 337 l 971 266 l 955 198 q 863 71 941 140 q 732 8 789 8 q 708 0 732 2 l 339 0 q 214 41 292 0 q 92 179 124 97 q 73 247 81 193 q 68 260 68 247 l 68 415 q 119 458 92 458 z "},"i":{"ha":821,"x_min":54,"x_max":743,"o":"m 233 1095 l 572 1095 l 626 1073 q 724 972 699 1033 l 743 913 l 743 616 q 702 576 730 576 q 680 579 688 579 l 670 579 q 641 616 654 586 l 641 895 q 614 953 641 913 q 570 985 614 962 q 548 992 560 992 l 250 992 q 169 931 216 992 l 157 895 l 157 621 q 125 584 147 584 q 106 576 125 579 q 54 623 70 576 l 54 907 q 66 958 64 930 q 120 1036 89 1000 q 205 1087 163 1072 q 233 1095 213 1087 m 445 901 q 533 867 503 901 q 543 836 543 845 l 543 433 q 475 372 543 391 q 433 374 446 374 l 382 374 q 359 376 373 374 q 345 374 356 374 q 257 425 269 374 q 254 433 254 425 l 254 828 q 379 901 254 901 l 445 901 m 694 513 q 743 471 730 513 l 743 183 q 697 81 733 134 q 626 22 683 59 q 550 0 568 0 l 248 0 q 147 39 203 3 q 64 151 87 83 q 54 191 64 159 l 54 467 q 91 508 54 489 l 125 508 q 157 469 157 487 l 157 208 q 186 144 167 159 q 245 105 224 105 l 553 105 q 629 161 608 122 q 641 208 641 191 l 641 467 q 687 513 654 513 l 694 513 m 391 328 l 414 328 q 479 279 448 328 l 492 235 q 455 166 476 180 q 401 146 418 146 l 389 146 l 347 163 q 311 230 311 192 q 362 320 311 300 q 391 328 371 328 z "},"j":{"ha":1314,"x_min":54,"x_max":1237,"o":"m 1063 1088 l 1185 1088 q 1237 1042 1212 1088 l 1237 1028 q 1185 971 1237 991 l 1082 971 q 1017 911 1053 971 q 947 754 994 852 q 833 507 885 615 q 705 350 794 404 q 613 320 640 320 l 494 320 q 448 366 450 330 l 448 377 q 488 429 448 429 q 510 437 490 437 q 521 434 521 437 l 548 437 l 613 437 q 703 499 654 444 q 765 627 751 610 q 822 757 765 637 l 898 920 q 1028 1077 938 1034 q 1063 1088 1034 1077 m 212 830 l 713 830 q 768 781 768 819 l 768 757 q 735 716 768 736 l 233 716 q 168 651 168 709 l 168 570 q 239 456 168 511 q 285 437 247 448 l 323 437 q 404 396 395 437 l 404 358 q 361 320 404 330 l 282 320 q 198 345 262 320 q 65 499 102 401 q 54 548 65 512 l 54 678 q 127 800 73 762 q 212 830 166 819 m 220 244 l 274 244 q 353 179 353 212 q 369 122 359 179 q 323 30 369 78 q 252 0 292 6 l 236 0 q 155 41 188 7 q 122 136 122 86 q 155 209 131 178 q 220 244 198 244 m 627 244 l 675 244 q 754 193 724 231 q 773 122 768 170 q 749 52 766 71 q 681 8 713 8 q 656 0 681 2 l 643 0 q 567 35 591 11 q 532 109 532 71 q 526 127 527 109 q 556 203 541 194 q 627 244 581 231 z "},"k":{"ha":1069,"x_min":61,"x_max":996,"o":"m 359 1122 l 465 1122 q 547 1102 541 1102 q 706 1016 625 1058 l 749 1004 l 814 1004 q 882 1016 841 1014 q 913 1024 882 1023 l 920 1024 q 996 966 972 1024 l 996 837 q 948 793 983 793 q 895 827 895 797 q 888 847 888 828 l 888 900 q 882 905 888 905 l 850 905 q 802 895 813 895 l 753 895 l 686 910 q 506 998 675 910 l 463 1014 l 359 1014 q 301 994 351 1007 q 245 941 245 953 l 231 907 q 235 840 235 872 q 197 796 223 796 l 170 796 q 132 834 132 810 l 132 941 q 190 1039 143 990 q 260 1092 228 1071 q 342 1118 310 1112 q 359 1122 342 1122 m 172 753 l 197 753 q 238 708 224 741 q 241 538 241 597 l 241 253 q 271 220 241 241 q 309 159 306 186 l 309 96 q 256 20 295 46 q 203 0 218 0 l 170 0 q 94 38 125 7 q 61 111 61 80 l 61 144 q 130 245 61 190 q 132 255 132 250 l 132 708 q 172 753 132 730 m 936 753 l 956 753 q 996 703 996 734 l 996 553 q 958 490 996 527 q 885 452 920 463 q 819 437 836 437 l 743 437 q 686 452 688 452 q 547 526 624 481 q 443 549 471 549 q 329 500 392 549 q 319 498 325 498 l 296 498 q 256 538 276 498 q 253 549 253 543 l 253 551 q 288 602 272 602 q 408 654 323 635 l 486 654 q 538 642 513 645 q 706 562 616 612 q 746 546 706 559 l 759 546 q 789 543 776 546 q 888 574 848 543 l 888 698 q 936 753 888 736 z "},"l":{"ha":1186,"x_min":75,"x_max":1097,"o":"m 509 1034 q 617 985 570 1022 q 658 906 642 958 q 661 884 661 896 l 661 865 l 674 863 l 780 863 q 916 757 878 831 q 929 697 927 730 q 937 678 934 697 q 902 629 926 629 l 880 629 q 840 708 840 629 q 761 773 815 756 l 742 779 l 595 779 q 557 822 570 779 q 574 879 566 846 q 533 936 562 916 l 519 939 l 481 939 q 435 884 435 909 l 435 863 q 446 830 446 833 l 446 817 q 406 779 446 783 l 395 779 q 351 836 363 779 q 343 865 351 849 q 373 963 351 932 q 476 1025 426 1025 q 509 1034 476 1032 m 229 863 l 278 863 q 308 833 300 863 l 308 808 q 245 776 308 776 q 170 711 189 755 q 159 667 170 700 l 159 648 q 161 635 159 640 l 159 618 l 159 602 q 167 594 159 598 l 194 594 l 243 578 q 313 513 259 578 q 330 467 330 477 l 330 410 q 264 307 330 355 q 191 277 212 277 l 159 277 q 75 317 105 288 l 75 353 q 113 382 95 382 l 123 382 q 178 369 159 369 q 245 420 225 369 l 245 437 q 186 502 245 479 l 164 502 q 132 491 161 502 l 104 491 q 75 513 90 491 l 75 708 q 118 795 81 747 q 210 857 176 854 q 229 863 210 862 m 929 594 l 948 594 q 1027 564 1022 576 q 1081 499 1040 564 q 1097 450 1097 462 l 1097 420 l 1086 380 q 1016 298 1059 316 q 935 277 981 277 q 932 269 932 271 q 937 233 932 266 q 916 114 937 182 q 804 16 879 45 q 761 8 804 11 q 745 3 761 3 q 693 46 693 14 l 693 52 q 753 95 702 95 q 818 127 781 95 q 842 179 842 171 l 842 236 q 845 296 842 264 q 842 331 842 309 q 888 380 856 380 q 940 361 920 372 q 1005 426 1005 386 q 954 502 1005 493 l 929 502 q 897 491 899 491 l 883 491 q 842 534 858 491 q 916 589 854 589 q 929 594 916 593 m 484 266 l 530 266 q 625 209 563 266 q 661 130 661 155 l 661 106 q 642 33 661 79 q 604 5 618 5 q 555 38 555 14 l 555 57 l 574 111 q 517 174 557 174 q 503 182 517 180 q 441 141 466 174 l 435 122 l 435 90 q 454 46 454 57 q 406 3 439 3 l 297 3 q 267 0 286 3 q 202 14 243 11 q 170 30 202 16 q 107 92 107 74 q 75 163 89 113 l 75 206 q 115 244 85 244 l 121 244 q 161 184 161 244 q 221 103 182 121 l 245 95 l 338 95 q 354 165 343 95 q 376 206 360 168 q 484 266 435 266 z "},"m":{"ha":1534,"x_min":54,"x_max":1468,"o":"m 146 1032 l 153 1032 q 235 952 235 1007 q 241 931 241 952 l 241 836 q 211 765 233 781 q 186 728 186 747 l 186 722 q 189 651 186 684 q 186 639 189 639 q 189 547 189 578 l 189 147 q 193 89 189 123 q 165 22 182 22 l 149 18 l 131 18 q 91 52 91 24 l 91 749 q 54 805 54 803 l 54 956 q 128 1023 75 1023 q 146 1032 131 1032 m 1366 1032 l 1375 1032 q 1455 974 1455 1010 q 1468 940 1468 962 l 1468 64 q 1421 18 1457 18 l 1406 18 q 1360 80 1375 18 q 1363 193 1363 158 l 1363 486 q 1314 522 1363 505 q 1274 624 1274 556 l 1274 639 q 1277 657 1274 657 l 1274 688 l 1274 912 q 1348 1026 1274 1005 q 1366 1032 1358 1032 m 669 986 q 724 946 706 978 q 730 922 730 935 l 730 912 q 656 851 716 851 l 589 823 q 408 627 468 764 q 380 470 392 583 q 395 399 389 454 q 503 221 430 287 q 663 135 582 153 q 730 74 730 115 l 730 56 q 678 6 714 6 l 638 6 l 558 31 q 386 153 466 71 q 285 326 302 249 q 263 393 275 339 q 251 498 260 447 q 260 547 260 530 l 260 587 q 281 651 274 635 q 349 789 281 674 q 488 912 446 901 q 669 986 529 954 m 844 986 q 1105 845 1017 942 q 1221 669 1184 767 q 1240 593 1240 615 q 1249 565 1246 593 l 1249 421 q 1157 199 1222 286 q 1004 58 1089 111 q 835 0 879 0 q 776 49 776 17 q 770 64 771 49 q 835 129 783 129 q 881 144 844 136 q 1022 237 943 166 q 1117 424 1097 326 q 1120 494 1117 463 q 1117 565 1117 522 l 1083 663 q 930 817 1013 774 q 859 845 878 845 q 810 857 859 853 q 776 918 776 887 q 822 983 776 965 l 844 986 m 703 719 l 804 719 q 936 636 878 696 q 982 528 970 581 l 982 452 q 960 393 965 393 q 908 319 942 350 q 791 261 865 283 l 721 261 q 598 317 653 275 q 524 470 524 401 l 524 526 q 570 636 524 565 q 687 713 645 711 q 703 719 687 718 m 619 498 l 619 488 q 681 384 640 407 q 758 363 719 363 q 865 427 821 363 q 884 488 878 444 q 804 611 884 567 q 767 624 799 611 l 739 624 q 644 562 667 604 q 619 498 630 547 z "},"n":{"ha":1137,"x_min":47,"x_max":1073,"o":"m 565 1098 q 618 1058 605 1084 q 638 1008 629 1036 l 638 970 q 600 864 638 960 q 618 819 618 821 l 618 791 q 565 753 589 753 q 503 829 503 775 q 492 859 492 845 l 492 862 q 530 977 492 894 q 532 987 532 977 l 512 1035 l 512 1048 q 557 1095 512 1074 q 565 1098 560 1095 m 407 711 l 703 711 q 817 643 782 691 q 854 550 848 595 l 854 467 q 842 402 847 439 q 701 226 798 276 q 603 189 659 201 l 505 189 q 407 221 456 199 q 354 259 355 259 q 269 389 277 338 q 254 445 254 425 l 254 568 q 311 668 271 639 q 379 703 360 703 q 407 711 399 711 m 899 681 l 947 681 q 1025 643 977 675 q 1073 557 1062 603 l 1073 482 q 1010 389 1063 441 q 920 359 980 370 q 867 404 867 372 l 867 425 q 924 467 867 464 q 967 513 967 481 q 970 523 967 518 q 927 575 970 559 l 907 575 q 867 618 867 592 l 867 638 q 899 681 867 664 m 401 532 l 401 477 q 447 379 420 410 l 505 347 q 553 336 513 347 q 613 354 600 347 q 681 414 654 372 l 699 457 l 699 543 q 678 555 692 555 l 427 555 q 401 532 401 552 m 85 277 l 108 277 q 153 226 153 257 l 153 201 q 218 118 168 151 q 256 108 251 108 l 490 108 q 532 65 532 95 l 532 56 q 494 5 532 17 q 467 0 485 0 l 283 0 q 85 96 159 0 q 47 183 58 144 l 47 239 q 85 277 47 264 m 992 277 l 1022 277 q 1060 214 1050 277 q 1027 113 1052 149 q 957 38 1004 68 q 871 5 912 13 q 842 0 871 0 l 739 0 q 610 3 693 0 q 570 63 570 27 q 615 108 570 90 l 849 108 q 935 161 911 124 q 960 254 946 174 q 992 277 981 277 z "},"o":{"ha":796,"x_min":54,"x_max":721,"o":"m 387 1105 q 425 1100 416 1100 l 445 1100 q 495 1089 469 1091 q 538 1069 495 1085 q 630 998 589 1040 q 696 886 694 914 q 707 854 701 886 q 714 809 711 854 q 721 775 720 809 q 707 687 711 707 q 616 536 672 581 q 578 499 616 532 l 578 468 q 538 431 565 431 q 529 429 538 429 q 488 468 488 441 q 484 479 484 468 l 484 526 q 511 572 486 551 q 614 705 576 610 l 614 714 q 623 752 614 728 l 623 791 q 551 942 602 896 q 397 1008 477 1008 q 389 1010 397 1010 l 387 1010 q 285 987 321 1004 q 161 847 198 947 q 151 818 161 842 l 151 725 q 217 606 172 649 q 278 553 278 557 q 285 536 285 540 l 285 475 q 248 436 273 436 l 224 436 q 185 509 185 456 q 106 592 145 532 q 54 734 62 661 l 54 813 q 66 870 66 865 q 124 976 98 951 q 208 1055 140 1006 q 323 1100 255 1082 l 353 1100 q 387 1105 385 1105 m 366 861 l 397 861 q 486 831 438 855 q 556 741 541 785 q 560 736 560 741 l 560 725 q 529 694 560 706 l 509 694 q 463 755 492 703 q 409 782 427 782 l 387 784 q 348 782 369 782 q 285 721 298 753 q 244 694 285 707 l 241 694 q 215 723 215 709 l 215 741 q 287 833 215 774 q 366 861 321 852 m 251 397 q 287 355 275 397 l 292 355 q 321 353 313 355 q 377 355 355 355 l 481 355 q 495 382 488 355 q 524 397 516 397 l 538 397 q 578 359 578 388 l 578 161 q 551 93 570 121 q 458 12 518 38 l 422 0 l 348 0 q 287 22 316 9 q 251 50 286 28 q 197 140 212 89 q 188 183 188 181 l 188 341 q 226 397 188 386 l 251 397 m 285 251 l 285 181 q 330 109 294 139 q 391 95 353 95 q 481 168 453 95 q 484 199 484 181 l 484 255 l 472 258 l 292 258 q 285 251 288 258 z "},"p":{"ha":955,"x_min":54,"x_max":882,"o":"m 665 1023 q 800 949 760 1000 q 863 852 854 901 q 873 822 873 829 l 873 792 q 882 760 873 781 l 879 732 l 879 651 q 882 594 879 629 q 836 532 868 532 l 822 532 q 768 589 768 532 l 765 589 q 768 643 768 625 l 768 749 q 741 846 766 789 q 589 914 692 914 q 545 911 561 911 l 429 911 q 391 914 414 911 q 342 903 376 906 q 266 838 319 897 q 236 765 254 800 q 198 746 210 746 l 193 746 q 138 808 138 758 l 138 811 q 214 952 138 869 q 339 1023 260 1000 l 665 1023 m 494 787 l 524 787 q 610 730 610 754 q 629 689 616 730 l 629 637 q 575 562 604 562 q 507 537 575 547 q 437 564 437 549 q 385 637 410 564 l 385 684 q 420 751 385 705 q 494 787 452 776 m 100 722 l 214 722 q 255 684 240 722 l 255 667 q 217 629 255 642 l 98 629 q 54 681 63 629 q 100 722 74 722 m 472 665 q 505 627 472 633 l 510 627 q 545 665 534 627 q 507 694 531 694 q 472 665 486 694 m 98 553 l 203 553 q 255 513 255 553 l 255 502 q 231 469 255 486 l 79 469 q 54 507 54 493 l 54 513 q 98 553 54 545 m 429 543 q 469 502 469 532 l 469 496 q 439 437 469 482 q 437 426 437 432 l 437 401 q 510 339 437 359 q 578 404 578 361 l 578 429 q 548 480 578 445 l 545 494 l 545 502 q 591 543 560 543 l 594 543 q 673 418 645 543 q 624 301 659 338 q 537 255 592 270 l 477 255 q 412 282 437 267 q 353 372 362 328 q 345 407 353 374 l 345 423 q 429 543 368 543 m 817 488 l 825 488 q 879 426 871 488 q 882 423 882 426 l 879 396 q 882 374 879 385 q 879 312 879 338 l 879 298 q 882 255 879 283 q 871 184 874 237 q 760 35 843 92 q 684 3 719 11 q 681 0 684 0 l 339 0 q 252 38 281 15 q 138 198 172 87 l 138 214 q 182 271 138 262 q 190 274 182 274 l 198 274 q 260 195 240 274 q 323 125 262 181 q 385 111 364 111 l 385 109 q 697 130 669 114 q 768 296 768 178 q 770 345 768 334 q 765 369 768 351 q 768 393 768 384 l 765 412 q 803 486 765 471 l 817 488 m 109 393 q 203 391 163 391 l 225 391 q 255 361 229 391 l 255 336 q 209 298 255 309 l 100 298 q 54 347 65 298 q 98 391 67 391 l 109 393 z "},"q":{"ha":1162,"x_min":68,"x_max":1088,"o":"m 491 1023 l 507 1023 q 559 966 547 1023 q 502 906 559 920 q 401 873 477 906 q 277 776 361 864 q 184 591 208 699 q 133 534 184 553 l 130 534 q 71 594 71 543 l 81 654 q 136 779 87 683 q 190 852 170 831 q 304 949 269 936 q 382 990 321 965 q 491 1023 425 1012 m 646 1023 l 670 1023 q 814 977 739 1010 q 968 857 890 937 q 1047 735 1016 802 q 1088 621 1076 674 l 1088 575 q 1047 543 1067 543 l 1023 543 q 979 581 979 555 q 963 643 975 581 q 887 776 943 702 l 876 784 l 871 784 q 773 673 825 739 q 713 597 713 608 l 713 589 q 735 532 722 577 l 735 494 q 686 399 728 454 q 643 372 649 372 q 608 361 618 361 l 553 361 q 453 420 504 367 q 423 505 439 447 q 288 583 389 528 q 266 635 266 619 q 298 711 266 694 q 336 727 298 720 q 339 730 336 730 l 347 730 q 507 648 376 730 q 583 670 524 659 l 618 659 l 637 659 q 800 844 672 690 l 800 846 q 700 895 741 892 q 643 909 686 906 q 600 952 600 930 l 600 985 q 646 1023 600 1012 m 119 488 l 136 488 q 193 393 182 488 q 209 353 199 388 q 266 258 239 294 q 431 136 342 174 q 521 114 500 114 q 553 73 553 93 l 553 46 q 515 5 543 5 q 510 0 515 0 l 491 0 q 315 68 386 24 q 222 136 246 112 q 87 361 102 271 q 73 418 75 385 q 68 423 68 418 l 68 431 q 119 488 84 488 m 1025 488 l 1039 488 q 1088 448 1073 488 l 1088 401 q 1072 342 1078 374 q 974 176 1019 221 q 903 109 935 127 q 711 11 825 41 l 667 0 l 659 0 q 610 43 610 14 l 610 84 q 670 117 630 117 q 711 130 678 123 q 860 220 764 142 q 971 410 941 307 q 1006 483 971 451 l 1025 488 z "},"r":{"ha":1148,"x_min":54,"x_max":1077,"o":"m 838 1023 l 868 1023 q 928 979 911 1010 q 939 944 939 954 l 939 784 q 1069 686 1044 710 q 1077 662 1075 686 l 1077 640 q 1025 597 1069 597 q 928 651 994 597 q 787 746 903 664 q 600 865 651 848 l 534 865 q 312 724 503 865 q 176 629 271 699 q 111 597 125 597 l 103 597 q 54 635 54 606 l 54 675 q 100 719 54 691 q 456 960 446 960 q 543 982 519 982 l 578 982 q 670 960 622 982 q 762 903 699 951 l 768 903 l 768 933 q 822 1017 768 991 q 838 1023 831 1023 m 241 618 l 244 618 q 298 564 298 604 l 298 258 q 336 174 313 192 q 429 122 378 127 l 437 117 l 461 117 q 510 79 510 106 l 510 43 q 453 0 510 13 q 307 46 361 14 q 193 209 220 107 q 182 244 193 214 l 182 567 q 241 618 201 618 m 884 618 l 887 618 q 949 564 932 618 l 949 562 q 947 505 947 526 l 947 450 q 949 404 947 436 l 947 404 l 949 399 l 949 353 q 922 168 949 208 q 844 62 912 127 q 754 16 793 26 l 681 0 q 618 49 618 13 l 618 73 q 670 117 618 111 q 768 149 720 119 q 825 247 825 198 q 833 266 833 253 l 833 570 q 884 618 833 608 m 458 553 l 667 553 q 703 515 689 553 l 703 182 q 659 146 703 151 q 616 195 620 146 q 618 279 618 245 l 618 445 q 608 464 618 460 l 534 464 q 510 445 510 464 l 510 439 q 513 369 510 399 l 510 345 q 513 317 513 321 l 510 285 q 513 220 513 247 q 486 149 513 149 l 461 149 q 426 187 426 149 l 426 513 q 458 553 426 532 z "},"s":{"ha":1048,"x_min":61,"x_max":978,"o":"m 495 1118 l 530 1118 q 639 1085 602 1109 q 753 974 711 1055 q 777 876 777 924 q 783 857 783 876 l 783 852 l 769 773 q 671 643 733 681 q 576 597 637 615 q 522 589 549 597 q 406 618 436 599 q 319 681 388 618 q 262 819 262 762 q 254 852 255 819 l 254 857 q 289 979 264 943 q 427 1099 333 1066 q 495 1118 452 1109 m 422 868 l 422 854 q 468 773 422 808 q 509 757 500 757 l 530 757 q 606 814 587 773 q 617 846 617 844 l 617 863 q 574 933 598 921 q 536 949 544 949 l 503 949 q 433 903 467 945 q 422 868 422 875 m 340 586 l 354 586 q 403 537 403 572 l 403 529 q 319 450 403 487 q 218 336 236 376 q 183 241 189 278 q 178 225 178 233 l 178 138 q 202 117 189 123 l 449 117 q 509 68 498 117 l 509 49 q 457 0 509 14 l 199 0 q 118 35 144 11 q 66 106 77 71 q 61 130 61 123 l 61 214 q 134 423 66 300 q 240 532 200 506 q 340 586 296 576 m 680 586 l 704 586 q 894 437 780 564 q 959 293 959 325 q 970 241 966 293 q 978 209 977 241 l 978 127 q 932 46 964 75 q 845 0 906 16 l 582 0 q 533 49 559 0 l 530 60 q 587 117 550 117 l 837 117 q 861 141 850 123 l 861 217 q 791 377 838 323 q 677 472 715 463 q 639 510 639 493 l 639 548 q 680 586 654 586 z "},"t":{"ha":1145,"x_min":54,"x_max":1076,"o":"m 337 1022 l 351 1022 q 403 970 403 1010 l 403 965 q 371 911 403 911 q 331 897 358 897 q 254 848 286 872 q 194 768 194 780 q 172 711 178 744 q 120 673 150 679 l 111 673 q 54 725 79 673 l 54 742 l 80 817 q 294 1008 154 957 q 337 1022 323 1022 m 511 1022 q 688 928 602 1010 q 785 782 764 855 q 793 762 793 772 l 793 717 q 742 673 778 673 l 736 673 q 677 731 695 673 q 562 873 648 820 q 482 908 517 899 q 451 954 465 918 l 451 959 q 511 1022 467 1022 m 117 631 q 168 597 155 631 q 300 417 208 468 q 385 385 355 394 q 411 349 396 378 l 411 326 q 351 274 388 274 l 342 274 q 300 286 334 280 q 168 366 233 311 q 74 508 82 454 q 54 557 54 539 l 54 585 q 106 631 71 631 l 117 631 m 728 628 l 751 628 q 802 568 791 628 q 771 474 802 559 l 771 471 q 885 357 806 429 q 956 286 885 346 q 1010 231 992 241 q 1062 174 1010 228 q 1076 128 1076 136 l 1076 103 q 988 0 1076 33 l 939 0 q 871 45 915 0 q 788 120 829 94 q 717 197 788 135 q 682 237 707 197 q 602 305 616 305 q 514 280 540 280 l 505 280 q 457 314 457 283 q 448 326 454 314 l 448 342 q 488 391 463 391 l 551 417 q 677 565 635 460 q 728 628 692 628 z "},"u":{"ha":1165,"x_min":54,"x_max":1088,"o":"m 206 1039 l 928 1039 q 1025 998 996 1028 q 1080 914 1080 946 q 1088 890 1086 914 l 1088 600 q 1025 545 1088 554 q 971 602 971 563 l 971 882 q 928 920 971 906 l 928 909 q 936 868 936 883 l 936 789 q 909 694 928 720 q 827 627 875 642 q 800 616 816 627 l 342 616 q 252 665 282 633 q 212 743 212 711 q 203 762 206 744 l 203 887 q 214 914 203 897 q 212 922 212 920 l 209 922 q 168 876 168 908 l 168 602 q 119 540 150 540 l 98 540 q 54 581 54 553 l 54 906 q 130 1012 75 976 q 206 1039 157 1028 m 317 882 l 320 868 l 320 768 q 363 730 342 730 l 776 730 q 822 781 802 730 q 819 800 822 797 q 822 838 822 823 l 822 857 q 784 917 812 917 q 762 925 783 925 l 377 925 q 317 882 341 925 m 697 890 l 730 890 q 779 825 779 871 q 746 773 775 798 q 724 765 730 765 l 711 765 q 651 822 651 781 l 651 841 q 697 890 668 890 m 545 570 l 589 570 q 665 532 629 564 q 703 467 696 493 l 703 391 q 635 312 682 346 q 572 293 581 293 q 467 339 524 293 q 429 429 441 374 q 450 502 441 491 q 513 559 469 537 q 545 570 514 559 m 106 496 l 114 496 q 168 434 155 496 l 168 160 q 222 114 168 125 l 434 114 q 477 117 450 114 q 551 65 551 111 q 553 52 553 65 q 496 3 536 3 q 486 0 492 0 q 475 3 475 0 q 429 0 443 0 l 236 0 q 130 24 177 0 q 54 127 77 58 l 54 464 q 106 496 78 496 m 1020 496 l 1039 496 q 1088 442 1078 496 l 1088 149 q 1047 60 1072 82 q 922 3 1001 3 q 800 0 865 0 l 659 0 q 586 57 595 0 q 659 114 586 114 l 882 114 q 892 117 888 114 q 920 111 905 111 q 971 163 971 130 l 971 448 q 1020 496 981 496 z "},"v":{"ha":1165,"x_min":54,"x_max":1100,"o":"m 759 1043 l 783 1043 q 942 924 836 1043 q 1088 756 1088 787 q 1100 723 1088 749 l 1100 720 q 1058 625 1089 654 q 966 591 1033 601 q 859 659 920 596 l 850 659 q 341 149 517 332 q 237 45 331 145 l 197 12 q 176 0 191 12 l 124 0 q 54 70 54 24 q 81 159 54 142 q 716 793 446 519 q 664 860 716 804 q 646 915 646 907 l 646 924 q 686 1010 650 966 q 759 1043 737 1043 m 127 970 l 142 970 q 277 857 176 970 q 441 677 441 703 q 445 662 441 667 q 399 601 433 601 l 366 601 q 246 707 343 601 q 176 781 176 772 q 69 909 69 869 q 127 970 69 944 m 728 418 l 765 418 q 844 366 844 391 q 939 269 850 366 q 1040 155 1040 176 l 1040 92 q 972 9 1040 55 q 948 0 954 0 l 896 0 q 762 110 859 0 q 621 271 629 231 l 621 305 q 670 397 625 344 q 728 418 724 418 z "},"w":{"ha":1137,"x_min":54,"x_max":1077,"o":"m 469 1023 l 491 1023 q 537 982 517 1023 l 543 963 q 488 909 526 909 q 355 857 406 888 l 307 822 q 206 700 239 761 l 182 640 q 165 575 171 607 q 114 534 142 534 q 65 564 65 545 q 54 586 58 564 l 54 602 q 95 730 54 633 l 119 776 q 225 903 155 838 q 369 993 301 963 l 469 1023 m 635 1023 l 662 1023 q 854 941 806 981 q 963 844 876 930 q 1055 681 1025 763 l 1077 597 l 1077 594 q 1028 534 1077 553 l 1012 534 q 963 583 963 547 q 952 627 952 614 q 865 781 919 715 q 681 898 766 877 q 616 914 652 908 q 589 949 589 932 l 589 982 q 635 1023 589 1008 m 515 873 l 602 873 q 713 819 679 853 q 768 732 743 802 l 779 686 l 779 673 q 713 540 761 581 q 643 477 643 483 q 624 420 633 477 q 572 382 606 382 l 567 374 q 659 323 633 359 q 678 255 673 298 q 646 176 670 203 q 575 146 602 146 q 461 214 486 146 q 450 244 450 241 l 450 271 q 496 350 459 314 q 551 377 547 373 q 494 426 494 401 l 494 488 q 564 597 502 538 q 632 673 632 651 l 632 692 q 564 738 632 722 l 559 738 q 477 667 477 722 q 407 608 452 608 q 350 643 350 622 q 336 678 345 643 l 336 684 q 372 784 345 739 q 472 860 402 827 q 515 873 507 865 m 100 491 l 114 491 q 168 442 155 491 q 217 307 171 394 q 312 195 249 250 q 461 125 417 125 q 502 114 461 119 q 543 71 537 98 q 545 60 545 71 l 545 57 q 510 8 534 8 q 488 0 509 0 l 475 0 l 410 16 q 247 100 319 48 q 122 241 158 174 q 62 391 62 348 q 54 415 56 391 l 54 445 q 100 491 64 488 m 1020 486 q 1077 426 1061 486 l 1077 423 q 1063 366 1069 401 q 974 193 1029 265 q 836 71 884 93 q 673 5 800 43 q 654 0 673 0 l 627 0 q 578 52 595 0 l 578 62 q 629 114 578 93 q 784 174 688 114 q 909 301 865 229 q 955 420 951 374 q 966 456 962 420 q 1020 486 994 486 z "},"x":{"ha":1172,"x_min":61,"x_max":1095,"o":"m 538 1055 l 609 1055 q 747 971 656 1050 q 921 841 802 935 q 1057 732 1025 768 q 1073 694 1073 702 l 1073 637 q 1013 559 1067 604 q 886 464 985 541 q 690 315 719 340 q 951 117 736 274 q 978 157 966 117 l 978 307 q 981 328 978 318 q 978 350 978 339 l 978 450 q 1029 507 978 489 l 1035 507 q 1095 450 1095 494 l 1095 144 q 1046 46 1081 83 q 962 0 998 5 l 647 0 q 595 52 610 0 q 677 114 595 114 q 709 111 682 114 l 734 114 q 753 109 739 114 q 783 111 771 111 l 796 111 q 802 117 802 111 q 693 201 751 151 q 617 255 661 220 q 576 269 587 269 l 571 269 q 454 193 543 269 q 392 149 450 193 l 349 114 q 354 109 349 109 q 378 114 372 114 l 416 114 q 547 87 547 114 q 557 52 550 87 q 509 0 547 0 l 191 0 q 96 54 150 5 q 61 125 84 71 l 61 464 q 115 510 79 510 q 167 469 167 494 q 175 450 175 463 l 175 157 q 202 117 175 135 l 460 312 l 460 315 q 362 391 422 349 q 227 494 229 494 q 113 578 215 505 q 72 662 87 604 l 72 667 q 113 751 87 734 q 351 933 138 774 q 538 1055 505 1055 m 194 667 q 267 608 224 633 l 362 534 q 408 499 366 534 q 481 445 473 453 q 563 393 549 393 l 587 393 q 671 448 608 393 l 829 564 q 956 665 895 611 l 956 670 q 867 738 956 673 l 772 814 q 631 920 671 882 q 590 941 597 941 l 576 941 q 498 898 543 941 q 349 787 397 827 q 194 667 220 693 z "},"y":{"ha":1162,"x_min":68,"x_max":1104,"o":"m 526 1055 l 648 1055 q 800 977 756 1023 q 890 838 844 939 q 901 773 890 823 l 901 667 q 865 608 901 643 q 817 594 837 594 q 738 654 763 594 q 732 670 732 663 l 732 760 q 670 868 732 815 q 605 892 641 888 q 583 898 605 898 q 507 871 543 886 q 442 776 463 844 l 442 581 q 448 575 443 575 l 792 575 q 819 572 805 575 q 844 575 829 575 l 955 575 q 1055 526 1023 557 q 1096 456 1096 479 q 1104 423 1103 456 l 1104 366 q 1061 309 1097 309 l 1044 309 q 996 342 1008 309 q 987 361 987 355 q 990 380 987 369 q 987 415 987 397 l 987 423 q 952 458 973 448 l 220 458 q 184 415 184 434 l 184 361 q 133 304 184 321 l 130 304 q 79 334 79 315 q 71 350 71 336 l 71 437 q 138 543 92 513 q 201 567 174 567 q 225 575 201 573 l 266 575 q 271 581 271 575 l 271 735 q 293 854 271 789 q 372 977 304 899 q 513 1050 458 1042 q 526 1055 513 1055 m 589 331 l 594 331 q 656 288 656 315 q 665 271 665 285 l 665 214 q 600 163 644 180 l 581 163 q 507 225 507 188 l 507 269 q 553 323 507 296 q 589 331 567 331 m 119 266 l 136 266 q 176 233 176 254 q 184 214 184 227 l 184 160 q 231 114 195 114 l 903 114 q 977 130 977 114 q 987 152 987 140 l 987 203 q 1039 266 1002 266 l 1055 266 q 1104 217 1104 252 l 1104 138 q 1074 65 1090 95 q 971 0 1017 6 l 206 0 q 100 65 130 20 q 73 125 82 93 q 71 127 71 125 l 71 176 q 68 214 71 191 q 106 260 83 260 q 119 266 106 265 z "},"z":{"ha":1200,"x_min":61,"x_max":1135,"o":"m 509 1020 l 514 1020 q 571 971 571 1006 l 571 952 q 514 906 564 906 q 441 871 456 895 q 411 822 415 849 q 408 730 408 770 l 408 285 q 430 163 408 163 q 495 119 455 127 q 514 114 495 114 l 538 114 q 571 68 571 94 l 571 49 q 525 3 571 24 l 506 0 l 427 19 q 311 133 357 54 q 286 171 307 171 l 99 171 q 61 201 83 171 l 61 233 q 107 263 83 263 l 281 263 l 294 266 l 294 353 q 254 372 294 372 q 175 369 210 369 l 151 372 q 129 366 137 366 q 61 393 61 374 l 61 420 q 88 456 75 456 l 286 456 q 294 464 290 456 l 294 559 q 289 564 294 564 l 102 564 q 61 594 67 564 l 61 621 q 126 651 61 651 q 167 654 134 654 l 186 654 q 262 651 220 654 q 294 670 294 651 l 294 751 q 281 760 294 755 l 267 757 l 121 757 q 61 795 61 766 l 61 817 q 107 852 73 852 l 115 852 q 137 849 134 852 q 167 852 155 852 l 286 852 q 311 890 307 852 l 354 952 q 490 1015 426 1015 q 509 1020 490 1019 m 674 1020 l 685 1020 q 769 998 741 1012 q 837 952 810 977 q 894 852 870 916 l 1078 852 q 1135 806 1126 852 l 1135 803 q 1070 757 1135 763 l 929 757 l 913 760 q 902 751 902 755 l 902 662 q 910 654 902 658 l 1084 654 q 1135 613 1124 654 l 1135 608 q 1092 564 1123 564 l 907 564 q 902 559 902 564 l 902 464 q 910 456 902 460 l 1097 456 q 1135 407 1126 456 q 1092 372 1124 372 q 1038 369 1073 369 l 935 369 q 932 372 932 369 q 899 358 909 372 l 902 339 l 902 266 l 916 263 l 932 263 q 994 260 975 263 q 1062 263 1021 263 l 1089 263 q 1135 214 1120 263 q 1100 171 1124 180 l 907 171 q 875 122 886 171 q 758 19 829 44 q 699 5 743 12 q 680 0 699 0 l 677 0 q 623 46 623 14 q 617 52 617 46 l 617 62 q 674 114 629 114 q 758 152 730 125 q 785 220 774 178 l 785 806 q 728 887 760 887 q 650 909 690 909 q 617 955 623 928 l 617 963 q 674 1020 633 1020 z "},"{":{"ha":1158,"x_min":61,"x_max":1084,"o":"m 460 1023 l 503 1023 q 541 985 526 1023 l 541 958 q 479 909 541 915 q 278 792 346 873 q 189 640 203 705 q 175 583 178 620 q 134 545 157 545 l 110 543 q 61 591 62 557 l 61 616 q 156 825 91 744 q 248 922 156 836 q 330 974 322 974 q 460 1023 376 1001 m 633 1023 l 688 1023 q 731 1009 696 1015 q 937 879 844 972 q 1051 708 1021 793 q 1084 600 1065 679 q 1040 545 1069 545 l 1008 545 q 964 605 975 545 l 937 689 q 842 814 909 745 q 639 911 716 911 q 595 955 595 927 l 595 985 q 633 1023 595 1008 m 623 811 l 633 811 q 718 719 669 811 q 831 532 831 541 q 834 513 834 521 q 747 361 834 492 l 677 247 q 617 220 677 228 q 574 263 574 231 l 574 288 q 617 369 574 307 l 636 401 l 628 407 l 354 407 q 278 453 314 414 q 264 496 264 486 l 264 537 q 332 618 264 581 q 373 627 340 618 l 636 627 l 636 629 q 574 738 574 732 l 574 770 q 623 811 589 811 m 110 491 l 118 491 q 170 456 170 486 q 180 410 176 456 q 335 187 227 264 q 490 122 433 128 q 528 111 490 119 q 552 68 552 89 l 552 57 q 495 0 552 17 q 435 14 465 11 q 400 24 435 20 q 202 152 273 75 q 156 206 195 152 q 126 250 126 245 q 69 388 85 320 q 61 420 62 388 l 61 442 q 110 491 71 491 m 1027 491 q 1084 431 1066 491 q 1073 382 1076 422 q 1051 317 1065 376 l 1002 225 q 929 141 960 170 q 693 11 822 43 q 652 3 675 11 q 595 60 595 21 l 595 68 q 650 117 607 117 q 701 133 652 123 q 812 198 801 172 q 894 274 835 198 q 964 426 938 330 q 991 483 970 465 q 1027 491 1009 491 z "},"|":{"ha":688,"x_min":0,"x_max":0,"o":""},"}":{"ha":688,"x_min":0,"x_max":0,"o":""},"~":{"ha":688,"x_min":0,"x_max":0,"o":""},"":{"ha":456,"x_min":0,"x_max":0,"o":""},"":{"ha":772,"x_min":0,"x_max":0,"o":""},"":{"ha":688,"x_min":0,"x_max":0,"o":""},"":{"ha":688,"x_min":0,"x_max":0,"o":""},"":{"ha":856,"x_min":0,"x_max":0,"o":""},"":{"ha":688,"x_min":0,"x_max":0,"o":""},"":{"ha":688,"x_min":0,"x_max":0,"o":""},"":{"ha":694,"x_min":0,"x_max":0,"o":""},"":{"ha":1301,"x_min":61,"x_max":1240,"o":"m 565 1146 l 566 1143 l 566 1093 l 565 1090 q 484 1087 501 1087 l 484 1045 q 541 1048 493 1045 l 542 1045 l 542 993 q 482 986 542 989 l 482 943 q 566 948 508 948 q 565 895 566 941 q 436 876 479 885 l 435 879 l 435 985 q 420 1006 435 990 l 420 1008 q 436 1035 436 1029 l 436 1140 q 450 1145 436 1143 q 565 1146 522 1146 m 614 1146 l 656 1146 q 712 1021 661 1144 l 713 1021 l 713 1143 q 716 1146 714 1146 l 757 1146 q 760 1143 760 1145 l 760 1077 q 761 1031 760 1061 q 776 1013 763 1031 l 761 995 l 761 892 l 760 889 q 713 897 713 894 q 659 1025 659 1023 l 657 1025 l 657 899 q 654 897 657 897 l 612 897 q 610 899 610 897 l 610 999 l 595 1018 l 595 1019 l 610 1038 l 610 1109 q 614 1146 610 1146 m 855 1143 q 936 1127 930 1143 q 949 1077 949 1109 l 949 1042 q 946 1039 949 1039 q 901 1048 901 1043 l 901 1064 q 885 1080 901 1080 l 871 1080 q 865 1069 865 1078 l 865 1029 l 881 1006 l 881 1003 q 867 981 867 987 l 867 944 q 898 930 867 930 q 903 940 901 934 q 901 953 901 947 l 901 962 l 903 964 q 950 953 950 957 l 950 912 q 922 862 950 862 l 918 862 q 823 908 823 875 q 817 950 819 908 l 817 987 q 802 1013 817 993 l 817 1034 l 817 1099 q 855 1143 817 1138 m 393 1142 l 395 1139 l 395 1082 q 347 1076 395 1079 l 347 1019 q 361 996 347 1015 q 345 967 345 972 l 345 857 q 298 842 345 852 l 298 963 q 283 986 283 981 q 299 1013 299 1006 l 299 1069 l 298 1069 l 252 1065 l 252 1132 q 393 1142 252 1137 m 996 1136 q 1038 1135 1001 1136 q 1040 1131 1040 1132 q 1041 998 1040 1082 q 1055 975 1043 998 l 1055 971 q 1041 948 1041 954 l 1041 941 q 1042 823 1041 898 l 1040 821 q 995 840 995 837 l 995 884 q 994 966 995 911 q 979 987 992 966 l 979 989 q 994 1012 994 1007 l 994 1048 q 992 1135 994 1077 q 996 1136 995 1136 m 1103 1128 q 1148 1120 1148 1126 q 1149 1101 1149 1111 l 1149 976 l 1164 941 q 1149 918 1149 925 l 1149 854 q 1221 821 1154 850 l 1223 819 l 1223 738 q 1220 734 1223 734 q 1103 795 1177 762 l 1103 931 q 1087 964 1103 935 q 1102 989 1102 984 l 1102 1126 l 1103 1128 m 172 1127 q 207 1069 207 1120 l 207 1022 q 159 1010 207 1019 l 158 1013 l 158 1042 q 152 1048 158 1044 q 123 1027 123 1048 l 123 1000 q 127 989 123 989 q 171 998 134 989 q 205 943 205 998 l 205 926 q 220 903 205 922 q 205 869 205 873 q 135 774 205 796 q 103 761 111 761 l 100 761 q 75 819 75 761 l 75 870 q 121 889 75 873 l 123 886 l 123 861 q 127 852 124 852 q 158 878 158 858 l 158 902 q 153 913 158 913 q 103 901 111 901 q 75 958 79 901 l 75 979 q 61 1008 75 982 l 61 1009 q 75 1053 75 1034 q 138 1126 75 1126 q 172 1127 158 1127 m 581 847 l 588 847 q 616 821 604 847 l 616 814 q 587 785 616 791 l 556 785 q 515 778 545 781 q 479 764 515 777 q 406 675 427 734 q 400 651 406 669 q 395 606 395 618 l 395 595 q 400 564 395 587 q 429 507 400 545 q 496 471 477 471 q 526 463 496 467 q 551 439 551 458 q 553 430 553 434 l 553 395 q 565 363 553 363 q 595 357 570 359 q 612 328 612 347 q 614 323 614 328 q 600 302 609 307 q 589 298 594 298 l 566 298 q 514 325 545 300 q 492 366 496 349 l 492 400 q 474 413 492 410 q 413 441 458 415 q 345 532 364 477 q 340 555 340 549 l 334 586 l 334 612 q 344 675 340 664 q 377 752 348 705 q 429 802 406 789 q 514 839 468 831 q 524 842 514 841 l 538 842 q 581 847 553 847 m 660 847 l 677 847 l 729 840 l 774 827 q 863 760 819 812 q 892 707 884 733 q 903 675 903 688 q 908 644 907 675 q 913 605 913 644 l 913 589 q 903 536 907 541 q 821 433 882 470 q 758 408 789 416 l 757 401 l 757 382 q 718 313 757 345 q 683 298 689 298 l 656 298 q 634 322 634 305 l 634 332 q 653 355 634 349 q 679 361 658 357 q 698 389 692 368 l 698 443 q 744 467 698 463 q 822 514 809 491 q 846 566 846 541 q 850 576 850 569 l 850 632 q 844 669 844 659 q 836 686 841 669 q 787 751 828 714 q 708 779 743 779 l 696 785 l 657 785 q 630 814 637 785 l 630 820 q 660 847 641 847 m 509 688 l 517 688 q 564 669 539 688 q 582 627 581 644 l 582 618 q 562 574 580 597 q 522 557 541 557 q 514 554 522 554 l 513 554 q 481 564 495 559 q 448 615 458 579 l 448 622 q 468 670 452 649 q 509 688 492 687 m 726 688 l 734 688 q 785 663 756 688 q 799 629 799 635 l 799 616 q 776 574 791 585 q 731 555 759 555 q 690 569 704 559 q 667 618 667 589 q 666 624 666 618 q 679 661 668 647 q 716 686 696 682 q 726 688 716 688 m 624 586 q 646 564 646 582 l 646 519 q 624 496 646 503 q 601 517 601 505 l 601 566 q 624 586 607 586 m 92 490 l 93 490 q 146 436 145 436 l 146 321 q 163 279 146 314 q 146 274 150 274 l 146 157 l 144 157 q 92 211 140 157 l 92 326 l 75 370 l 77 370 q 90 371 85 371 l 92 371 l 92 490 m 1200 462 q 1211 433 1211 462 l 1211 394 q 1158 340 1176 354 l 1156 340 l 1156 357 q 1154 366 1156 361 q 1112 319 1112 339 l 1112 298 q 1115 293 1112 296 q 1184 349 1126 300 q 1197 354 1194 354 l 1201 354 q 1211 326 1211 349 l 1211 311 l 1213 311 q 1227 309 1225 309 l 1227 307 q 1211 257 1211 269 q 1166 163 1211 214 q 1074 97 1096 97 l 1069 97 q 1050 130 1050 97 l 1050 168 q 1112 211 1107 210 l 1112 189 q 1115 186 1112 186 q 1154 220 1132 191 q 1156 237 1156 229 l 1156 245 l 1155 256 l 1151 256 q 1072 203 1090 203 q 1050 237 1050 203 l 1050 250 l 1029 261 q 1050 302 1050 290 q 1138 417 1050 358 q 1200 462 1181 462 m 239 352 l 241 352 q 330 312 260 352 q 401 229 401 283 l 401 188 l 400 184 q 334 214 346 205 l 334 233 q 289 267 334 252 l 288 267 q 285 264 285 267 l 285 220 q 305 184 285 214 l 305 180 q 285 173 286 173 l 285 128 q 328 98 285 113 l 330 98 q 334 102 332 98 l 334 130 q 401 101 400 105 l 401 51 q 370 19 398 19 q 260 71 341 19 q 220 159 220 104 l 220 210 l 201 250 l 201 251 q 220 258 220 255 l 220 313 q 239 352 220 352 m 970 311 l 972 307 l 972 186 q 992 176 976 186 q 972 146 992 175 l 972 32 q 908 4 967 25 l 904 4 q 822 123 825 122 l 822 -19 q 751 -33 822 -26 l 751 81 q 728 101 728 100 q 751 125 736 106 l 751 244 q 823 258 751 247 q 904 143 859 204 l 904 280 q 963 306 907 285 q 970 311 963 307 m 501 251 l 513 251 q 637 233 637 239 q 665 183 665 218 l 665 120 q 689 97 665 119 l 665 74 l 665 20 q 607 -39 665 -39 q 492 -17 538 -39 q 465 39 465 5 l 465 97 l 442 125 l 442 128 q 465 144 460 138 l 465 210 q 501 251 469 251 m 537 173 l 537 43 q 582 28 537 28 q 591 33 588 28 l 591 168 q 552 182 591 182 q 546 183 552 183 q 537 173 537 183 m 68 156 l 70 156 q 372 -52 322 -16 l 372 -54 l 73 -54 l 70 -52 q 68 88 68 45 l 68 156 m 1239 156 l 1239 88 q 1238 -52 1239 45 l 1234 -54 l 936 -54 l 936 -52 q 1239 156 1218 145 m 1054 -69 l 1105 -69 q 1107 -72 1107 -70 l 1107 -85 l 1076 -125 l 1105 -125 q 1107 -128 1107 -126 l 1107 -140 q 1105 -143 1107 -143 l 1054 -143 q 1051 -140 1051 -143 l 1051 -132 q 1084 -87 1051 -125 l 1054 -87 q 1051 -83 1051 -87 l 1051 -72 q 1054 -69 1052 -69 m 75 -71 l 102 -71 q 115 -91 115 -71 l 115 -92 q 111 -95 115 -95 l 100 -95 q 93 -87 94 -87 l 92 -87 l 84 -88 l 84 -100 q 90 -106 90 -106 l 84 -114 l 84 -123 q 87 -125 85 -125 l 96 -125 q 100 -117 97 -117 l 111 -117 q 115 -120 115 -117 l 115 -121 q 100 -143 115 -143 l 80 -143 q 67 -130 67 -141 l 67 -114 q 61 -106 67 -113 l 67 -100 l 67 -83 q 75 -71 67 -76 m 140 -71 l 163 -71 q 175 -79 172 -71 l 175 -101 l 180 -106 l 180 -109 l 175 -114 l 175 -130 q 162 -143 173 -143 l 142 -143 q 129 -134 134 -143 l 129 -114 q 123 -106 129 -113 q 129 -100 123 -106 l 129 -82 q 140 -71 129 -71 m 198 -71 l 211 -71 q 230 -101 213 -71 q 245 -71 242 -71 l 259 -71 q 262 -73 262 -71 l 262 -101 l 266 -106 l 266 -109 l 262 -114 l 262 -140 q 259 -143 262 -143 l 248 -143 q 244 -140 244 -143 l 244 -114 l 243 -114 q 229 -142 231 -142 l 227 -142 l 214 -113 l 212 -113 l 212 -140 q 210 -143 212 -143 l 198 -143 q 195 -140 195 -143 l 195 -114 q 189 -106 195 -113 l 195 -100 l 195 -73 q 198 -71 196 -71 m 285 -71 l 317 -71 q 328 -82 328 -71 l 328 -111 q 312 -120 323 -120 l 299 -120 l 299 -140 q 296 -143 299 -143 l 285 -143 q 282 -140 282 -143 l 282 -114 l 277 -109 l 277 -106 l 282 -101 l 282 -73 q 285 -71 282 -71 m 347 -71 l 358 -71 q 361 -73 361 -71 l 361 -101 l 366 -106 l 361 -113 l 361 -140 q 358 -143 361 -143 l 347 -143 q 344 -140 344 -143 l 344 -114 l 338 -106 l 344 -100 l 344 -73 q 347 -71 345 -71 m 385 -71 l 396 -71 q 399 -73 399 -71 l 399 -100 q 405 -106 405 -106 l 399 -114 l 399 -125 l 422 -125 q 425 -128 425 -126 l 425 -140 q 422 -143 425 -143 l 385 -143 q 382 -140 382 -143 l 382 -113 l 377 -106 l 382 -101 l 382 -73 q 385 -71 382 -71 m 444 -71 l 484 -71 q 487 -73 487 -71 l 487 -83 q 484 -87 487 -87 l 458 -87 l 458 -98 l 475 -98 q 478 -101 478 -98 l 478 -113 q 475 -115 478 -115 l 458 -115 l 458 -125 l 484 -125 q 487 -128 487 -126 l 487 -140 q 484 -143 487 -143 l 444 -143 q 441 -140 441 -143 l 441 -113 l 436 -106 l 441 -101 l 441 -73 q 444 -71 441 -71 m 507 -71 l 538 -71 q 552 -87 552 -71 l 552 -101 l 556 -106 l 552 -113 l 552 -128 q 536 -143 552 -143 l 507 -143 q 504 -140 504 -143 l 504 -114 l 500 -109 l 500 -106 l 504 -101 l 504 -73 q 507 -71 505 -71 m 588 -71 l 612 -71 q 624 -85 624 -71 l 624 -100 q 608 -113 624 -113 l 597 -113 l 597 -121 l 608 -121 q 611 -114 608 -114 l 621 -114 q 624 -117 624 -115 l 624 -140 q 621 -143 624 -143 l 611 -143 q 608 -138 608 -143 l 601 -138 q 581 -125 581 -138 l 581 -113 l 569 -113 q 566 -110 566 -113 l 566 -100 q 569 -97 567 -97 l 581 -97 l 581 -78 q 588 -71 581 -76 m 642 -71 l 653 -71 q 656 -73 656 -71 l 656 -118 q 660 -123 656 -121 l 666 -123 q 669 -120 669 -123 l 669 -73 q 671 -71 669 -71 l 683 -71 q 686 -73 686 -71 l 686 -101 l 690 -106 l 690 -109 l 686 -114 l 686 -127 q 670 -143 686 -129 l 656 -143 q 638 -123 638 -132 l 638 -113 l 634 -106 l 638 -101 l 638 -73 q 642 -71 639 -71 m 709 -71 l 749 -71 q 752 -73 752 -71 l 752 -83 q 749 -87 752 -87 l 724 -87 l 724 -98 l 741 -98 q 744 -101 744 -98 l 744 -113 q 741 -115 744 -115 l 724 -115 l 724 -125 l 749 -125 q 752 -128 752 -126 l 752 -140 q 749 -143 752 -143 l 709 -143 q 706 -140 706 -143 l 706 -114 q 701 -106 701 -108 l 706 -100 l 706 -73 q 709 -71 707 -71 m 780 -71 l 803 -71 q 814 -82 814 -71 l 814 -92 q 812 -95 814 -95 l 800 -95 l 794 -87 l 789 -87 q 785 -90 785 -87 l 785 -100 q 791 -106 791 -106 l 785 -114 l 785 -125 l 797 -125 q 800 -117 797 -117 l 812 -117 q 814 -120 814 -117 l 814 -134 q 802 -143 810 -143 l 781 -143 q 768 -130 768 -141 l 768 -114 l 762 -106 q 768 -100 762 -106 l 768 -82 q 780 -71 768 -71 m 827 -71 l 872 -71 q 875 -73 875 -71 l 875 -83 q 872 -87 875 -87 l 859 -87 l 859 -101 l 863 -106 l 863 -109 l 859 -114 l 859 -140 q 857 -143 859 -143 l 845 -143 q 842 -140 842 -143 l 842 -114 l 838 -109 l 838 -106 l 842 -101 l 842 -87 l 827 -87 q 825 -83 825 -87 l 825 -73 q 827 -71 825 -71 m 901 -71 l 924 -71 q 936 -82 936 -71 l 936 -100 q 941 -106 941 -106 l 936 -114 l 936 -130 q 923 -143 934 -143 l 903 -143 q 890 -134 895 -143 l 890 -114 l 884 -106 l 890 -100 l 890 -82 q 901 -71 890 -71 m 959 -71 l 991 -71 q 1002 -82 1002 -71 l 1002 -111 q 994 -120 1002 -113 q 1004 -142 1004 -140 l 1001 -143 l 986 -143 q 975 -121 983 -143 l 973 -121 l 973 -140 q 970 -143 973 -143 l 959 -143 q 956 -140 956 -143 l 956 -114 l 951 -109 l 951 -106 l 956 -101 l 956 -73 q 959 -71 956 -71 m 1023 -71 l 1034 -71 q 1037 -73 1037 -71 l 1037 -100 l 1042 -106 l 1037 -114 l 1037 -140 q 1034 -143 1037 -143 l 1023 -143 q 1019 -140 1019 -143 l 1019 -113 l 1015 -106 l 1019 -101 l 1019 -73 q 1023 -71 1020 -71 m 1125 -71 l 1165 -71 q 1168 -73 1168 -71 l 1168 -83 q 1165 -87 1168 -87 l 1139 -87 l 1139 -98 l 1156 -98 q 1160 -101 1160 -98 l 1160 -113 q 1156 -115 1160 -115 l 1139 -115 l 1139 -125 l 1165 -125 q 1168 -128 1168 -126 l 1168 -140 q 1165 -143 1168 -143 l 1125 -143 q 1122 -140 1122 -143 l 1122 -114 l 1118 -109 l 1118 -106 l 1122 -101 l 1122 -73 q 1125 -71 1122 -71 m 1188 -71 l 1220 -71 q 1233 -91 1233 -71 l 1233 -101 l 1238 -106 l 1233 -113 l 1233 -125 q 1219 -143 1233 -143 l 1188 -143 q 1185 -140 1185 -143 l 1185 -114 q 1179 -106 1179 -108 q 1185 -100 1185 -100 l 1185 -73 q 1188 -71 1186 -71 m 146 -90 l 146 -125 l 158 -125 l 158 -90 q 155 -87 158 -87 l 149 -87 q 146 -90 146 -87 m 299 -87 l 299 -104 l 311 -104 l 311 -90 q 308 -87 311 -87 l 299 -87 m 522 -90 l 522 -125 l 532 -125 q 534 -123 534 -125 l 534 -91 q 530 -87 534 -89 l 524 -87 q 522 -90 522 -87 m 597 -87 l 597 -97 l 605 -97 q 608 -94 608 -97 l 608 -90 q 605 -87 608 -87 l 597 -87 m 907 -90 l 907 -125 l 918 -125 l 918 -90 q 916 -87 918 -87 l 909 -87 q 907 -90 907 -87 m 973 -87 l 973 -104 l 985 -104 l 985 -90 q 982 -87 985 -87 l 973 -87 m 1203 -87 l 1203 -125 l 1213 -125 q 1216 -123 1216 -125 l 1216 -91 q 1211 -87 1216 -89 l 1203 -87 m 74 -165 l 94 -165 q 97 -168 97 -165 l 97 -238 l 113 -238 l 113 -225 q 107 -218 107 -219 l 107 -216 l 113 -210 l 113 -168 q 116 -165 113 -165 l 136 -165 q 139 -168 139 -165 l 139 -210 l 144 -216 l 144 -218 q 139 -225 139 -224 l 139 -238 l 155 -238 l 155 -168 q 158 -165 155 -165 l 178 -165 q 181 -168 181 -165 l 181 -210 l 186 -216 l 186 -218 q 181 -225 186 -219 l 181 -245 q 156 -269 181 -248 l 138 -269 l 126 -258 l 115 -269 l 96 -269 q 71 -245 71 -247 l 71 -225 l 65 -218 l 65 -216 q 71 -210 71 -210 l 71 -168 q 74 -165 72 -165 m 227 -165 l 253 -165 q 273 -183 273 -165 l 273 -208 l 281 -216 l 281 -218 l 273 -227 l 273 -251 q 248 -269 273 -269 l 233 -269 q 207 -247 207 -269 l 207 -227 l 199 -218 l 199 -216 q 207 -208 207 -208 l 207 -189 q 227 -165 207 -165 m 321 -165 l 347 -165 q 367 -183 367 -165 l 367 -208 l 374 -216 l 374 -218 l 367 -227 l 367 -251 q 341 -269 367 -269 l 327 -269 q 300 -247 300 -269 l 300 -227 q 294 -218 294 -218 l 294 -216 q 300 -208 300 -208 l 300 -184 q 321 -165 300 -165 m 400 -165 l 446 -165 q 465 -191 465 -165 l 465 -208 l 473 -216 l 465 -225 l 465 -243 q 439 -269 465 -269 q 399 -267 431 -269 l 397 -264 l 397 -225 q 390 -216 390 -217 l 397 -208 l 397 -168 q 400 -165 398 -165 m 514 -165 l 541 -165 q 560 -182 560 -166 l 560 -198 q 557 -201 560 -201 l 538 -201 q 534 -189 536 -201 l 522 -189 q 519 -192 519 -189 l 519 -208 q 526 -216 519 -208 l 526 -218 l 519 -227 l 519 -239 q 523 -244 519 -241 l 533 -244 q 537 -229 536 -244 l 557 -229 q 560 -233 560 -230 l 560 -248 q 534 -269 560 -269 l 520 -269 q 494 -247 494 -269 l 494 -225 q 487 -216 487 -217 q 494 -208 494 -208 l 494 -184 q 514 -165 494 -165 m 585 -165 l 605 -165 q 608 -168 608 -165 l 608 -241 q 611 -244 608 -244 l 621 -244 q 624 -241 624 -244 l 624 -168 q 627 -165 625 -165 l 647 -165 q 650 -168 650 -165 l 650 -210 l 656 -216 l 656 -218 l 650 -225 l 650 -243 q 624 -269 650 -269 l 605 -269 q 582 -245 582 -269 l 582 -225 l 576 -218 l 576 -216 l 582 -210 l 582 -168 q 585 -165 583 -165 m 673 -165 l 739 -165 q 743 -168 743 -165 l 743 -186 q 739 -189 743 -189 l 720 -189 l 720 -210 l 726 -218 l 720 -227 l 720 -266 q 716 -269 720 -269 l 698 -269 q 694 -266 694 -269 l 694 -227 q 688 -218 688 -218 l 688 -216 q 694 -208 694 -208 l 694 -189 l 673 -189 q 670 -186 670 -189 l 670 -168 q 673 -165 671 -165 m 757 -165 l 825 -165 q 827 -168 827 -165 l 827 -186 q 825 -189 827 -189 l 803 -189 l 803 -208 l 810 -216 l 810 -218 l 803 -227 l 803 -266 q 800 -269 803 -269 l 781 -269 q 779 -266 779 -269 l 779 -225 q 772 -218 772 -219 l 772 -216 q 779 -210 772 -216 l 779 -189 l 757 -189 q 754 -186 754 -189 l 754 -168 q 757 -165 754 -165 m 850 -165 l 909 -165 q 913 -168 913 -165 l 913 -186 q 909 -189 913 -189 l 872 -189 l 872 -203 l 898 -203 q 901 -206 901 -204 l 901 -225 q 898 -228 901 -228 l 872 -228 l 872 -244 l 909 -244 q 913 -247 913 -244 l 913 -266 q 909 -269 913 -269 l 850 -269 q 848 -266 848 -269 l 848 -225 q 840 -216 840 -217 q 848 -208 848 -208 l 848 -168 q 850 -165 848 -165 m 937 -165 l 981 -165 q 1001 -183 1001 -165 l 1001 -215 q 986 -233 999 -233 l 1004 -267 l 1001 -269 l 978 -269 l 960 -239 l 960 -266 q 958 -269 960 -269 l 937 -269 q 935 -266 935 -269 l 935 -225 q 928 -218 928 -219 l 928 -216 q 935 -210 935 -210 l 935 -168 q 937 -165 935 -165 m 1083 -165 l 1142 -165 q 1145 -168 1145 -165 l 1145 -186 q 1142 -189 1145 -189 l 1105 -189 l 1105 -203 l 1131 -203 q 1133 -206 1133 -204 l 1133 -225 q 1131 -228 1133 -228 l 1105 -228 l 1105 -244 l 1142 -244 q 1145 -247 1145 -244 l 1145 -266 q 1142 -269 1145 -269 l 1083 -269 q 1080 -266 1080 -269 l 1080 -225 q 1073 -216 1073 -217 q 1080 -208 1080 -208 l 1080 -168 q 1083 -165 1080 -165 m 1187 -165 l 1216 -165 q 1234 -191 1234 -165 l 1234 -198 q 1232 -201 1234 -201 l 1211 -201 q 1208 -198 1208 -201 l 1208 -189 l 1193 -189 l 1193 -203 l 1207 -203 q 1236 -234 1236 -203 q 1240 -238 1238 -234 l 1240 -239 q 1230 -261 1234 -245 q 1211 -269 1221 -269 l 1190 -269 q 1166 -243 1166 -269 l 1166 -235 q 1170 -233 1167 -233 l 1190 -233 q 1194 -244 1193 -233 l 1206 -244 q 1208 -241 1208 -244 l 1208 -231 q 1206 -228 1208 -228 l 1187 -228 q 1165 -199 1165 -228 q 1161 -195 1163 -199 l 1161 -193 q 1173 -170 1164 -190 q 1187 -165 1179 -165 m 233 -189 l 231 -196 l 231 -239 q 236 -244 231 -241 l 245 -244 q 249 -241 249 -244 l 249 -192 q 245 -189 249 -189 l 233 -189 m 327 -189 l 325 -196 l 325 -239 q 330 -244 325 -241 l 340 -244 q 342 -241 342 -244 l 342 -192 q 340 -189 342 -189 l 327 -189 m 423 -189 l 423 -244 l 436 -244 q 439 -241 439 -244 l 439 -189 l 423 -189 m 960 -189 l 960 -212 l 973 -212 q 976 -210 976 -212 l 976 -189 l 960 -189 m 1031 -245 l 1044 -245 q 1050 -251 1046 -245 l 1050 -258 q 1040 -269 1050 -269 l 1037 -269 q 1025 -256 1025 -269 q 1031 -245 1027 -245 z "},"":{"ha":439,"x_min":0,"x_max":0,"o":""},"":{"ha":640,"x_min":0,"x_max":0,"o":""},"":{"ha":688,"x_min":0,"x_max":0,"o":""},"":{"ha":1301,"x_min":61,"x_max":1240,"o":"m 565 1146 l 566 1143 l 566 1093 l 565 1090 q 484 1087 501 1087 l 484 1045 q 541 1048 493 1045 l 542 1045 l 542 993 q 482 986 542 989 l 482 943 q 566 948 508 948 q 565 895 566 941 q 436 876 479 885 l 435 879 l 435 985 q 420 1006 435 990 l 420 1008 q 436 1035 436 1029 l 436 1140 q 450 1145 436 1143 q 565 1146 522 1146 m 614 1146 l 656 1146 q 712 1021 661 1144 l 713 1021 l 713 1143 q 716 1146 714 1146 l 757 1146 q 760 1143 760 1145 l 760 1077 q 761 1031 760 1061 q 776 1013 763 1031 l 761 995 l 761 892 l 760 889 q 713 897 713 894 q 659 1025 659 1023 l 657 1025 l 657 899 q 654 897 657 897 l 612 897 q 610 899 610 897 l 610 999 l 595 1018 l 595 1019 l 610 1038 l 610 1109 q 614 1146 610 1146 m 855 1143 q 936 1127 930 1143 q 949 1077 949 1109 l 949 1042 q 946 1039 949 1039 q 901 1048 901 1043 l 901 1064 q 885 1080 901 1080 l 871 1080 q 865 1069 865 1078 l 865 1029 l 881 1006 l 881 1003 q 867 981 867 987 l 867 944 q 898 930 867 930 q 903 940 901 934 q 901 953 901 947 l 901 962 l 903 964 q 950 953 950 957 l 950 912 q 922 862 950 862 l 918 862 q 823 908 823 875 q 817 950 819 908 l 817 987 q 802 1013 817 993 l 817 1034 l 817 1099 q 855 1143 817 1138 m 393 1142 l 395 1139 l 395 1082 q 347 1076 395 1079 l 347 1019 q 361 996 347 1015 q 345 967 345 972 l 345 857 q 298 842 345 852 l 298 963 q 283 986 283 981 q 299 1013 299 1006 l 299 1069 l 298 1069 l 252 1065 l 252 1132 q 393 1142 252 1137 m 996 1136 q 1038 1135 1001 1136 q 1040 1131 1040 1132 q 1041 998 1040 1082 q 1055 975 1043 998 l 1055 971 q 1041 948 1041 954 l 1041 941 q 1042 823 1041 898 l 1040 821 q 995 840 995 837 l 995 884 q 994 966 995 911 q 979 987 992 966 l 979 989 q 994 1012 994 1007 l 994 1048 q 992 1135 994 1077 q 996 1136 995 1136 m 1103 1128 q 1148 1120 1148 1126 q 1149 1101 1149 1111 l 1149 976 l 1164 941 q 1149 918 1149 925 l 1149 854 q 1221 821 1154 850 l 1223 819 l 1223 738 q 1220 734 1223 734 q 1103 795 1177 762 l 1103 931 q 1087 964 1103 935 q 1102 989 1102 984 l 1102 1126 l 1103 1128 m 172 1127 q 207 1069 207 1120 l 207 1022 q 159 1010 207 1019 l 158 1013 l 158 1042 q 152 1048 158 1044 q 123 1027 123 1048 l 123 1000 q 127 989 123 989 q 171 998 134 989 q 205 943 205 998 l 205 926 q 220 903 205 922 q 205 869 205 873 q 135 774 205 796 q 103 761 111 761 l 100 761 q 75 819 75 761 l 75 870 q 121 889 75 873 l 123 886 l 123 861 q 127 852 124 852 q 158 878 158 858 l 158 902 q 153 913 158 913 q 103 901 111 901 q 75 958 79 901 l 75 979 q 61 1008 75 982 l 61 1009 q 75 1053 75 1034 q 138 1126 75 1126 q 172 1127 158 1127 m 581 847 l 588 847 q 616 821 604 847 l 616 814 q 587 785 616 791 l 556 785 q 515 778 545 781 q 479 764 515 777 q 406 675 427 734 q 400 651 406 669 q 395 606 395 618 l 395 595 q 400 564 395 587 q 429 507 400 545 q 496 471 477 471 q 526 463 496 467 q 551 439 551 458 q 553 430 553 434 l 553 395 q 565 363 553 363 q 595 357 570 359 q 612 328 612 347 q 614 323 614 328 q 600 302 609 307 q 589 298 594 298 l 566 298 q 514 325 545 300 q 492 366 496 349 l 492 400 q 474 413 492 410 q 413 441 458 415 q 345 532 364 477 q 340 555 340 549 l 334 586 l 334 612 q 344 675 340 664 q 377 752 348 705 q 429 802 406 789 q 514 839 468 831 q 524 842 514 841 l 538 842 q 581 847 553 847 m 660 847 l 677 847 l 729 840 l 774 827 q 863 760 819 812 q 892 707 884 733 q 903 675 903 688 q 908 644 907 675 q 913 605 913 644 l 913 589 q 903 536 907 541 q 821 433 882 470 q 758 408 789 416 l 757 401 l 757 382 q 718 313 757 345 q 683 298 689 298 l 656 298 q 634 322 634 305 l 634 332 q 653 355 634 349 q 679 361 658 357 q 698 389 692 368 l 698 443 q 744 467 698 463 q 822 514 809 491 q 846 566 846 541 q 850 576 850 569 l 850 632 q 844 669 844 659 q 836 686 841 669 q 787 751 828 714 q 708 779 743 779 l 696 785 l 657 785 q 630 814 637 785 l 630 820 q 660 847 641 847 m 509 688 l 517 688 q 564 669 539 688 q 582 627 581 644 l 582 618 q 562 574 580 597 q 522 557 541 557 q 514 554 522 554 l 513 554 q 481 564 495 559 q 448 615 458 579 l 448 622 q 468 670 452 649 q 509 688 492 687 m 726 688 l 734 688 q 785 663 756 688 q 799 629 799 635 l 799 616 q 776 574 791 585 q 731 555 759 555 q 690 569 704 559 q 667 618 667 589 q 666 624 666 618 q 679 661 668 647 q 716 686 696 682 q 726 688 716 688 m 624 586 q 646 564 646 582 l 646 519 q 624 496 646 503 q 601 517 601 505 l 601 566 q 624 586 607 586 m 92 490 l 93 490 q 146 436 145 436 l 146 321 q 163 279 146 314 q 146 274 150 274 l 146 157 l 144 157 q 92 211 140 157 l 92 326 l 75 370 l 77 370 q 90 371 85 371 l 92 371 l 92 490 m 1200 462 q 1211 433 1211 462 l 1211 394 q 1158 340 1176 354 l 1156 340 l 1156 357 q 1154 366 1156 361 q 1112 319 1112 339 l 1112 298 q 1115 293 1112 296 q 1184 349 1126 300 q 1197 354 1194 354 l 1201 354 q 1211 326 1211 349 l 1211 311 l 1213 311 q 1227 309 1225 309 l 1227 307 q 1211 257 1211 269 q 1166 163 1211 214 q 1074 97 1096 97 l 1069 97 q 1050 130 1050 97 l 1050 168 q 1112 211 1107 210 l 1112 189 q 1115 186 1112 186 q 1154 220 1132 191 q 1156 237 1156 229 l 1156 245 l 1155 256 l 1151 256 q 1072 203 1090 203 q 1050 237 1050 203 l 1050 250 l 1029 261 q 1050 302 1050 290 q 1138 417 1050 358 q 1200 462 1181 462 m 239 352 l 241 352 q 330 312 260 352 q 401 229 401 283 l 401 188 l 400 184 q 334 214 346 205 l 334 233 q 289 267 334 252 l 288 267 q 285 264 285 267 l 285 220 q 305 184 285 214 l 305 180 q 285 173 286 173 l 285 128 q 328 98 285 113 l 330 98 q 334 102 332 98 l 334 130 q 401 101 400 105 l 401 51 q 370 19 398 19 q 260 71 341 19 q 220 159 220 104 l 220 210 l 201 250 l 201 251 q 220 258 220 255 l 220 313 q 239 352 220 352 m 970 311 l 972 307 l 972 186 q 992 176 976 186 q 972 146 992 175 l 972 32 q 908 4 967 25 l 904 4 q 822 123 825 122 l 822 -19 q 751 -33 822 -26 l 751 81 q 728 101 728 100 q 751 125 736 106 l 751 244 q 823 258 751 247 q 904 143 859 204 l 904 280 q 963 306 907 285 q 970 311 963 307 m 501 251 l 513 251 q 637 233 637 239 q 665 183 665 218 l 665 120 q 689 97 665 119 l 665 74 l 665 20 q 607 -39 665 -39 q 492 -17 538 -39 q 465 39 465 5 l 465 97 l 442 125 l 442 128 q 465 144 460 138 l 465 210 q 501 251 469 251 m 537 173 l 537 43 q 582 28 537 28 q 591 33 588 28 l 591 168 q 552 182 591 182 q 546 183 552 183 q 537 173 537 183 m 68 156 l 70 156 q 372 -52 322 -16 l 372 -54 l 73 -54 l 70 -52 q 68 88 68 45 l 68 156 m 1239 156 l 1239 88 q 1238 -52 1239 45 l 1234 -54 l 936 -54 l 936 -52 q 1239 156 1218 145 m 1054 -69 l 1105 -69 q 1107 -72 1107 -70 l 1107 -85 l 1076 -125 l 1105 -125 q 1107 -128 1107 -126 l 1107 -140 q 1105 -143 1107 -143 l 1054 -143 q 1051 -140 1051 -143 l 1051 -132 q 1084 -87 1051 -125 l 1054 -87 q 1051 -83 1051 -87 l 1051 -72 q 1054 -69 1052 -69 m 75 -71 l 102 -71 q 115 -91 115 -71 l 115 -92 q 111 -95 115 -95 l 100 -95 q 93 -87 94 -87 l 92 -87 l 84 -88 l 84 -100 q 90 -106 90 -106 l 84 -114 l 84 -123 q 87 -125 85 -125 l 96 -125 q 100 -117 97 -117 l 111 -117 q 115 -120 115 -117 l 115 -121 q 100 -143 115 -143 l 80 -143 q 67 -130 67 -141 l 67 -114 q 61 -106 67 -113 l 67 -100 l 67 -83 q 75 -71 67 -76 m 140 -71 l 163 -71 q 175 -79 172 -71 l 175 -101 l 180 -106 l 180 -109 l 175 -114 l 175 -130 q 162 -143 173 -143 l 142 -143 q 129 -134 134 -143 l 129 -114 q 123 -106 129 -113 q 129 -100 123 -106 l 129 -82 q 140 -71 129 -71 m 198 -71 l 211 -71 q 230 -101 213 -71 q 245 -71 242 -71 l 259 -71 q 262 -73 262 -71 l 262 -101 l 266 -106 l 266 -109 l 262 -114 l 262 -140 q 259 -143 262 -143 l 248 -143 q 244 -140 244 -143 l 244 -114 l 243 -114 q 229 -142 231 -142 l 227 -142 l 214 -113 l 212 -113 l 212 -140 q 210 -143 212 -143 l 198 -143 q 195 -140 195 -143 l 195 -114 q 189 -106 195 -113 l 195 -100 l 195 -73 q 198 -71 196 -71 m 285 -71 l 317 -71 q 328 -82 328 -71 l 328 -111 q 312 -120 323 -120 l 299 -120 l 299 -140 q 296 -143 299 -143 l 285 -143 q 282 -140 282 -143 l 282 -114 l 277 -109 l 277 -106 l 282 -101 l 282 -73 q 285 -71 282 -71 m 347 -71 l 358 -71 q 361 -73 361 -71 l 361 -101 l 366 -106 l 361 -113 l 361 -140 q 358 -143 361 -143 l 347 -143 q 344 -140 344 -143 l 344 -114 l 338 -106 l 344 -100 l 344 -73 q 347 -71 345 -71 m 385 -71 l 396 -71 q 399 -73 399 -71 l 399 -100 q 405 -106 405 -106 l 399 -114 l 399 -125 l 422 -125 q 425 -128 425 -126 l 425 -140 q 422 -143 425 -143 l 385 -143 q 382 -140 382 -143 l 382 -113 l 377 -106 l 382 -101 l 382 -73 q 385 -71 382 -71 m 444 -71 l 484 -71 q 487 -73 487 -71 l 487 -83 q 484 -87 487 -87 l 458 -87 l 458 -98 l 475 -98 q 478 -101 478 -98 l 478 -113 q 475 -115 478 -115 l 458 -115 l 458 -125 l 484 -125 q 487 -128 487 -126 l 487 -140 q 484 -143 487 -143 l 444 -143 q 441 -140 441 -143 l 441 -113 l 436 -106 l 441 -101 l 441 -73 q 444 -71 441 -71 m 507 -71 l 538 -71 q 552 -87 552 -71 l 552 -101 l 556 -106 l 552 -113 l 552 -128 q 536 -143 552 -143 l 507 -143 q 504 -140 504 -143 l 504 -114 l 500 -109 l 500 -106 l 504 -101 l 504 -73 q 507 -71 505 -71 m 588 -71 l 612 -71 q 624 -85 624 -71 l 624 -100 q 608 -113 624 -113 l 597 -113 l 597 -121 l 608 -121 q 611 -114 608 -114 l 621 -114 q 624 -117 624 -115 l 624 -140 q 621 -143 624 -143 l 611 -143 q 608 -138 608 -143 l 601 -138 q 581 -125 581 -138 l 581 -113 l 569 -113 q 566 -110 566 -113 l 566 -100 q 569 -97 567 -97 l 581 -97 l 581 -78 q 588 -71 581 -76 m 642 -71 l 653 -71 q 656 -73 656 -71 l 656 -118 q 660 -123 656 -121 l 666 -123 q 669 -120 669 -123 l 669 -73 q 671 -71 669 -71 l 683 -71 q 686 -73 686 -71 l 686 -101 l 690 -106 l 690 -109 l 686 -114 l 686 -127 q 670 -143 686 -129 l 656 -143 q 638 -123 638 -132 l 638 -113 l 634 -106 l 638 -101 l 638 -73 q 642 -71 639 -71 m 709 -71 l 749 -71 q 752 -73 752 -71 l 752 -83 q 749 -87 752 -87 l 724 -87 l 724 -98 l 741 -98 q 744 -101 744 -98 l 744 -113 q 741 -115 744 -115 l 724 -115 l 724 -125 l 749 -125 q 752 -128 752 -126 l 752 -140 q 749 -143 752 -143 l 709 -143 q 706 -140 706 -143 l 706 -114 q 701 -106 701 -108 l 706 -100 l 706 -73 q 709 -71 707 -71 m 780 -71 l 803 -71 q 814 -82 814 -71 l 814 -92 q 812 -95 814 -95 l 800 -95 l 794 -87 l 789 -87 q 785 -90 785 -87 l 785 -100 q 791 -106 791 -106 l 785 -114 l 785 -125 l 797 -125 q 800 -117 797 -117 l 812 -117 q 814 -120 814 -117 l 814 -134 q 802 -143 810 -143 l 781 -143 q 768 -130 768 -141 l 768 -114 l 762 -106 q 768 -100 762 -106 l 768 -82 q 780 -71 768 -71 m 827 -71 l 872 -71 q 875 -73 875 -71 l 875 -83 q 872 -87 875 -87 l 859 -87 l 859 -101 l 863 -106 l 863 -109 l 859 -114 l 859 -140 q 857 -143 859 -143 l 845 -143 q 842 -140 842 -143 l 842 -114 l 838 -109 l 838 -106 l 842 -101 l 842 -87 l 827 -87 q 825 -83 825 -87 l 825 -73 q 827 -71 825 -71 m 901 -71 l 924 -71 q 936 -82 936 -71 l 936 -100 q 941 -106 941 -106 l 936 -114 l 936 -130 q 923 -143 934 -143 l 903 -143 q 890 -134 895 -143 l 890 -114 l 884 -106 l 890 -100 l 890 -82 q 901 -71 890 -71 m 959 -71 l 991 -71 q 1002 -82 1002 -71 l 1002 -111 q 994 -120 1002 -113 q 1004 -142 1004 -140 l 1001 -143 l 986 -143 q 975 -121 983 -143 l 973 -121 l 973 -140 q 970 -143 973 -143 l 959 -143 q 956 -140 956 -143 l 956 -114 l 951 -109 l 951 -106 l 956 -101 l 956 -73 q 959 -71 956 -71 m 1023 -71 l 1034 -71 q 1037 -73 1037 -71 l 1037 -100 l 1042 -106 l 1037 -114 l 1037 -140 q 1034 -143 1037 -143 l 1023 -143 q 1019 -140 1019 -143 l 1019 -113 l 1015 -106 l 1019 -101 l 1019 -73 q 1023 -71 1020 -71 m 1125 -71 l 1165 -71 q 1168 -73 1168 -71 l 1168 -83 q 1165 -87 1168 -87 l 1139 -87 l 1139 -98 l 1156 -98 q 1160 -101 1160 -98 l 1160 -113 q 1156 -115 1160 -115 l 1139 -115 l 1139 -125 l 1165 -125 q 1168 -128 1168 -126 l 1168 -140 q 1165 -143 1168 -143 l 1125 -143 q 1122 -140 1122 -143 l 1122 -114 l 1118 -109 l 1118 -106 l 1122 -101 l 1122 -73 q 1125 -71 1122 -71 m 1188 -71 l 1220 -71 q 1233 -91 1233 -71 l 1233 -101 l 1238 -106 l 1233 -113 l 1233 -125 q 1219 -143 1233 -143 l 1188 -143 q 1185 -140 1185 -143 l 1185 -114 q 1179 -106 1179 -108 q 1185 -100 1185 -100 l 1185 -73 q 1188 -71 1186 -71 m 146 -90 l 146 -125 l 158 -125 l 158 -90 q 155 -87 158 -87 l 149 -87 q 146 -90 146 -87 m 299 -87 l 299 -104 l 311 -104 l 311 -90 q 308 -87 311 -87 l 299 -87 m 522 -90 l 522 -125 l 532 -125 q 534 -123 534 -125 l 534 -91 q 530 -87 534 -89 l 524 -87 q 522 -90 522 -87 m 597 -87 l 597 -97 l 605 -97 q 608 -94 608 -97 l 608 -90 q 605 -87 608 -87 l 597 -87 m 907 -90 l 907 -125 l 918 -125 l 918 -90 q 916 -87 918 -87 l 909 -87 q 907 -90 907 -87 m 973 -87 l 973 -104 l 985 -104 l 985 -90 q 982 -87 985 -87 l 973 -87 m 1203 -87 l 1203 -125 l 1213 -125 q 1216 -123 1216 -125 l 1216 -91 q 1211 -87 1216 -89 l 1203 -87 m 74 -165 l 94 -165 q 97 -168 97 -165 l 97 -238 l 113 -238 l 113 -225 q 107 -218 107 -219 l 107 -216 l 113 -210 l 113 -168 q 116 -165 113 -165 l 136 -165 q 139 -168 139 -165 l 139 -210 l 144 -216 l 144 -218 q 139 -225 139 -224 l 139 -238 l 155 -238 l 155 -168 q 158 -165 155 -165 l 178 -165 q 181 -168 181 -165 l 181 -210 l 186 -216 l 186 -218 q 181 -225 186 -219 l 181 -245 q 156 -269 181 -248 l 138 -269 l 126 -258 l 115 -269 l 96 -269 q 71 -245 71 -247 l 71 -225 l 65 -218 l 65 -216 q 71 -210 71 -210 l 71 -168 q 74 -165 72 -165 m 227 -165 l 253 -165 q 273 -183 273 -165 l 273 -208 l 281 -216 l 281 -218 l 273 -227 l 273 -251 q 248 -269 273 -269 l 233 -269 q 207 -247 207 -269 l 207 -227 l 199 -218 l 199 -216 q 207 -208 207 -208 l 207 -189 q 227 -165 207 -165 m 321 -165 l 347 -165 q 367 -183 367 -165 l 367 -208 l 374 -216 l 374 -218 l 367 -227 l 367 -251 q 341 -269 367 -269 l 327 -269 q 300 -247 300 -269 l 300 -227 q 294 -218 294 -218 l 294 -216 q 300 -208 300 -208 l 300 -184 q 321 -165 300 -165 m 400 -165 l 446 -165 q 465 -191 465 -165 l 465 -208 l 473 -216 l 465 -225 l 465 -243 q 439 -269 465 -269 q 399 -267 431 -269 l 397 -264 l 397 -225 q 390 -216 390 -217 l 397 -208 l 397 -168 q 400 -165 398 -165 m 514 -165 l 541 -165 q 560 -182 560 -166 l 560 -198 q 557 -201 560 -201 l 538 -201 q 534 -189 536 -201 l 522 -189 q 519 -192 519 -189 l 519 -208 q 526 -216 519 -208 l 526 -218 l 519 -227 l 519 -239 q 523 -244 519 -241 l 533 -244 q 537 -229 536 -244 l 557 -229 q 560 -233 560 -230 l 560 -248 q 534 -269 560 -269 l 520 -269 q 494 -247 494 -269 l 494 -225 q 487 -216 487 -217 q 494 -208 494 -208 l 494 -184 q 514 -165 494 -165 m 585 -165 l 605 -165 q 608 -168 608 -165 l 608 -241 q 611 -244 608 -244 l 621 -244 q 624 -241 624 -244 l 624 -168 q 627 -165 625 -165 l 647 -165 q 650 -168 650 -165 l 650 -210 l 656 -216 l 656 -218 l 650 -225 l 650 -243 q 624 -269 650 -269 l 605 -269 q 582 -245 582 -269 l 582 -225 l 576 -218 l 576 -216 l 582 -210 l 582 -168 q 585 -165 583 -165 m 673 -165 l 739 -165 q 743 -168 743 -165 l 743 -186 q 739 -189 743 -189 l 720 -189 l 720 -210 l 726 -218 l 720 -227 l 720 -266 q 716 -269 720 -269 l 698 -269 q 694 -266 694 -269 l 694 -227 q 688 -218 688 -218 l 688 -216 q 694 -208 694 -208 l 694 -189 l 673 -189 q 670 -186 670 -189 l 670 -168 q 673 -165 671 -165 m 757 -165 l 825 -165 q 827 -168 827 -165 l 827 -186 q 825 -189 827 -189 l 803 -189 l 803 -208 l 810 -216 l 810 -218 l 803 -227 l 803 -266 q 800 -269 803 -269 l 781 -269 q 779 -266 779 -269 l 779 -225 q 772 -218 772 -219 l 772 -216 q 779 -210 772 -216 l 779 -189 l 757 -189 q 754 -186 754 -189 l 754 -168 q 757 -165 754 -165 m 850 -165 l 909 -165 q 913 -168 913 -165 l 913 -186 q 909 -189 913 -189 l 872 -189 l 872 -203 l 898 -203 q 901 -206 901 -204 l 901 -225 q 898 -228 901 -228 l 872 -228 l 872 -244 l 909 -244 q 913 -247 913 -244 l 913 -266 q 909 -269 913 -269 l 850 -269 q 848 -266 848 -269 l 848 -225 q 840 -216 840 -217 q 848 -208 848 -208 l 848 -168 q 850 -165 848 -165 m 937 -165 l 981 -165 q 1001 -183 1001 -165 l 1001 -215 q 986 -233 999 -233 l 1004 -267 l 1001 -269 l 978 -269 l 960 -239 l 960 -266 q 958 -269 960 -269 l 937 -269 q 935 -266 935 -269 l 935 -225 q 928 -218 928 -219 l 928 -216 q 935 -210 935 -210 l 935 -168 q 937 -165 935 -165 m 1083 -165 l 1142 -165 q 1145 -168 1145 -165 l 1145 -186 q 1142 -189 1145 -189 l 1105 -189 l 1105 -203 l 1131 -203 q 1133 -206 1133 -204 l 1133 -225 q 1131 -228 1133 -228 l 1105 -228 l 1105 -244 l 1142 -244 q 1145 -247 1145 -244 l 1145 -266 q 1142 -269 1145 -269 l 1083 -269 q 1080 -266 1080 -269 l 1080 -225 q 1073 -216 1073 -217 q 1080 -208 1080 -208 l 1080 -168 q 1083 -165 1080 -165 m 1187 -165 l 1216 -165 q 1234 -191 1234 -165 l 1234 -198 q 1232 -201 1234 -201 l 1211 -201 q 1208 -198 1208 -201 l 1208 -189 l 1193 -189 l 1193 -203 l 1207 -203 q 1236 -234 1236 -203 q 1240 -238 1238 -234 l 1240 -239 q 1230 -261 1234 -245 q 1211 -269 1221 -269 l 1190 -269 q 1166 -243 1166 -269 l 1166 -235 q 1170 -233 1167 -233 l 1190 -233 q 1194 -244 1193 -233 l 1206 -244 q 1208 -241 1208 -244 l 1208 -231 q 1206 -228 1208 -228 l 1187 -228 q 1165 -199 1165 -228 q 1161 -195 1163 -199 l 1161 -193 q 1173 -170 1164 -190 q 1187 -165 1179 -165 m 233 -189 l 231 -196 l 231 -239 q 236 -244 231 -241 l 245 -244 q 249 -241 249 -244 l 249 -192 q 245 -189 249 -189 l 233 -189 m 327 -189 l 325 -196 l 325 -239 q 330 -244 325 -241 l 340 -244 q 342 -241 342 -244 l 342 -192 q 340 -189 342 -189 l 327 -189 m 423 -189 l 423 -244 l 436 -244 q 439 -241 439 -244 l 439 -189 l 423 -189 m 960 -189 l 960 -212 l 973 -212 q 976 -210 976 -212 l 976 -189 l 960 -189 m 1031 -245 l 1044 -245 q 1050 -251 1046 -245 l 1050 -258 q 1040 -269 1050 -269 l 1037 -269 q 1025 -256 1025 -269 q 1031 -245 1027 -245 z "},"":{"ha":454,"x_min":0,"x_max":0,"o":""},"":{"ha":457,"x_min":0,"x_max":0,"o":""},"":{"ha":688,"x_min":0,"x_max":0,"o":""},"":{"ha":688,"x_min":0,"x_max":0,"o":""},"":{"ha":688,"x_min":0,"x_max":0,"o":""},"":{"ha":694,"x_min":0,"x_max":0,"o":""},"":{"ha":800,"x_min":0,"x_max":0,"o":""},"":{"ha":694,"x_min":0,"x_max":0,"o":""},"":{"ha":345,"x_min":0,"x_max":0,"o":""},"":{"ha":694,"x_min":0,"x_max":0,"o":""},"":{"ha":688,"x_min":0,"x_max":0,"o":""},"":{"ha":487,"x_min":0,"x_max":0,"o":""},"":{"ha":640,"x_min":0,"x_max":0,"o":""},"":{"ha":1158,"x_min":0,"x_max":0,"o":""},"":{"ha":1332,"x_min":0,"x_max":0,"o":""},"":{"ha":1158,"x_min":0,"x_max":0,"o":""},"":{"ha":507,"x_min":0,"x_max":0,"o":""},"":{"ha":1044,"x_min":0,"x_max":0,"o":""},"":{"ha":1044,"x_min":0,"x_max":0,"o":""},"":{"ha":1044,"x_min":0,"x_max":0,"o":""},"":{"ha":1044,"x_min":0,"x_max":0,"o":""},"":{"ha":1044,"x_min":0,"x_max":0,"o":""},"":{"ha":1044,"x_min":0,"x_max":0,"o":""},"":{"ha":1436,"x_min":0,"x_max":0,"o":""},"":{"ha":949,"x_min":0,"x_max":0,"o":""},"":{"ha":781,"x_min":0,"x_max":0,"o":""},"":{"ha":781,"x_min":0,"x_max":0,"o":""},"":{"ha":781,"x_min":0,"x_max":0,"o":""},"":{"ha":781,"x_min":0,"x_max":0,"o":""},"":{"ha":446,"x_min":0,"x_max":0,"o":""},"":{"ha":446,"x_min":0,"x_max":0,"o":""},"":{"ha":446,"x_min":0,"x_max":0,"o":""},"":{"ha":446,"x_min":0,"x_max":0,"o":""},"":{"ha":1029,"x_min":0,"x_max":0,"o":""},"":{"ha":1054,"x_min":0,"x_max":0,"o":""},"":{"ha":1095,"x_min":0,"x_max":0,"o":""},"":{"ha":1095,"x_min":0,"x_max":0,"o":""},"":{"ha":1095,"x_min":0,"x_max":0,"o":""},"":{"ha":1095,"x_min":0,"x_max":0,"o":""},"":{"ha":1095,"x_min":0,"x_max":0,"o":""},"":{"ha":688,"x_min":0,"x_max":0,"o":""},"":{"ha":1095,"x_min":0,"x_max":0,"o":""},"":{"ha":1018,"x_min":0,"x_max":0,"o":""},"":{"ha":1018,"x_min":0,"x_max":0,"o":""},"":{"ha":1018,"x_min":0,"x_max":0,"o":""},"":{"ha":1018,"x_min":0,"x_max":0,"o":""},"":{"ha":836,"x_min":0,"x_max":0,"o":""},"":{"ha":760,"x_min":0,"x_max":0,"o":""},"":{"ha":848,"x_min":0,"x_max":0,"o":""},"":{"ha":625,"x_min":0,"x_max":0,"o":""},"":{"ha":625,"x_min":0,"x_max":0,"o":""},"":{"ha":625,"x_min":0,"x_max":0,"o":""},"":{"ha":625,"x_min":0,"x_max":0,"o":""},"":{"ha":625,"x_min":0,"x_max":0,"o":""},"":{"ha":625,"x_min":0,"x_max":0,"o":""},"":{"ha":986,"x_min":0,"x_max":0,"o":""},"":{"ha":614,"x_min":0,"x_max":0,"o":""},"":{"ha":616,"x_min":0,"x_max":0,"o":""},"":{"ha":616,"x_min":0,"x_max":0,"o":""},"":{"ha":616,"x_min":0,"x_max":0,"o":""},"":{"ha":616,"x_min":0,"x_max":0,"o":""},"":{"ha":349,"x_min":0,"x_max":0,"o":""},"":{"ha":349,"x_min":0,"x_max":0,"o":""},"":{"ha":349,"x_min":0,"x_max":0,"o":""},"":{"ha":349,"x_min":0,"x_max":0,"o":""},"":{"ha":772,"x_min":0,"x_max":0,"o":""},"":{"ha":751,"x_min":0,"x_max":0,"o":""},"":{"ha":685,"x_min":0,"x_max":0,"o":""},"":{"ha":685,"x_min":0,"x_max":0,"o":""},"":{"ha":685,"x_min":0,"x_max":0,"o":""},"":{"ha":685,"x_min":0,"x_max":0,"o":""},"":{"ha":685,"x_min":0,"x_max":0,"o":""},"":{"ha":688,"x_min":0,"x_max":0,"o":""},"":{"ha":685,"x_min":0,"x_max":0,"o":""},"":{"ha":718,"x_min":0,"x_max":0,"o":""},"":{"ha":718,"x_min":0,"x_max":0,"o":""},"":{"ha":718,"x_min":0,"x_max":0,"o":""},"":{"ha":718,"x_min":0,"x_max":0,"o":""},"":{"ha":589,"x_min":0,"x_max":0,"o":""},"":{"ha":685,"x_min":0,"x_max":0,"o":""},"":{"ha":589,"x_min":0,"x_max":0,"o":""},"":{"ha":349,"x_min":0,"x_max":0,"o":""},"":{"ha":694,"x_min":0,"x_max":0,"o":""},"":{"ha":694,"x_min":0,"x_max":0,"o":""},"":{"ha":694,"x_min":0,"x_max":0,"o":""},"":{"ha":694,"x_min":0,"x_max":0,"o":""},"":{"ha":694,"x_min":0,"x_max":0,"o":""},"":{"ha":694,"x_min":0,"x_max":0,"o":""},"":{"ha":694,"x_min":0,"x_max":0,"o":""},"":{"ha":694,"x_min":0,"x_max":0,"o":""},"":{"ha":694,"x_min":0,"x_max":0,"o":""},"":{"ha":751,"x_min":0,"x_max":0,"o":""},"":{"ha":1389,"x_min":0,"x_max":0,"o":""},"":{"ha":378,"x_min":0,"x_max":0,"o":""},"":{"ha":378,"x_min":0,"x_max":0,"o":""},"":{"ha":378,"x_min":0,"x_max":0,"o":""},"":{"ha":617,"x_min":0,"x_max":0,"o":""},"":{"ha":617,"x_min":0,"x_max":0,"o":""},"":{"ha":617,"x_min":0,"x_max":0,"o":""},"":{"ha":688,"x_min":0,"x_max":0,"o":""},"":{"ha":688,"x_min":0,"x_max":0,"o":""},"":{"ha":694,"x_min":0,"x_max":0,"o":""},"":{"ha":1389,"x_min":0,"x_max":0,"o":""},"":{"ha":428,"x_min":0,"x_max":0,"o":""},"":{"ha":428,"x_min":0,"x_max":0,"o":""},"":{"ha":232,"x_min":0,"x_max":0,"o":""},"":{"ha":688,"x_min":0,"x_max":0,"o":""},"":{"ha":688,"x_min":0,"x_max":0,"o":""},"":{"ha":1375,"x_min":0,"x_max":0,"o":""}}}
